Nunito-ExtraLight.ufo
<glyph name="exclam" format="1">
  <advance width="796"/>
  <unicode hex="0021"/>
  <outline>
    <component base="period" xOffset="136" yOffset="-4"/>
    <contour>
      <point x="384" y="410" type="line"/>
      <point x="384" y="353"/>
      <point x="447" y="349"/>
      <point x="452" y="410" type="curve" smooth="yes"/>
      <point x="490" y="1412" type="line" smooth="yes"/>
      <point x="492" y="1507"/>
      <point x="345" y="1506"/>
      <point x="346" y="1412" type="curve" smooth="yes"/>
    </contour>
  </outline>
</glyph>
<glyph name="quotedbl" format="1">
  <advance width="556"/>
  <unicode hex="0022"/>
  <outline>
    <contour>
      <point x="155" y="1013" type="curve" smooth="yes"/>
      <point x="176" y="1013"/>
      <point x="198" y="1021"/>
      <point x="201" y="1069" type="curve" smooth="yes"/>
      <point x="226" y="1425" type="line"/>
      <point x="230" y="1462"/>
      <point x="191" y="1481"/>
      <point x="156" y="1481" type="curve" smooth="yes"/>
      <point x="117" y="1481"/>
      <point x="80" y="1464"/>
      <point x="86" y="1415" type="curve"/>
      <point x="86" y="1417"/>
      <point x="129" y="860"/>
      <point x="111" y="1069" type="curve"/>
      <point x="115" y="1019"/>
      <point x="134" y="1013"/>
    </contour>
    <contour>
      <point x="393" y="1013" type="curve" smooth="yes"/>
      <point x="413" y="1013"/>
      <point x="435" y="1018"/>
      <point x="438" y="1069" type="curve" smooth="yes"/>
      <point x="463" y="1425" type="line"/>
      <point x="468" y="1459"/>
      <point x="429" y="1481"/>
      <point x="393" y="1481" type="curve" smooth="yes"/>
      <point x="358" y="1481"/>
      <point x="318" y="1461"/>
      <point x="323" y="1425" type="curve"/>
      <point x="323" y="1427"/>
      <point x="366" y="860"/>
      <point x="348" y="1069" type="curve"/>
      <point x="351" y="1023"/>
      <point x="369" y="1013"/>
    </contour>
  </outline>
</glyph>
<glyph name="numbersign" format="1">
  <advance width="1145"/>
  <unicode hex="0023"/>
  <outline>
    <contour>
      <point x="272" y="-55" type="curve" smooth="yes"/>
      <point x="299" y="-55"/>
      <point x="331" y="-36"/>
      <point x="336" y="2" type="curve" smooth="yes"/>
      <point x="406" y="465" type="line"/>
      <point x="682" y="465" type="line"/>
      <point x="704" y="623"/>
      <point x="616" y="12"/>
      <point x="616" y="15" type="curve"/>
      <point x="607" y="-38"/>
      <point x="644" y="-55"/>
      <point x="677" y="-55" type="curve" smooth="yes"/>
      <point x="705" y="-55"/>
      <point x="734" y="-36"/>
      <point x="741" y="2" type="curve" smooth="yes"/>
      <point x="809" y="465" type="line"/>
      <point x="966" y="465" type="line" smooth="yes"/>
      <point x="1007" y="465"/>
      <point x="1028" y="494"/>
      <point x="1028" y="523" type="curve" smooth="yes"/>
      <point x="1028" y="554"/>
      <point x="1006" y="585"/>
      <point x="966" y="585" type="curve" smooth="yes"/>
      <point x="829" y="585" type="line"/>
      <point x="870" y="865" type="line"/>
      <point x="1023" y="865" type="line" smooth="yes"/>
      <point x="1064" y="865"/>
      <point x="1084" y="895"/>
      <point x="1084" y="925" type="curve" smooth="yes"/>
      <point x="1084" y="956"/>
      <point x="1063" y="986"/>
      <point x="1023" y="986" type="curve" smooth="yes"/>
      <point x="888" y="986" type="line"/>
      <point x="866" y="842"/>
      <point x="949" y="1401"/>
      <point x="949" y="1399" type="curve"/>
      <point x="957" y="1438"/>
      <point x="920" y="1458"/>
      <point x="887" y="1458" type="curve" smooth="yes"/>
      <point x="858" y="1458"/>
      <point x="826" y="1440"/>
      <point x="819" y="1402" type="curve" smooth="yes"/>
      <point x="759" y="986" type="line"/>
      <point x="482" y="986" type="line"/>
      <point x="461" y="842"/>
      <point x="543" y="1401"/>
      <point x="543" y="1399" type="curve"/>
      <point x="553" y="1441"/>
      <point x="515" y="1458"/>
      <point x="482" y="1458" type="curve" smooth="yes"/>
      <point x="452" y="1458"/>
      <point x="421" y="1440"/>
      <point x="414" y="1402" type="curve" smooth="yes"/>
      <point x="353" y="986" type="line"/>
      <point x="176" y="986" type="line" smooth="yes"/>
      <point x="135" y="986"/>
      <point x="116" y="957"/>
      <point x="116" y="926" type="curve" smooth="yes"/>
      <point x="116" y="896"/>
      <point x="136" y="865"/>
      <point x="176" y="865" type="curve" smooth="yes"/>
      <point x="336" y="865" type="line"/>
      <point x="294" y="585" type="line"/>
      <point x="120" y="585" type="line" smooth="yes"/>
      <point x="79" y="585"/>
      <point x="60" y="555"/>
      <point x="60" y="524" type="curve" smooth="yes"/>
      <point x="60" y="495"/>
      <point x="80" y="465"/>
      <point x="120" y="465" type="curve" smooth="yes"/>
      <point x="278" y="465" type="line"/>
      <point x="301" y="623"/>
      <point x="212" y="12"/>
      <point x="212" y="14" type="curve"/>
      <point x="200" y="-38"/>
      <point x="239" y="-55"/>
    </contour>
    <contour>
      <point x="423" y="585" type="line"/>
      <point x="465" y="865" type="line"/>
      <point x="741" y="865" type="line"/>
      <point x="700" y="585" type="line"/>
    </contour>
  </outline>
</glyph>
<glyph name="dollar" format="1">
  <advance width="1335"/>
  <unicode hex="0024"/>
  <outline>
    <component base="s" xOffset="180" yOffset="230"/>
    <contour>
      <point x="635" y="0" type="line" smooth="yes"/>
      <point x="635" y="-40"/>
      <point x="663" y="-59"/>
      <point x="692" y="-59" type="curve" smooth="yes"/>
      <point x="722" y="-59"/>
      <point x="753" y="-39"/>
      <point x="753" y="0" type="curve" smooth="yes"/>
      <point x="753" y="267" type="line"/>
      <point x="635" y="267" type="line"/>
    </contour>
    <contour>
      <point x="637" y="1200" type="line"/>
      <point x="755" y="1200" type="line"/>
      <point x="755" y="1438" type="line" smooth="yes"/>
      <point x="755" y="1477"/>
      <point x="724" y="1497"/>
      <point x="694" y="1497" type="curve" smooth="yes"/>
      <point x="665" y="1497"/>
      <point x="637" y="1478"/>
      <point x="637" y="1438" type="curve" smooth="yes"/>
    </contour>
  </outline>
</glyph>
<glyph name="ampersand" format="1">
  <advance width="1499"/>
  <unicode hex="0026"/>
  <outline>
    <contour>
      <point x="662" y="-30" type="curve" smooth="yes"/>
      <point x="847" y="-30"/>
      <point x="994" y="48"/>
      <point x="1119" y="193" type="curve"/>
      <point x="1269" y="25" type="line" smooth="yes"/>
      <point x="1287" y="4"/>
      <point x="1308" y="-5"/>
      <point x="1328" y="-5" type="curve" smooth="yes"/>
      <point x="1366" y="-5"/>
      <point x="1402" y="30"/>
      <point x="1402" y="71" type="curve" smooth="yes"/>
      <point x="1402" y="93"/>
      <point x="1392" y="104"/>
      <point x="1375" y="125" type="curve"/>
      <point x="1211" y="304" type="line"/>
      <point x="1339" y="523"/>
      <point x="1380" y="757"/>
      <point x="1378" y="853" type="curve" smooth="yes"/>
      <point x="1377" y="898"/>
      <point x="1342" y="921"/>
      <point x="1307" y="921" type="curve" smooth="yes"/>
      <point x="1274" y="921"/>
      <point x="1245" y="897"/>
      <point x="1243" y="853" type="curve"/>
      <point x="1242" y="702"/>
      <point x="1178" y="530"/>
      <point x="1119" y="397" type="curve"/>
      <point x="687" y="857" type="line"/>
      <point x="821" y="958"/>
      <point x="965" y="1071"/>
      <point x="965" y="1245" type="curve" smooth="yes"/>
      <point x="965" y="1431"/>
      <point x="868" y="1510"/>
      <point x="654" y="1511" type="curve" smooth="yes"/>
      <point x="446" y="1513"/>
      <point x="283" y="1425"/>
      <point x="283" y="1239" type="curve" smooth="yes"/>
      <point x="283" y="1095"/>
      <point x="394" y="971"/>
      <point x="487" y="867" type="curve"/>
      <point x="304" y="769"/>
      <point x="112" y="635"/>
      <point x="112" y="408" type="curve" smooth="yes"/>
      <point x="112" y="133"/>
      <point x="329" y="-30"/>
    </contour>
    <contour>
      <point x="647" y="91" type="curve" smooth="yes"/>
      <point x="447" y="91"/>
      <point x="264" y="220"/>
      <point x="264" y="432" type="curve" smooth="yes"/>
      <point x="264" y="556"/>
      <point x="389" y="677"/>
      <point x="576" y="778" type="curve"/>
      <point x="1040" y="282" type="line"/>
      <point x="917" y="160"/>
      <point x="809" y="91"/>
    </contour>
    <contour>
      <point x="600" y="941" type="curve"/>
      <point x="530" y="1016"/>
      <point x="440" y="1131"/>
      <point x="440" y="1234" type="curve" smooth="yes"/>
      <point x="440" y="1340"/>
      <point x="530" y="1380"/>
      <point x="626" y="1380" type="curve" smooth="yes"/>
      <point x="716" y="1380"/>
      <point x="806" y="1334"/>
      <point x="806" y="1234" type="curve" smooth="yes"/>
      <point x="806" y="1108"/>
      <point x="687" y="1022"/>
    </contour>
  </outline>
</glyph>
<glyph name="quotesingle" format="1">
  <advance width="572"/>
  <unicode hex="0027"/>
  <outline>
    <contour>
      <point x="285" y="1007" type="curve" smooth="yes"/>
      <point x="309" y="1007"/>
      <point x="331" y="1004"/>
      <point x="334" y="1043" type="curve" smooth="yes"/>
      <point x="361" y="1421" type="line"/>
      <point x="361" y="1461"/>
      <point x="324" y="1481"/>
      <point x="287" y="1481" type="curve" smooth="yes"/>
      <point x="247" y="1481"/>
      <point x="212" y="1460"/>
      <point x="212" y="1421" type="curve"/>
      <point x="212" y="1422"/>
      <point x="251" y="904"/>
      <point x="238" y="1043" type="curve"/>
      <point x="241" y="1004"/>
      <point x="263" y="1007"/>
    </contour>
  </outline>
</glyph>
<glyph name="parenleft" format="1">
  <advance width="563"/>
  <unicode hex="0028"/>
  <outline>
    <contour>
      <point x="412" y="-208" type="curve" smooth="yes"/>
      <point x="433" y="-208"/>
      <point x="457" y="-192"/>
      <point x="457" y="-169" type="curve" smooth="yes"/>
      <point x="457" y="-163"/>
      <point x="458" y="-161"/>
      <point x="457" y="-162" type="curve"/>
      <point x="354" y="110"/>
      <point x="291" y="385"/>
      <point x="291" y="643" type="curve" smooth="yes"/>
      <point x="291" y="900"/>
      <point x="354" y="1175"/>
      <point x="457" y="1446" type="curve" smooth="yes"/>
      <point x="459" y="1448"/>
      <point x="457" y="1450"/>
      <point x="457" y="1452" type="curve" smooth="yes"/>
      <point x="457" y="1476"/>
      <point x="433" y="1494"/>
      <point x="411" y="1494" type="curve" smooth="yes"/>
      <point x="401" y="1494"/>
      <point x="386" y="1498"/>
      <point x="379" y="1485" type="curve" smooth="yes"/>
      <point x="265" y="1217"/>
      <point x="157" y="932"/>
      <point x="157" y="643" type="curve" smooth="yes"/>
      <point x="157" y="360"/>
      <point x="261" y="83"/>
      <point x="370" y="-175" type="curve"/>
      <point x="382" y="-198"/>
      <point x="394" y="-208"/>
    </contour>
  </outline>
</glyph>
<glyph name="comma" format="1">
  <advance width="571"/>
  <unicode hex="002C"/>
  <outline>
    <contour>
      <point x="161" y="-347" type="curve"/>
      <point x="187" y="-347" type="line"/>
      <point x="216" y="-348"/>
      <point x="232" y="-336"/>
      <point x="243" y="-304" type="curve" smooth="yes"/>
      <point x="400" y="159" type="line" smooth="yes"/>
      <point x="405" y="173"/>
      <point x="408" y="212"/>
      <point x="366" y="215" type="curve"/>
      <point x="294" y="215" type="line"/>
      <point x="262" y="214"/>
      <point x="229" y="206"/>
      <point x="221" y="159" type="curve" smooth="yes"/>
      <point x="137" y="-304" type="line" smooth="yes"/>
      <point x="135" y="-316"/>
      <point x="133" y="-346"/>
    </contour>
  </outline>
</glyph>
<glyph name="slash" format="1">
  <advance width="724"/>
  <unicode hex="002F"/>
  <outline>
    <contour>
      <point x="112" y="-194" type="curve" smooth="yes"/>
      <point x="137" y="-194"/>
      <point x="162" y="-180"/>
      <point x="172" y="-149" type="curve" smooth="yes"/>
      <point x="666" y="1338" type="line" smooth="yes"/>
      <point x="668" y="1349"/>
      <point x="671" y="1359"/>
      <point x="671" y="1363" type="curve" smooth="yes"/>
      <point x="671" y="1398"/>
      <point x="641" y="1419"/>
      <point x="609" y="1419" type="curve" smooth="yes"/>
      <point x="581" y="1419"/>
      <point x="557" y="1405"/>
      <point x="548" y="1375" type="curve" smooth="yes"/>
      <point x="59" y="-114" type="line" smooth="yes"/>
      <point x="56" y="-125"/>
      <point x="54" y="-132"/>
      <point x="54" y="-138" type="curve" smooth="yes"/>
      <point x="54" y="-173"/>
      <point x="82" y="-194"/>
    </contour>
  </outline>
</glyph>
<glyph name="zero" format="1">
  <advance width="1145"/>
  <unicode hex="0030"/>
  <outline>
    <contour>
      <point x="572" y="92" type="curve" smooth="yes"/>
      <point x="280" y="92"/>
      <point x="250" y="454"/>
      <point x="250" y="693" type="curve" smooth="yes"/>
      <point x="250" y="960"/>
      <point x="284" y="1307"/>
      <point x="572" y="1307" type="curve" smooth="yes"/>
      <point x="862" y="1307"/>
      <point x="896" y="956"/>
      <point x="896" y="693" type="curve" smooth="yes"/>
      <point x="896" y="458"/>
      <point x="866" y="92"/>
    </contour>
    <contour>
      <point x="572" y="-22" type="curve" smooth="yes"/>
      <point x="959" y="-22"/>
      <point x="1047" y="320"/>
      <point x="1047" y="693" type="curve" smooth="yes"/>
      <point x="1047" y="1097"/>
      <point x="950" y="1421"/>
      <point x="572" y="1421" type="curve" smooth="yes"/>
      <point x="195" y="1421"/>
      <point x="97" y="1100"/>
      <point x="97" y="693" type="curve" smooth="yes"/>
      <point x="97" y="316"/>
      <point x="186" y="-22"/>
    </contour>
  </outline>
</glyph>
<glyph name="one" format="1">
  <advance width="1138"/>
  <unicode hex="0031"/>
  <outline>
    <contour>
      <point x="639" y="0" type="curve" smooth="yes"/>
      <point x="676" y="0"/>
      <point x="711" y="21"/>
      <point x="711" y="66" type="curve" smooth="yes"/>
      <point x="711" y="1353" type="line" smooth="yes"/>
      <point x="711" y="1401"/>
      <point x="678" y="1422"/>
      <point x="644" y="1422" type="curve" smooth="yes"/>
      <point x="631" y="1422"/>
      <point x="613" y="1417"/>
      <point x="601" y="1409" type="curve" smooth="yes"/>
      <point x="275" y="1198" type="line" smooth="yes"/>
      <point x="258" y="1184"/>
      <point x="251" y="1172"/>
      <point x="251" y="1156" type="curve" smooth="yes"/>
      <point x="251" y="1127"/>
      <point x="277" y="1100"/>
      <point x="308" y="1100" type="curve" smooth="yes"/>
      <point x="319" y="1100"/>
      <point x="329" y="1104"/>
      <point x="338" y="1110" type="curve" smooth="yes"/>
      <point x="569" y="1261" type="line"/>
      <point x="569" y="66" type="line" smooth="yes"/>
      <point x="569" y="21"/>
      <point x="605" y="0"/>
    </contour>
  </outline>
</glyph>
<glyph name="two" format="1">
  <advance width="1132"/>
  <unicode hex="0032"/>
  <outline>
    <contour>
      <point x="263" y="0" type="curve" smooth="yes"/>
      <point x="934" y="0" type="line" smooth="yes"/>
      <point x="982" y="0"/>
      <point x="1006" y="26"/>
      <point x="1006" y="54" type="curve" smooth="yes"/>
      <point x="1006" y="82"/>
      <point x="981" y="109"/>
      <point x="934" y="109" type="curve" smooth="yes"/>
      <point x="296" y="109" type="line"/>
      <point x="779" y="601" type="line"/>
      <point x="950" y="767"/>
      <point x="1014" y="886"/>
      <point x="1014" y="1041" type="curve" smooth="yes"/>
      <point x="1014" y="1258"/>
      <point x="832" y="1437"/>
      <point x="595" y="1435" type="curve" smooth="yes"/>
      <point x="387" y="1434"/>
      <point x="294" y="1376"/>
      <point x="194" y="1312" type="curve" smooth="yes"/>
      <point x="129" y="1271"/>
      <point x="184" y="1180"/>
      <point x="250" y="1215" type="curve" smooth="yes"/>
      <point x="324" y="1255"/>
      <point x="381" y="1319"/>
      <point x="592" y="1319" type="curve" smooth="yes"/>
      <point x="751" y="1319"/>
      <point x="883" y="1205"/>
      <point x="883" y="1022" type="curve" smooth="yes"/>
      <point x="883" y="911"/>
      <point x="825" y="815"/>
      <point x="704" y="692" type="curve" smooth="yes"/>
      <point x="182" y="157" type="line" smooth="yes"/>
      <point x="93" y="67"/>
      <point x="159" y="0"/>
    </contour>
  </outline>
</glyph>
<glyph name="three" format="1">
  <advance width="1128"/>
  <unicode hex="0033"/>
  <outline>
    <contour>
      <point x="530" y="-22" type="curve" smooth="yes"/>
      <point x="755" y="-22"/>
      <point x="1000" y="86"/>
      <point x="1000" y="360" type="curve" smooth="yes"/>
      <point x="1000" y="551"/>
      <point x="859" y="695"/>
      <point x="692" y="722" type="curve"/>
      <point x="833" y="746"/>
      <point x="959" y="863"/>
      <point x="959" y="1031" type="curve" smooth="yes"/>
      <point x="959" y="1306"/>
      <point x="765" y="1412"/>
      <point x="518" y="1412" type="curve" smooth="yes"/>
      <point x="369" y="1412"/>
      <point x="199" y="1339"/>
      <point x="184" y="1338" type="curve"/>
      <point x="123" y="1313"/>
      <point x="160" y="1211"/>
      <point x="219" y="1232" type="curve"/>
      <point x="229" y="1231"/>
      <point x="318" y="1312"/>
      <point x="535" y="1312" type="curve" smooth="yes"/>
      <point x="705" y="1312"/>
      <point x="833" y="1209"/>
      <point x="833" y="1047" type="curve" smooth="yes"/>
      <point x="833" y="860"/>
      <point x="707" y="766"/>
      <point x="499" y="766" type="curve" smooth="yes"/>
      <point x="451" y="766" type="line" smooth="yes"/>
      <point x="414" y="766"/>
      <point x="391" y="742"/>
      <point x="391" y="713" type="curve" smooth="yes"/>
      <point x="391" y="684"/>
      <point x="415" y="667"/>
      <point x="451" y="667" type="curve" smooth="yes"/>
      <point x="507" y="667" type="line" smooth="yes"/>
      <point x="721" y="667"/>
      <point x="879" y="549"/>
      <point x="879" y="347" type="curve" smooth="yes"/>
      <point x="879" y="187"/>
      <point x="728" y="78"/>
      <point x="539" y="78" type="curve" smooth="yes"/>
      <point x="424" y="78"/>
      <point x="322" y="114"/>
      <point x="255" y="146" type="curve"/>
      <point x="182" y="169"/>
      <point x="148" y="88"/>
      <point x="237" y="43" type="curve" smooth="yes"/>
      <point x="324" y="-5"/>
      <point x="458" y="-22"/>
    </contour>
  </outline>
</glyph>
<glyph name="four" format="1">
  <advance width="1138"/>
  <unicode hex="0034"/>
  <outline>
    <contour>
      <point x="826" y="2" type="curve" smooth="yes"/>
      <point x="861" y="2"/>
      <point x="896" y="23"/>
      <point x="896" y="67" type="curve" smooth="yes"/>
      <point x="896" y="325" type="line"/>
      <point x="1064" y="325" type="line" smooth="yes"/>
      <point x="1101" y="325"/>
      <point x="1120" y="353"/>
      <point x="1120" y="381" type="curve" smooth="yes"/>
      <point x="1120" y="408"/>
      <point x="1101" y="436"/>
      <point x="1064" y="436" type="curve" smooth="yes"/>
      <point x="897" y="436" type="line"/>
      <point x="897" y="1321" type="line" smooth="yes"/>
      <point x="897" y="1390"/>
      <point x="848" y="1422"/>
      <point x="796" y="1422" type="curve" smooth="yes"/>
      <point x="753" y="1422"/>
      <point x="710" y="1401"/>
      <point x="683" y="1361" type="curve" smooth="yes"/>
      <point x="102" y="472" type="line" smooth="yes"/>
      <point x="50" y="392"/>
      <point x="93" y="325"/>
      <point x="168" y="325" type="curve" smooth="yes"/>
      <point x="755" y="325" type="line"/>
      <point x="755" y="67" type="line" smooth="yes"/>
      <point x="755" y="23"/>
      <point x="791" y="2"/>
    </contour>
    <contour>
      <point x="217" y="436" type="line"/>
      <point x="755" y="1272" type="line"/>
      <point x="755" y="436" type="line"/>
    </contour>
  </outline>
</glyph>
<glyph name="five" format="1">
  <advance width="1128"/>
  <unicode hex="0035"/>
  <outline>
    <contour>
      <point x="595" y="-22" type="curve" smooth="yes"/>
      <point x="883" y="-22"/>
      <point x="1055" y="157"/>
      <point x="1055" y="429" type="curve" smooth="yes"/>
      <point x="1055" y="685"/>
      <point x="907" y="883"/>
      <point x="624" y="883" type="curve" smooth="yes"/>
      <point x="397" y="883"/>
      <point x="290" y="728"/>
      <point x="290" y="728" type="curve"/>
      <point x="293" y="1299" type="line"/>
      <point x="909" y="1299" type="line" smooth="yes"/>
      <point x="948" y="1299"/>
      <point x="966" y="1316"/>
      <point x="966" y="1345" type="curve" smooth="yes"/>
      <point x="966" y="1373"/>
      <point x="948" y="1393"/>
      <point x="909" y="1393" type="curve" smooth="yes"/>
      <point x="247" y="1393" type="line" smooth="yes"/>
      <point x="210" y="1393"/>
      <point x="193" y="1365"/>
      <point x="193" y="1340" type="curve" smooth="yes"/>
      <point x="193" y="643" type="line" smooth="yes"/>
      <point x="193" y="607"/>
      <point x="280" y="581"/>
      <point x="302" y="624" type="curve" smooth="yes"/>
      <point x="362" y="731"/>
      <point x="512" y="786"/>
      <point x="622" y="786" type="curve" smooth="yes"/>
      <point x="814" y="786"/>
      <point x="936" y="632"/>
      <point x="936" y="431" type="curve" smooth="yes"/>
      <point x="936" y="217"/>
      <point x="826" y="78"/>
      <point x="594" y="78" type="curve" smooth="yes"/>
      <point x="445" y="78"/>
      <point x="334" y="145"/>
      <point x="263" y="220" type="curve" smooth="yes"/>
      <point x="230" y="260"/>
      <point x="136" y="198"/>
      <point x="188" y="148" type="curve" smooth="yes"/>
      <point x="326" y="20"/>
      <point x="445" y="-22"/>
    </contour>
  </outline>
</glyph>
<glyph name="seven" format="1">
  <advance width="1138"/>
  <unicode hex="0037"/>
  <outline>
    <contour>
      <point x="399" y="0" type="curve" smooth="yes"/>
      <point x="424" y="0"/>
      <point x="448" y="11"/>
      <point x="459" y="39" type="curve" smooth="yes"/>
      <point x="989" y="1277" type="line" smooth="yes"/>
      <point x="998" y="1294"/>
      <point x="1000" y="1315"/>
      <point x="1000" y="1335" type="curve" smooth="yes"/>
      <point x="1000" y="1379"/>
      <point x="967" y="1407"/>
      <point x="915" y="1407" type="curve" smooth="yes"/>
      <point x="151" y="1407" type="line" smooth="yes"/>
      <point x="110" y="1407"/>
      <point x="89" y="1380"/>
      <point x="89" y="1349" type="curve" smooth="yes"/>
      <point x="89" y="1318"/>
      <point x="110" y="1293"/>
      <point x="151" y="1293" type="curve" smooth="yes"/>
      <point x="851" y="1293" type="line"/>
      <point x="334" y="95" type="line" smooth="yes"/>
      <point x="329" y="85"/>
      <point x="327" y="76"/>
      <point x="327" y="68" type="curve" smooth="yes"/>
      <point x="327" y="28"/>
      <point x="360" y="0"/>
    </contour>
  </outline>
</glyph>
<glyph name="eight" format="1">
  <advance width="1138"/>
  <unicode hex="0038"/>
  <outline>
    <contour>
      <point x="570" y="-22" type="curve" smooth="yes"/>
      <point x="812" y="-22"/>
      <point x="1028" y="103"/>
      <point x="1028" y="369" type="curve" smooth="yes"/>
      <point x="1028" y="549"/>
      <point x="933" y="672"/>
      <point x="739" y="727" type="curve"/>
      <point x="921" y="772"/>
      <point x="1008" y="888"/>
      <point x="1008" y="1058" type="curve" smooth="yes"/>
      <point x="1008" y="1309"/>
      <point x="800" y="1421"/>
      <point x="570" y="1421" type="curve" smooth="yes"/>
      <point x="345" y="1421"/>
      <point x="131" y="1310"/>
      <point x="131" y="1058" type="curve" smooth="yes"/>
      <point x="131" y="906"/>
      <point x="203" y="771"/>
      <point x="403" y="727" type="curve"/>
      <point x="212" y="690"/>
      <point x="111" y="542"/>
      <point x="111" y="369" type="curve" smooth="yes"/>
      <point x="111" y="103"/>
      <point x="327" y="-22"/>
    </contour>
    <contour>
      <point x="569" y="86" type="curve" smooth="yes"/>
      <point x="398" y="86"/>
      <point x="250" y="180"/>
      <point x="250" y="366" type="curve" smooth="yes"/>
      <point x="250" y="558"/>
      <point x="395" y="661"/>
      <point x="569" y="661" type="curve" smooth="yes"/>
      <point x="744" y="661"/>
      <point x="889" y="558"/>
      <point x="889" y="366" type="curve" smooth="yes"/>
      <point x="889" y="180"/>
      <point x="744" y="86"/>
    </contour>
    <contour>
      <point x="569" y="798" type="curve" smooth="yes"/>
      <point x="384" y="798"/>
      <point x="262" y="886"/>
      <point x="262" y="1055" type="curve" smooth="yes"/>
      <point x="262" y="1237"/>
      <point x="414" y="1318"/>
      <point x="569" y="1318" type="curve" smooth="yes"/>
      <point x="726" y="1318"/>
      <point x="878" y="1237"/>
      <point x="878" y="1055" type="curve" smooth="yes"/>
      <point x="878" y="886"/>
      <point x="757" y="798"/>
    </contour>
  </outline>
</glyph>
<glyph name="nine" format="1">
  <advance width="1128"/>
  <unicode hex="0039"/>
  <outline>
    <contour>
      <point x="103" y="944" type="curve" smooth="yes"/>
      <point x="103" y="681"/>
      <point x="249" y="491"/>
      <point x="532" y="491" type="curve" smooth="yes"/>
      <point x="752" y="491"/>
      <point x="882" y="657"/>
      <point x="901" y="774" type="curve"/>
      <point x="901" y="375"/>
      <point x="844" y="78"/>
      <point x="489" y="78" type="curve" smooth="yes"/>
      <point x="417" y="78"/>
      <point x="329" y="94"/>
      <point x="239" y="141" type="curve" smooth="yes"/>
      <point x="229" y="147"/>
      <point x="220" y="149"/>
      <point x="211" y="149" type="curve" smooth="yes"/>
      <point x="183" y="149"/>
      <point x="164" y="124"/>
      <point x="164" y="98" type="curve" smooth="yes"/>
      <point x="164" y="82"/>
      <point x="171" y="65"/>
      <point x="189" y="55" type="curve" smooth="yes"/>
      <point x="272" y="11"/>
      <point x="375" y="-22"/>
      <point x="488" y="-22" type="curve" smooth="yes"/>
      <point x="1005" y="-22"/>
      <point x="1027" y="513"/>
      <point x="1027" y="779" type="curve" smooth="yes"/>
      <point x="1027" y="1088"/>
      <point x="939" y="1412"/>
      <point x="544" y="1412" type="curve" smooth="yes"/>
      <point x="268" y="1412"/>
      <point x="103" y="1203"/>
    </contour>
    <contour>
      <point x="885" y="941" type="curve" smooth="yes"/>
      <point x="885" y="737"/>
      <point x="761" y="581"/>
      <point x="533" y="581" type="curve" smooth="yes"/>
      <point x="319" y="581"/>
      <point x="225" y="757"/>
      <point x="225" y="942" type="curve" smooth="yes"/>
      <point x="225" y="1138"/>
      <point x="331" y="1314"/>
      <point x="554" y="1314" type="curve" smooth="yes"/>
      <point x="792" y="1314"/>
      <point x="885" y="1114"/>
    </contour>
  </outline>
</glyph>
<glyph name="colon" format="1">
  <advance width="571"/>
  <unicode hex="003A"/>
  <outline>
    <contour>
      <point x="286" y="0" type="curve" smooth="yes"/>
      <point x="348" y="0"/>
      <point x="380" y="43"/>
      <point x="380" y="85" type="curve" smooth="yes"/>
      <point x="380" y="123"/>
      <point x="350" y="168"/>
      <point x="286" y="168" type="curve" smooth="yes"/>
      <point x="223" y="168"/>
      <point x="190" y="125"/>
      <point x="190" y="85" type="curve" smooth="yes"/>
      <point x="190" y="43"/>
      <point x="221" y="0"/>
    </contour>
    <contour>
      <point x="286" y="821" type="curve" smooth="yes"/>
      <point x="347" y="821"/>
      <point x="380" y="861"/>
      <point x="380" y="905" type="curve" smooth="yes"/>
      <point x="380" y="945"/>
      <point x="349" y="989"/>
      <point x="286" y="989" type="curve" smooth="yes"/>
      <point x="223" y="989"/>
      <point x="190" y="947"/>
      <point x="190" y="905" type="curve" smooth="yes"/>
      <point x="190" y="863"/>
      <point x="221" y="821"/>
    </contour>
  </outline>
</glyph>
<glyph name="semicolon" format="1">
  <advance width="565"/>
  <unicode hex="003B"/>
  <outline>
    <contour>
      <point x="304" y="852" type="curve" smooth="yes"/>
      <point x="364" y="852"/>
      <point x="394" y="892"/>
      <point x="394" y="931" type="curve" smooth="yes"/>
      <point x="394" y="966"/>
      <point x="367" y="1007"/>
      <point x="304" y="1007" type="curve" smooth="yes"/>
      <point x="244" y="1007"/>
      <point x="216" y="969"/>
      <point x="216" y="931" type="curve" smooth="yes"/>
      <point x="216" y="894"/>
      <point x="241" y="852"/>
    </contour>
    <component base="comma" xOffset="1" yOffset="126"/>
  </outline>
</glyph>
<glyph name="less" format="1">
  <advance width="1351"/>
  <unicode hex="003C"/>
  <outline>
    <contour>
      <point x="1118" y="33" type="line" smooth="yes"/>
      <point x="1173" y="9"/>
      <point x="1204" y="98"/>
      <point x="1160" y="118" type="curve" smooth="yes"/>
      <point x="324" y="493" type="line"/>
      <point x="1157" y="847" type="line" smooth="yes"/>
      <point x="1218" y="873"/>
      <point x="1167" y="953"/>
      <point x="1114" y="929" type="curve" smooth="yes"/>
      <point x="202" y="539" type="line" smooth="yes"/>
      <point x="156" y="518"/>
      <point x="160" y="464"/>
      <point x="206" y="443" type="curve" smooth="yes"/>
    </contour>
  </outline>
</glyph>
<glyph name="at" format="1">
  <advance width="1638"/>
  <unicode hex="0040"/>
  <outline>
    <contour>
      <point x="806" y="-24" type="curve" smooth="yes"/>
      <point x="911" y="-24"/>
      <point x="1020" y="-6"/>
      <point x="1131" y="28" type="curve" smooth="yes"/>
      <point x="1153" y="35"/>
      <point x="1163" y="54"/>
      <point x="1163" y="73" type="curve" smooth="yes"/>
      <point x="1163" y="99"/>
      <point x="1148" y="121"/>
      <point x="1116" y="121" type="curve" smooth="yes"/>
      <point x="1107" y="121"/>
      <point x="1098" y="120"/>
      <point x="1090" y="117" type="curve" smooth="yes"/>
      <point x="1000" y="90"/>
      <point x="910" y="75"/>
      <point x="825" y="75" type="curve" smooth="yes"/>
      <point x="480" y="75"/>
      <point x="187" y="297"/>
      <point x="187" y="731" type="curve" smooth="yes"/>
      <point x="187" y="1160"/>
      <point x="559" y="1406"/>
      <point x="894" y="1406" type="curve" smooth="yes"/>
      <point x="1171" y="1406"/>
      <point x="1420" y="1240"/>
      <point x="1420" y="873" type="curve" smooth="yes"/>
      <point x="1420" y="656"/>
      <point x="1287" y="427"/>
      <point x="1121" y="427" type="curve" smooth="yes"/>
      <point x="1075" y="427"/>
      <point x="1063" y="446"/>
      <point x="1063" y="478" type="curve" smooth="yes"/>
      <point x="1063" y="506"/>
      <point x="1073" y="543"/>
      <point x="1087" y="586" type="curve" smooth="yes"/>
      <point x="1241" y="1067" type="line" smooth="yes"/>
      <point x="1244" y="1075"/>
      <point x="1245" y="1083"/>
      <point x="1245" y="1092" type="curve" smooth="yes"/>
      <point x="1245" y="1126"/>
      <point x="1216" y="1145"/>
      <point x="1186" y="1145" type="curve" smooth="yes"/>
      <point x="1157" y="1145"/>
      <point x="1121" y="1128"/>
      <point x="1113" y="1095" type="curve" smooth="yes"/>
      <point x="1104" y="1064" type="line"/>
      <point x="1064" y="1150"/>
      <point x="969" y="1197"/>
      <point x="875" y="1197" type="curve" smooth="yes"/>
      <point x="574" y="1197"/>
      <point x="393" y="896"/>
      <point x="393" y="623" type="curve" smooth="yes"/>
      <point x="393" y="454"/>
      <point x="498" y="318"/>
      <point x="675" y="318" type="curve" smooth="yes"/>
      <point x="750" y="318"/>
      <point x="852" y="351"/>
      <point x="914" y="403" type="curve"/>
      <point x="948" y="341"/>
      <point x="1019" y="313"/>
      <point x="1092" y="313" type="curve" smooth="yes"/>
      <point x="1307" y="313"/>
      <point x="1545" y="548"/>
      <point x="1545" y="869" type="curve" smooth="yes"/>
      <point x="1545" y="1310"/>
      <point x="1228" y="1512"/>
      <point x="890" y="1512" type="curve" smooth="yes"/>
      <point x="492" y="1512"/>
      <point x="61" y="1235"/>
      <point x="61" y="744" type="curve" smooth="yes"/>
      <point x="61" y="262"/>
      <point x="381" y="-24"/>
    </contour>
    <contour>
      <point x="698" y="432" type="curve" smooth="yes"/>
      <point x="609" y="432"/>
      <point x="540" y="507"/>
      <point x="534" y="594" type="curve" smooth="yes"/>
      <point x="523" y="821"/>
      <point x="670" y="1077"/>
      <point x="884" y="1077" type="curve" smooth="yes"/>
      <point x="989" y="1077"/>
      <point x="1063" y="930"/>
      <point x="1063" y="930" type="curve"/>
      <point x="974" y="632" type="line"/>
      <point x="937" y="504"/>
      <point x="790" y="432"/>
    </contour>
  </outline>
</glyph>
<glyph name="A" format="1">
  <advance width="1394"/>
  <unicode hex="0041"/>
  <outline>
    <contour>
      <point x="1266" y="19" type="move" name="ogonek"/>
    </contour>
    <contour>
      <point x="696" y="1438" type="move" name="top"/>
    </contour>
    <contour>
      <point x="194" y="46" type="curve" smooth="yes"/>
      <point x="695" y="1302" type="line"/>
      <point x="695" y="1425" type="line"/>
      <point x="634" y="1425"/>
      <point x="599" y="1406"/>
      <point x="556" y="1300" type="curve" smooth="yes"/>
      <point x="65" y="93" type="line" smooth="yes"/>
      <point x="27" y="2"/>
      <point x="156" y="-47"/>
    </contour>
    <contour>
      <point x="1195" y="46" type="line" smooth="yes"/>
      <point x="1233" y="-47"/>
      <point x="1362" y="2"/>
      <point x="1324" y="93" type="curve" smooth="yes"/>
      <point x="833" y="1300" type="line" smooth="yes"/>
      <point x="791" y="1406"/>
      <point x="755" y="1425"/>
      <point x="695" y="1425" type="curve"/>
      <point x="695" y="1302" type="line"/>
    </contour>
    <contour>
      <point x="272" y="394" type="line"/>
      <point x="1131" y="394" type="line"/>
      <point x="1089" y="499" type="line"/>
      <point x="307" y="499" type="line"/>
    </contour>
  </outline>
</glyph>
<glyph name="B" format="1">
  <advance width="1242"/>
  <unicode hex="0042"/>
  <outline>
    <contour>
      <point x="639" y="1438" type="move" name="top"/>
    </contour>
    <contour>
      <point x="244" y="0" type="curve" smooth="yes"/>
      <point x="713" y="0" type="line" smooth="yes"/>
      <point x="1041" y="0"/>
      <point x="1160" y="184"/>
      <point x="1160" y="382" type="curve" smooth="yes"/>
      <point x="1160" y="594"/>
      <point x="1012" y="723"/>
      <point x="788" y="740" type="curve"/>
      <point x="788" y="744" type="line"/>
      <point x="991" y="756"/>
      <point x="1103" y="916"/>
      <point x="1103" y="1058" type="curve" smooth="yes"/>
      <point x="1103" y="1281"/>
      <point x="966" y="1419"/>
      <point x="607" y="1419" type="curve" smooth="yes"/>
      <point x="244" y="1419" type="line" smooth="yes"/>
      <point x="211" y="1419"/>
      <point x="181" y="1394"/>
      <point x="181" y="1360" type="curve" smooth="yes"/>
      <point x="181" y="60" type="line" smooth="yes"/>
      <point x="181" y="25"/>
      <point x="211" y="0"/>
    </contour>
    <contour>
      <point x="301" y="97" type="line"/>
      <point x="301" y="687" type="line"/>
      <point x="605" y="687" type="line" smooth="yes"/>
      <point x="885" y="687"/>
      <point x="1030" y="603"/>
      <point x="1030" y="399" type="curve" smooth="yes"/>
      <point x="1030" y="171"/>
      <point x="917" y="97"/>
      <point x="675" y="97" type="curve" smooth="yes"/>
    </contour>
    <contour>
      <point x="301" y="782" type="line"/>
      <point x="301" y="1324" type="line"/>
      <point x="620" y="1324" type="line" smooth="yes"/>
      <point x="795" y="1324"/>
      <point x="982" y="1282"/>
      <point x="982" y="1064" type="curve" smooth="yes"/>
      <point x="982" y="869"/>
      <point x="848" y="782"/>
      <point x="608" y="782" type="curve" smooth="yes"/>
    </contour>
  </outline>
</glyph>
<glyph name="D" format="1">
  <advance width="1477"/>
  <unicode hex="0044"/>
  <outline>
    <contour>
      <point x="296" y="698" type="move" name="mid"/>
    </contour>
    <contour>
      <point x="794" y="1438" type="move" name="top"/>
    </contour>
    <contour>
      <point x="244" y="6" type="curve" smooth="yes"/>
      <point x="574" y="6" type="line" smooth="yes"/>
      <point x="1060" y="6"/>
      <point x="1336" y="246"/>
      <point x="1336" y="715" type="curve" smooth="yes"/>
      <point x="1336" y="1185"/>
      <point x="1064" y="1425"/>
      <point x="581" y="1425" type="curve" smooth="yes"/>
      <point x="244" y="1425" type="line" smooth="yes"/>
      <point x="209" y="1425"/>
      <point x="181" y="1398"/>
      <point x="181" y="1366" type="curve" smooth="yes"/>
      <point x="181" y="66" type="line" smooth="yes"/>
      <point x="181" y="34"/>
      <point x="209" y="6"/>
    </contour>
    <contour>
      <point x="306" y="105" type="line"/>
      <point x="306" y="1327" type="line"/>
      <point x="535" y="1327" type="line" smooth="yes"/>
      <point x="987" y="1327"/>
      <point x="1206" y="1159"/>
      <point x="1206" y="715" type="curve" smooth="yes"/>
      <point x="1206" y="326"/>
      <point x="1038" y="105"/>
      <point x="575" y="105" type="curve" smooth="yes"/>
    </contour>
  </outline>
</glyph>
<glyph name="F" format="1">
  <advance width="1129"/>
  <unicode hex="0046"/>
  <outline>
    <contour>
      <point x="253" y="0" type="curve" smooth="yes"/>
      <point x="287" y="0"/>
      <point x="324" y="21"/>
      <point x="324" y="66" type="curve" smooth="yes"/>
      <point x="324" y="683" type="line"/>
      <point x="932" y="683" type="line" smooth="yes"/>
      <point x="974" y="683"/>
      <point x="996" y="710"/>
      <point x="996" y="741" type="curve" smooth="yes"/>
      <point x="996" y="772"/>
      <point x="974" y="795"/>
      <point x="932" y="795" type="curve" smooth="yes"/>
      <point x="324" y="795" type="line"/>
      <point x="324" y="1309" type="line"/>
      <point x="957" y="1309" type="line" smooth="yes"/>
      <point x="999" y="1309"/>
      <point x="1020" y="1333"/>
      <point x="1020" y="1366" type="curve" smooth="yes"/>
      <point x="1020" y="1396"/>
      <point x="999" y="1421"/>
      <point x="957" y="1421" type="curve" smooth="yes"/>
      <point x="246" y="1421" type="line" smooth="yes"/>
      <point x="211" y="1421"/>
      <point x="181" y="1396"/>
      <point x="181" y="1355" type="curve" smooth="yes"/>
      <point x="181" y="66" type="line" smooth="yes"/>
      <point x="181" y="22"/>
      <point x="217" y="0"/>
    </contour>
  </outline>
</glyph>
<glyph name="G" format="1">
  <advance width="1430"/>
  <unicode hex="0047"/>
  <outline>
    <contour>
      <point x="837" y="0" type="move" name="bot"/>
    </contour>
    <contour>
      <point x="882" y="1421" type="move" name="top"/>
    </contour>
    <contour>
      <point x="785" y="-22" type="curve" smooth="yes"/>
      <point x="957" y="-22"/>
      <point x="1135" y="9"/>
      <point x="1254" y="58" type="curve" smooth="yes"/>
      <point x="1278" y="70"/>
      <point x="1304" y="105"/>
      <point x="1304" y="139" type="curve" smooth="yes"/>
      <point x="1304" y="666" type="line" smooth="yes"/>
      <point x="1304" y="703"/>
      <point x="1279" y="728"/>
      <point x="1242" y="728" type="curve" smooth="yes"/>
      <point x="859" y="728" type="line" smooth="yes"/>
      <point x="818" y="728"/>
      <point x="799" y="697"/>
      <point x="799" y="671" type="curve" smooth="yes"/>
      <point x="799" y="646"/>
      <point x="820" y="617"/>
      <point x="859" y="617" type="curve" smooth="yes"/>
      <point x="1164" y="617" type="line"/>
      <point x="1164" y="145" type="line"/>
      <point x="1063" y="115"/>
      <point x="916" y="92"/>
      <point x="806" y="92" type="curve" smooth="yes"/>
      <point x="426" y="92"/>
      <point x="286" y="380"/>
      <point x="286" y="698" type="curve" smooth="yes"/>
      <point x="286" y="1056"/>
      <point x="474" y="1307"/>
      <point x="835" y="1307" type="curve" smooth="yes"/>
      <point x="947" y="1307"/>
      <point x="1071" y="1279"/>
      <point x="1187" y="1243" type="curve" smooth="yes"/>
      <point x="1187" y="1242"/>
      <point x="1201" y="1241"/>
      <point x="1198" y="1241" type="curve"/>
      <point x="1229" y="1241"/>
      <point x="1248" y="1271"/>
      <point x="1248" y="1301" type="curve" smooth="yes"/>
      <point x="1248" y="1320"/>
      <point x="1241" y="1339"/>
      <point x="1219" y="1348" type="curve" smooth="yes"/>
      <point x="1106" y="1396"/>
      <point x="969" y="1421"/>
      <point x="829" y="1421" type="curve" smooth="yes"/>
      <point x="363" y="1421"/>
      <point x="135" y="1073"/>
      <point x="135" y="705" type="curve" smooth="yes"/>
      <point x="135" y="211"/>
      <point x="425" y="-22"/>
    </contour>
  </outline>
</glyph>
<glyph name="H" format="1">
  <advance width="1440"/>
  <unicode hex="0048"/>
  <outline>
    <contour>
      <point x="759" y="1438" type="move" name="top"/>
    </contour>
    <contour>
      <point x="250" y="-1" type="curve" smooth="yes"/>
      <point x="286" y="-1"/>
      <point x="323" y="20"/>
      <point x="323" y="65" type="curve" smooth="yes"/>
      <point x="323" y="681" type="line"/>
      <point x="1117" y="681" type="line"/>
      <point x="1117" y="65" type="line" smooth="yes"/>
      <point x="1117" y="21"/>
      <point x="1152" y="-1"/>
      <point x="1187" y="-1" type="curve" smooth="yes"/>
      <point x="1223" y="-1"/>
      <point x="1260" y="20"/>
      <point x="1260" y="65" type="curve" smooth="yes"/>
      <point x="1260" y="1356" type="line" smooth="yes"/>
      <point x="1260" y="1400"/>
      <point x="1224" y="1422"/>
      <point x="1188" y="1422" type="curve" smooth="yes"/>
      <point x="1152" y="1422"/>
      <point x="1117" y="1399"/>
      <point x="1117" y="1356" type="curve" smooth="yes"/>
      <point x="1117" y="795" type="line"/>
      <point x="323" y="795" type="line"/>
      <point x="323" y="1356" type="line" smooth="yes"/>
      <point x="323" y="1400"/>
      <point x="288" y="1422"/>
      <point x="253" y="1422" type="curve" smooth="yes"/>
      <point x="217" y="1422"/>
      <point x="180" y="1399"/>
      <point x="180" y="1356" type="curve" smooth="yes"/>
      <point x="180" y="65" type="line" smooth="yes"/>
      <point x="180" y="21"/>
      <point x="216" y="-1"/>
    </contour>
  </outline>
</glyph>
<glyph name="I" format="1">
  <advance width="565"/>
  <unicode hex="0049"/>
  <outline>
    <contour>
      <point x="296" y="1438" type="move" name="top"/>
    </contour>
    <contour>
      <point x="273" y="24" type="move" name="ogonek"/>
    </contour>
    <contour>
      <point x="283" y="-1" type="curve" smooth="yes"/>
      <point x="314" y="-1"/>
      <point x="346" y="16"/>
      <point x="346" y="56" type="curve" smooth="yes"/>
      <point x="346" y="1359" type="line" smooth="yes"/>
      <point x="346" y="1399"/>
      <point x="316" y="1418"/>
      <point x="285" y="1418" type="curve" smooth="yes"/>
      <point x="254" y="1418"/>
      <point x="221" y="1397"/>
      <point x="221" y="1359" type="curve" smooth="yes"/>
      <point x="221" y="56" type="line" smooth="yes"/>
      <point x="221" y="18"/>
      <point x="253" y="-1"/>
    </contour>
  </outline>
</glyph>
<glyph name="J" format="1">
  <advance width="970"/>
  <unicode hex="004A"/>
  <outline>
    <contour>
      <point x="769" y="1438" type="move" name="top"/>
    </contour>
    <contour>
      <point x="406" y="-17" type="curve" smooth="yes"/>
      <point x="609" y="-17"/>
      <point x="832" y="104"/>
      <point x="832" y="440" type="curve" smooth="yes"/>
      <point x="832" y="1363" type="line" smooth="yes"/>
      <point x="832" y="1401"/>
      <point x="801" y="1419"/>
      <point x="769" y="1419" type="curve" smooth="yes"/>
      <point x="738" y="1419"/>
      <point x="705" y="1401"/>
      <point x="705" y="1363" type="curve" smooth="yes"/>
      <point x="705" y="453" type="line" smooth="yes"/>
      <point x="705" y="203"/>
      <point x="600" y="88"/>
      <point x="421" y="88" type="curve" smooth="yes"/>
      <point x="313" y="88"/>
      <point x="242" y="135"/>
      <point x="215" y="170" type="curve"/>
      <point x="182" y="199"/>
      <point x="154" y="210"/>
      <point x="132" y="210" type="curve" smooth="yes"/>
      <point x="99" y="210"/>
      <point x="85" y="184"/>
      <point x="85" y="157" type="curve" smooth="yes"/>
      <point x="85" y="152"/>
      <point x="85" y="146"/>
      <point x="86" y="143" type="curve" smooth="yes"/>
      <point x="88" y="139"/>
      <point x="87" y="136"/>
      <point x="80" y="130" type="curve"/>
      <point x="101" y="82"/>
      <point x="243" y="-17"/>
    </contour>
  </outline>
</glyph>
<glyph name="K" format="1">
  <advance width="1205"/>
  <unicode hex="004B"/>
  <outline>
    <contour>
      <point x="635" y="0" type="move" name="bot"/>
    </contour>
    <contour>
      <point x="635" y="1438" type="move" name="top"/>
    </contour>
    <contour>
      <point x="247" y="0" type="curve" smooth="yes"/>
      <point x="282" y="0"/>
      <point x="318" y="21"/>
      <point x="318" y="65" type="curve" smooth="yes"/>
      <point x="318" y="709" type="line"/>
      <point x="1025" y="25" type="line" smooth="yes"/>
      <point x="1042" y="10"/>
      <point x="1062" y="0"/>
      <point x="1080" y="0" type="curve" smooth="yes"/>
      <point x="1118" y="0"/>
      <point x="1145" y="24"/>
      <point x="1145" y="61" type="curve" smooth="yes"/>
      <point x="1145" y="77"/>
      <point x="1139" y="95"/>
      <point x="1124" y="109" type="curve" smooth="yes"/>
      <point x="463" y="734" type="line"/>
      <point x="1071" y="1321" type="line" smooth="yes"/>
      <point x="1084" y="1334"/>
      <point x="1089" y="1351"/>
      <point x="1089" y="1366" type="curve" smooth="yes"/>
      <point x="1089" y="1398"/>
      <point x="1067" y="1422"/>
      <point x="1032" y="1422" type="curve" smooth="yes"/>
      <point x="1014" y="1422"/>
      <point x="998" y="1416"/>
      <point x="981" y="1401" type="curve" smooth="yes"/>
      <point x="318" y="746" type="line"/>
      <point x="318" y="1354" type="line" smooth="yes"/>
      <point x="318" y="1397"/>
      <point x="283" y="1421"/>
      <point x="249" y="1421" type="curve" smooth="yes"/>
      <point x="214" y="1421"/>
      <point x="179" y="1399"/>
      <point x="179" y="1354" type="curve" smooth="yes"/>
      <point x="179" y="65" type="line" smooth="yes"/>
      <point x="179" y="21"/>
      <point x="213" y="0"/>
    </contour>
  </outline>
</glyph>
<glyph name="L" format="1">
  <advance width="1081"/>
  <unicode hex="004C"/>
  <outline>
    <contour>
      <point x="251" y="681" type="move" name="mid"/>
    </contour>
    <contour>
      <point x="650" y="0" type="move" name="bot"/>
    </contour>
    <contour>
      <point x="524" y="971" type="move" name="caron.alt"/>
    </contour>
    <contour>
      <point x="278" y="1459" type="move" name="top"/>
    </contour>
    <contour>
      <point x="252" y="0" type="curve" smooth="yes"/>
      <point x="996" y="0" type="line" smooth="yes"/>
      <point x="1038" y="0"/>
      <point x="1059" y="26"/>
      <point x="1059" y="56" type="curve" smooth="yes"/>
      <point x="1059" y="88"/>
      <point x="1041" y="113"/>
      <point x="996" y="113" type="curve" smooth="yes"/>
      <point x="323" y="113" type="line"/>
      <point x="323" y="1356" type="line" smooth="yes"/>
      <point x="323" y="1400"/>
      <point x="287" y="1422"/>
      <point x="252" y="1422" type="curve" smooth="yes"/>
      <point x="217" y="1422"/>
      <point x="180" y="1399"/>
      <point x="180" y="1356" type="curve" smooth="yes"/>
      <point x="180" y="69" type="line" smooth="yes"/>
      <point x="180" y="30"/>
      <point x="214" y="0"/>
    </contour>
  </outline>
</glyph>
<glyph name="M" format="1">
  <advance width="1884"/>
  <unicode hex="004D"/>
  <outline>
    <contour>
      <point x="979" y="1438" type="move" name="top"/>
    </contour>
    <contour>
      <point x="948" y="24" type="curve" smooth="yes"/>
      <point x="976" y="24"/>
      <point x="1008" y="42"/>
      <point x="1028" y="81" type="curve" smooth="yes"/>
      <point x="1597" y="1273" type="line"/>
      <point x="1597" y="42" type="line" smooth="yes"/>
      <point x="1597" y="8"/>
      <point x="1626" y="-9"/>
      <point x="1654" y="-9" type="curve" smooth="yes"/>
      <point x="1682" y="-9"/>
      <point x="1710" y="8"/>
      <point x="1710" y="42" type="curve" smooth="yes"/>
      <point x="1710" y="1321" type="line" smooth="yes"/>
      <point x="1710" y="1374"/>
      <point x="1667" y="1422"/>
      <point x="1617" y="1422" type="curve" smooth="yes"/>
      <point x="1582" y="1422"/>
      <point x="1543" y="1399"/>
      <point x="1512" y="1337" type="curve" smooth="yes"/>
      <point x="948" y="157" type="line"/>
      <point x="384" y="1337" type="line" smooth="yes"/>
      <point x="353" y="1399"/>
      <point x="314" y="1422"/>
      <point x="279" y="1422" type="curve" smooth="yes"/>
      <point x="229" y="1422"/>
      <point x="186" y="1374"/>
      <point x="186" y="1321" type="curve" smooth="yes"/>
      <point x="186" y="42" type="line" smooth="yes"/>
      <point x="186" y="8"/>
      <point x="214" y="-9"/>
      <point x="242" y="-9" type="curve" smooth="yes"/>
      <point x="270" y="-9"/>
      <point x="299" y="8"/>
      <point x="299" y="42" type="curve" smooth="yes"/>
      <point x="299" y="1273" type="line"/>
      <point x="868" y="81" type="line" smooth="yes"/>
      <point x="888" y="42"/>
      <point x="920" y="24"/>
    </contour>
  </outline>
</glyph>
<glyph name="N" format="1">
  <advance width="1464"/>
  <unicode hex="004E"/>
  <outline>
    <contour>
      <point x="787" y="1438" type="move" name="top"/>
    </contour>
    <contour>
      <point x="749" y="0" type="move" name="bot"/>
    </contour>
    <contour>
      <point x="243" y="0" type="curve" smooth="yes"/>
      <point x="274" y="0"/>
      <point x="300" y="20"/>
      <point x="300" y="59" type="curve" smooth="yes"/>
      <point x="300" y="1242" type="line"/>
      <point x="1109" y="40" type="line" smooth="yes"/>
      <point x="1131" y="7"/>
      <point x="1152" y="0"/>
      <point x="1185" y="0" type="curve" smooth="yes"/>
      <point x="1240" y="0"/>
      <point x="1280" y="33"/>
      <point x="1280" y="93" type="curve" smooth="yes"/>
      <point x="1280" y="1359" type="line" smooth="yes"/>
      <point x="1280" y="1398"/>
      <point x="1252" y="1419"/>
      <point x="1222" y="1419" type="curve" smooth="yes"/>
      <point x="1189" y="1419"/>
      <point x="1164" y="1399"/>
      <point x="1164" y="1359" type="curve" smooth="yes"/>
      <point x="1164" y="155" type="line"/>
      <point x="370" y="1338" type="line" smooth="yes"/>
      <point x="332" y="1393"/>
      <point x="295" y="1419"/>
      <point x="263" y="1419" type="curve" smooth="yes"/>
      <point x="214" y="1419"/>
      <point x="184" y="1385"/>
      <point x="184" y="1326" type="curve" smooth="yes"/>
      <point x="184" y="59" type="line" smooth="yes"/>
      <point x="184" y="19"/>
      <point x="209" y="0"/>
    </contour>
  </outline>
</glyph>
<glyph name="O" format="1">
  <advance width="1594"/>
  <unicode hex="004F"/>
  <outline>
    <contour>
      <point x="797" y="1438" type="move" name="top"/>
    </contour>
    <contour>
      <point x="798" y="92" type="curve" smooth="yes"/>
      <point x="493" y="92"/>
      <point x="291" y="315"/>
      <point x="291" y="700" type="curve" smooth="yes"/>
      <point x="291" y="1085"/>
      <point x="494" y="1307"/>
      <point x="798" y="1307" type="curve" smooth="yes"/>
      <point x="1102" y="1307"/>
      <point x="1303" y="1085"/>
      <point x="1303" y="700" type="curve" smooth="yes"/>
      <point x="1303" y="315"/>
      <point x="1103" y="92"/>
    </contour>
    <contour>
      <point x="798" y="-22" type="curve" smooth="yes"/>
      <point x="1193" y="-22"/>
      <point x="1454" y="251"/>
      <point x="1454" y="700" type="curve" smooth="yes"/>
      <point x="1454" y="1148"/>
      <point x="1193" y="1421"/>
      <point x="798" y="1421" type="curve" smooth="yes"/>
      <point x="400" y="1421"/>
      <point x="140" y="1148"/>
      <point x="140" y="700" type="curve" smooth="yes"/>
      <point x="140" y="251"/>
      <point x="400" y="-22"/>
    </contour>
  </outline>
</glyph>
<glyph name="Q" format="1">
  <advance width="1593"/>
  <unicode hex="0051"/>
  <outline>
    <contour>
      <point x="735" y="23" type="line"/>
      <point x="1357" y="-241" type="line" smooth="yes"/>
      <point x="1392" y="-255"/>
      <point x="1421" y="-241"/>
      <point x="1433" y="-213" type="curve" smooth="yes"/>
      <point x="1444" y="-188"/>
      <point x="1433" y="-150"/>
      <point x="1403" y="-139" type="curve" smooth="yes"/>
      <point x="975" y="36" type="line"/>
    </contour>
    <component base="O"/>
  </outline>
</glyph>
<glyph name="S" format="1">
  <advance width="1257"/>
  <unicode hex="0053"/>
  <outline>
    <contour>
      <point x="630" y="13" type="move" name="bot"/>
    </contour>
    <contour>
      <point x="638" y="1438" type="move" name="top"/>
    </contour>
    <contour>
      <point x="619" y="-22" type="curve" smooth="yes"/>
      <point x="917" y="-22"/>
      <point x="1112" y="106"/>
      <point x="1127" y="341" type="curve" smooth="yes"/>
      <point x="1143" y="582"/>
      <point x="995" y="670"/>
      <point x="793" y="737" type="curve" smooth="yes"/>
      <point x="543" y="820" type="line" smooth="yes"/>
      <point x="377" y="874"/>
      <point x="290" y="932"/>
      <point x="290" y="1062" type="curve" smooth="yes"/>
      <point x="290" y="1202"/>
      <point x="418" y="1307"/>
      <point x="640" y="1307" type="curve" smooth="yes"/>
      <point x="815" y="1307"/>
      <point x="954" y="1219"/>
      <point x="995" y="1186" type="curve" smooth="yes"/>
      <point x="1048" y="1142"/>
      <point x="1126" y="1209"/>
      <point x="1073" y="1262" type="curve" smooth="yes"/>
      <point x="1002" y="1332"/>
      <point x="825" y="1421"/>
      <point x="628" y="1421" type="curve" smooth="yes"/>
      <point x="364" y="1421"/>
      <point x="153" y="1281"/>
      <point x="153" y="1059" type="curve" smooth="yes"/>
      <point x="153" y="860"/>
      <point x="285" y="773"/>
      <point x="465" y="713" type="curve" smooth="yes"/>
      <point x="713" y="630" type="line" smooth="yes"/>
      <point x="902" y="567"/>
      <point x="990" y="519"/>
      <point x="990" y="349" type="curve" smooth="yes"/>
      <point x="990" y="179"/>
      <point x="831" y="92"/>
      <point x="635" y="92" type="curve" smooth="yes"/>
      <point x="464" y="92"/>
      <point x="329" y="162"/>
      <point x="253" y="231" type="curve" smooth="yes"/>
      <point x="218" y="265"/>
      <point x="124" y="197"/>
      <point x="163" y="157" type="curve" smooth="yes"/>
      <point x="269" y="53"/>
      <point x="420" y="-22"/>
    </contour>
  </outline>
</glyph>
<glyph name="U" format="1">
  <advance width="1481"/>
  <unicode hex="0055"/>
  <outline>
    <contour>
      <point x="842" y="9" type="move" name="ogonek"/>
    </contour>
    <contour>
      <point x="747" y="1438" type="move" name="top"/>
    </contour>
    <contour>
      <point x="741" y="-22" type="curve" smooth="yes"/>
      <point x="1015" y="-22"/>
      <point x="1284" y="144"/>
      <point x="1284" y="494" type="curve" smooth="yes"/>
      <point x="1284" y="1351" type="line" smooth="yes"/>
      <point x="1284" y="1396"/>
      <point x="1249" y="1418"/>
      <point x="1214" y="1418" type="curve" smooth="yes"/>
      <point x="1177" y="1418"/>
      <point x="1142" y="1395"/>
      <point x="1142" y="1351" type="curve" smooth="yes"/>
      <point x="1142" y="497" type="line" smooth="yes"/>
      <point x="1142" y="226"/>
      <point x="940" y="92"/>
      <point x="741" y="92" type="curve" smooth="yes"/>
      <point x="540" y="92"/>
      <point x="340" y="226"/>
      <point x="340" y="497" type="curve" smooth="yes"/>
      <point x="340" y="1351" type="line" smooth="yes"/>
      <point x="340" y="1396"/>
      <point x="305" y="1418"/>
      <point x="270" y="1418" type="curve" smooth="yes"/>
      <point x="233" y="1418"/>
      <point x="197" y="1395"/>
      <point x="197" y="1351" type="curve" smooth="yes"/>
      <point x="197" y="494" type="line" smooth="yes"/>
      <point x="197" y="144"/>
      <point x="467" y="-22"/>
    </contour>
  </outline>
</glyph>
<glyph name="V" format="1">
  <advance width="1243"/>
  <unicode hex="0056"/>
  <outline>
    <contour>
      <point x="629" y="2" type="curve"/>
      <point x="629" y="149" type="line"/>
      <point x="146" y="1374" type="line" smooth="yes"/>
      <point x="114" y="1452"/>
      <point x="7" y="1396"/>
      <point x="35" y="1332" type="curve" smooth="yes"/>
      <point x="531" y="83" type="line" smooth="yes"/>
      <point x="550" y="42"/>
      <point x="594" y="2"/>
    </contour>
    <contour>
      <point x="629" y="2" type="line"/>
      <point x="665" y="2"/>
      <point x="709" y="42"/>
      <point x="728" y="83" type="curve" smooth="yes"/>
      <point x="1223" y="1332" type="line" smooth="yes"/>
      <point x="1251" y="1396"/>
      <point x="1145" y="1452"/>
      <point x="1113" y="1374" type="curve" smooth="yes"/>
      <point x="629" y="149" type="line"/>
    </contour>
  </outline>
</glyph>
<glyph name="X" format="1">
  <advance width="1245"/>
  <unicode hex="0058"/>
  <outline>
    <contour>
      <point x="1041" y="41" type="line" smooth="yes"/>
      <point x="1053" y="22"/>
      <point x="1070" y="15"/>
      <point x="1087" y="15" type="curve" smooth="yes"/>
      <point x="1119" y="15"/>
      <point x="1150" y="40"/>
      <point x="1150" y="69" type="curve" smooth="yes"/>
      <point x="1150" y="76"/>
      <point x="1148" y="84"/>
      <point x="1144" y="91" type="curve" smooth="yes"/>
      <point x="693" y="725" type="line"/>
      <point x="1128" y="1329" type="line" smooth="yes"/>
      <point x="1135" y="1339"/>
      <point x="1138" y="1348"/>
      <point x="1138" y="1357" type="curve" smooth="yes"/>
      <point x="1138" y="1384"/>
      <point x="1111" y="1405"/>
      <point x="1082" y="1405" type="curve" smooth="yes"/>
      <point x="1065" y="1405"/>
      <point x="1047" y="1397"/>
      <point x="1034" y="1378" type="curve" smooth="yes"/>
      <point x="629" y="816" type="line"/>
      <point x="228" y="1380" type="line" smooth="yes"/>
      <point x="215" y="1399"/>
      <point x="198" y="1407"/>
      <point x="181" y="1407" type="curve" smooth="yes"/>
      <point x="147" y="1407"/>
      <point x="113" y="1375"/>
      <point x="113" y="1350" type="curve" smooth="yes"/>
      <point x="113" y="1344"/>
      <point x="114" y="1340"/>
      <point x="118" y="1335" type="curve" smooth="yes"/>
      <point x="554" y="724" type="line"/>
      <point x="93" y="92" type="line" smooth="yes"/>
      <point x="88" y="84"/>
      <point x="86" y="76"/>
      <point x="86" y="67" type="curve" smooth="yes"/>
      <point x="86" y="38"/>
      <point x="111" y="7"/>
      <point x="141" y="7" type="curve" smooth="yes"/>
      <point x="157" y="7"/>
      <point x="173" y="15"/>
      <point x="188" y="37" type="curve" smooth="yes"/>
      <point x="618" y="635" type="line"/>
    </contour>
  </outline>
</glyph>
<glyph name="Y" format="1">
  <advance width="1268"/>
  <unicode hex="0059"/>
  <outline>
    <contour>
      <point x="668" y="1438" type="move" name="top"/>
    </contour>
    <contour>
      <point x="567" y="67" type="line" smooth="yes"/>
      <point x="567" y="-21"/>
      <point x="710" y="-21"/>
      <point x="710" y="67" type="curve" smooth="yes"/>
      <point x="710" y="613" type="line"/>
      <point x="1184" y="1323" type="line" smooth="yes"/>
      <point x="1227" y="1387"/>
      <point x="1135" y="1466"/>
      <point x="1079" y="1382" type="curve" smooth="yes"/>
      <point x="647" y="723" type="line"/>
      <point x="209" y="1389" type="line" smooth="yes"/>
      <point x="162" y="1458"/>
      <point x="40" y="1396"/>
      <point x="93" y="1317" type="curve" smooth="yes"/>
      <point x="567" y="610" type="line"/>
    </contour>
  </outline>
</glyph>
<glyph name="grave" format="1">
  <advance width="569"/>
  <unicode hex="0060"/>
  <outline>
    <contour>
      <point x="446" y="1040" type="move" name="_top"/>
    </contour>
    <contour>
      <point x="468" y="1192" type="curve" smooth="yes"/>
      <point x="489" y="1192"/>
      <point x="500" y="1206"/>
      <point x="500" y="1223" type="curve" smooth="yes"/>
      <point x="500" y="1233"/>
      <point x="499" y="1242"/>
      <point x="490" y="1252" type="curve" smooth="yes"/>
      <point x="206" y="1557" type="line" smooth="yes"/>
      <point x="192" y="1569"/>
      <point x="181" y="1571"/>
      <point x="167" y="1571" type="curve" smooth="yes"/>
      <point x="127" y="1571"/>
      <point x="86" y="1527"/>
      <point x="86" y="1490" type="curve" smooth="yes"/>
      <point x="86" y="1477"/>
      <point x="93" y="1462"/>
      <point x="107" y="1452" type="curve" smooth="yes"/>
      <point x="434" y="1206" type="line" smooth="yes"/>
      <point x="447" y="1196"/>
      <point x="457" y="1192"/>
    </contour>
  </outline>
</glyph>
<glyph name="a" format="1">
  <advance width="1023"/>
  <unicode hex="0061"/>
  <outline>
    <contour>
      <point x="826" y="-2" type="move" name="ogonek"/>
    </contour>
    <contour>
      <point x="474" y="985" type="move" name="top"/>
    </contour>
    <contour>
      <point x="419" y="-25" type="curve" smooth="yes"/>
      <point x="586" y="-25"/>
      <point x="691" y="61"/>
      <point x="759" y="209" type="curve"/>
      <point x="759" y="41" type="line" smooth="yes"/>
      <point x="759" y="11"/>
      <point x="783" y="-3"/>
      <point x="810" y="-3" type="curve" smooth="yes"/>
      <point x="841" y="-3"/>
      <point x="875" y="15"/>
      <point x="875" y="46" type="curve" smooth="yes"/>
      <point x="875" y="688" type="line" smooth="yes"/>
      <point x="875" y="912"/>
      <point x="733" y="1013"/>
      <point x="503" y="1013" type="curve" smooth="yes"/>
      <point x="354" y="1013"/>
      <point x="231" y="983"/>
      <point x="129" y="914" type="curve" smooth="yes"/>
      <point x="120" y="907"/>
      <point x="117" y="897"/>
      <point x="117" y="888" type="curve" smooth="yes"/>
      <point x="117" y="866"/>
      <point x="138" y="843"/>
      <point x="161" y="843" type="curve" smooth="yes"/>
      <point x="168" y="843"/>
      <point x="175" y="845"/>
      <point x="182" y="850" type="curve" smooth="yes"/>
      <point x="279" y="899"/>
      <point x="357" y="932"/>
      <point x="503" y="932" type="curve" smooth="yes"/>
      <point x="650" y="932"/>
      <point x="763" y="865"/>
      <point x="763" y="701" type="curve" smooth="yes"/>
      <point x="763" y="559" type="line"/>
      <point x="216" y="559"/>
      <point x="65" y="500"/>
      <point x="65" y="264" type="curve" smooth="yes"/>
      <point x="65" y="74"/>
      <point x="210" y="-25"/>
    </contour>
    <contour>
      <point x="437" y="56" type="curve" smooth="yes"/>
      <point x="279" y="56"/>
      <point x="175" y="116"/>
      <point x="175" y="270" type="curve" smooth="yes"/>
      <point x="175" y="443"/>
      <point x="284" y="488"/>
      <point x="764" y="488" type="curve"/>
      <point x="764" y="451" type="line" smooth="yes"/>
      <point x="764" y="214"/>
      <point x="607" y="56"/>
    </contour>
  </outline>
</glyph>
<glyph name="e" format="1">
  <advance width="1160"/>
  <unicode hex="0065"/>
  <outline>
    <contour>
      <point x="591" y="1001" type="move" name="top"/>
    </contour>
    <contour>
      <point x="720" y="14" type="move" name="ogonek"/>
    </contour>
    <contour>
      <point x="573" y="-25" type="curve" smooth="yes"/>
      <point x="799" y="-24"/>
      <point x="910" y="70"/>
      <point x="975" y="136" type="curve" smooth="yes"/>
      <point x="1025" y="187"/>
      <point x="975" y="246"/>
      <point x="921" y="199" type="curve" smooth="yes"/>
      <point x="839" y="128"/>
      <point x="745" y="63"/>
      <point x="576" y="63" type="curve" smooth="yes"/>
      <point x="391" y="67"/>
      <point x="212" y="207"/>
      <point x="219" y="482" type="curve"/>
      <point x="955" y="482" type="line" smooth="yes"/>
      <point x="997" y="482"/>
      <point x="1019" y="500"/>
      <point x="1019" y="522" type="curve" smooth="yes"/>
      <point x="1008" y="783"/>
      <point x="907" y="1013"/>
      <point x="576" y="1013" type="curve" smooth="yes"/>
      <point x="276" y="1013"/>
      <point x="102" y="767"/>
      <point x="102" y="486" type="curve" smooth="yes"/>
      <point x="102" y="169"/>
      <point x="324" y="-26"/>
    </contour>
    <contour>
      <point x="224" y="558" type="line"/>
      <point x="238" y="755"/>
      <point x="361" y="932"/>
      <point x="588" y="932" type="curve" smooth="yes"/>
      <point x="807" y="932"/>
      <point x="903" y="769"/>
      <point x="914" y="558" type="curve"/>
    </contour>
  </outline>
</glyph>
<glyph name="f" format="1">
  <advance width="680"/>
  <unicode hex="0066"/>
  <outline>
    <contour>
      <point x="311" y="0" type="curve" smooth="yes"/>
      <point x="340" y="0"/>
      <point x="370" y="20"/>
      <point x="370" y="57" type="curve" smooth="yes"/>
      <point x="370" y="898" type="line"/>
      <point x="572" y="898" type="line" smooth="yes"/>
      <point x="608" y="898"/>
      <point x="612" y="910"/>
      <point x="612" y="936" type="curve" smooth="yes"/>
      <point x="612" y="960"/>
      <point x="608" y="975"/>
      <point x="572" y="975" type="curve" smooth="yes"/>
      <point x="370" y="975" type="line"/>
      <point x="370" y="1034" type="line" smooth="yes"/>
      <point x="370" y="1304"/>
      <point x="400" y="1348"/>
      <point x="526" y="1348" type="curve" smooth="yes"/>
      <point x="611" y="1348" type="line" smooth="yes"/>
      <point x="669" y="1348"/>
      <point x="668" y="1431"/>
      <point x="612" y="1431" type="curve" smooth="yes"/>
      <point x="496" y="1431" type="line" smooth="yes"/>
      <point x="363" y="1431"/>
      <point x="255" y="1382"/>
      <point x="255" y="1115" type="curve" smooth="yes"/>
      <point x="255" y="975" type="line"/>
      <point x="95" y="975" type="line" smooth="yes"/>
      <point x="60" y="974"/>
      <point x="50" y="960"/>
      <point x="50" y="936" type="curve" smooth="yes"/>
      <point x="50" y="913"/>
      <point x="60" y="897"/>
      <point x="95" y="898" type="curve" smooth="yes"/>
      <point x="255" y="898" type="line"/>
      <point x="255" y="57" type="line" smooth="yes"/>
      <point x="255" y="19"/>
      <point x="284" y="0"/>
    </contour>
  </outline>
</glyph>
<glyph name="j" format="1">
  <advance width="482"/>
  <unicode hex="006A"/>
  <outline>
    <contour>
      <point x="24" y="-375" type="curve" smooth="yes"/>
      <point x="312" y="-375"/>
      <point x="315" y="-292"/>
      <point x="315" y="-59" type="curve" smooth="yes"/>
      <point x="315" y="-45" type="line"/>
      <point x="315" y="927" type="line" smooth="yes"/>
      <point x="315" y="966"/>
      <point x="286" y="985"/>
      <point x="259" y="985" type="curve" smooth="yes"/>
      <point x="230" y="985"/>
      <point x="199" y="966"/>
      <point x="199" y="927" type="curve" smooth="yes"/>
      <point x="199" y="-91" type="line" smooth="yes"/>
      <point x="199" y="-261"/>
      <point x="180" y="-274"/>
      <point x="29" y="-274" type="curve" smooth="yes"/>
      <point x="-5" y="-274"/>
      <point x="-22" y="-300"/>
      <point x="-22" y="-326" type="curve" smooth="yes"/>
      <point x="-22" y="-351"/>
      <point x="-6" y="-375"/>
    </contour>
    <contour>
      <point x="257" y="1254" type="curve" smooth="yes"/>
      <point x="311" y="1254"/>
      <point x="348" y="1288"/>
      <point x="348" y="1338" type="curve" smooth="yes"/>
      <point x="348" y="1388"/>
      <point x="312" y="1422"/>
      <point x="258" y="1422" type="curve" smooth="yes"/>
      <point x="204" y="1422"/>
      <point x="167" y="1388"/>
      <point x="167" y="1338" type="curve" smooth="yes"/>
      <point x="167" y="1288"/>
      <point x="202" y="1254"/>
    </contour>
  </outline>
</glyph>
<glyph name="k" format="1">
  <advance width="951"/>
  <unicode hex="006B"/>
  <outline>
    <contour>
      <point x="494" y="0" type="move" name="bot"/>
    </contour>
    <contour>
      <point x="777" y="24" type="line" smooth="yes"/>
      <point x="827" y="-31"/>
      <point x="899" y="45"/>
      <point x="853" y="93" type="curve" smooth="yes"/>
      <point x="414" y="561" type="line"/>
      <point x="834" y="916" type="line" smooth="yes"/>
      <point x="893" y="964"/>
      <point x="815" y="1024"/>
      <point x="774" y="995" type="curve"/>
      <point x="286" y="577" type="line"/>
      <point x="286" y="556" type="line"/>
    </contour>
    <contour>
      <point x="226" y="0" type="curve" smooth="yes"/>
      <point x="256" y="0"/>
      <point x="286" y="21"/>
      <point x="286" y="59" type="curve" smooth="yes"/>
      <point x="286" y="1359" type="line" smooth="yes"/>
      <point x="286" y="1399"/>
      <point x="256" y="1418"/>
      <point x="229" y="1418" type="curve" smooth="yes"/>
      <point x="201" y="1418"/>
      <point x="170" y="1399"/>
      <point x="170" y="1359" type="curve" smooth="yes"/>
      <point x="170" y="59" type="line" smooth="yes"/>
      <point x="170" y="16"/>
      <point x="198" y="0"/>
    </contour>
  </outline>
</glyph>
<glyph name="m" format="1">
  <advance width="1822"/>
  <unicode hex="006D"/>
  <outline>
    <contour>
      <point x="932" y="968" type="move" name="top"/>
    </contour>
    <contour>
      <point x="228" y="0" type="curve" smooth="yes"/>
      <point x="258" y="0"/>
      <point x="288" y="16"/>
      <point x="288" y="53" type="curve" smooth="yes"/>
      <point x="288" y="583" type="line" smooth="yes"/>
      <point x="288" y="817"/>
      <point x="421" y="933"/>
      <point x="617" y="933" type="curve" smooth="yes"/>
      <point x="770" y="933"/>
      <point x="861" y="833"/>
      <point x="861" y="590" type="curve" smooth="yes"/>
      <point x="861" y="54" type="line" smooth="yes"/>
      <point x="861" y="17"/>
      <point x="888" y="0"/>
      <point x="917" y="0" type="curve" smooth="yes"/>
      <point x="945" y="0"/>
      <point x="976" y="17"/>
      <point x="976" y="54" type="curve" smooth="yes"/>
      <point x="976" y="604" type="line" smooth="yes"/>
      <point x="976" y="852"/>
      <point x="1139" y="933"/>
      <point x="1302" y="933" type="curve" smooth="yes"/>
      <point x="1461" y="933"/>
      <point x="1550" y="835"/>
      <point x="1550" y="647" type="curve" smooth="yes"/>
      <point x="1550" y="53" type="line" smooth="yes"/>
      <point x="1550" y="16"/>
      <point x="1578" y="0"/>
      <point x="1607" y="0" type="curve" smooth="yes"/>
      <point x="1635" y="0"/>
      <point x="1665" y="16"/>
      <point x="1665" y="53" type="curve" smooth="yes"/>
      <point x="1665" y="634" type="line" smooth="yes"/>
      <point x="1665" y="911"/>
      <point x="1493" y="1013"/>
      <point x="1317" y="1013" type="curve" smooth="yes"/>
      <point x="1127" y="1013"/>
      <point x="995" y="934"/>
      <point x="944" y="765" type="curve"/>
      <point x="899" y="954"/>
      <point x="764" y="1013"/>
      <point x="618" y="1013" type="curve" smooth="yes"/>
      <point x="457" y="1013"/>
      <point x="329" y="921"/>
      <point x="288" y="803" type="curve"/>
      <point x="288" y="935" type="line" smooth="yes"/>
      <point x="288" y="969"/>
      <point x="257" y="985"/>
      <point x="230" y="985" type="curve" smooth="yes"/>
      <point x="202" y="985"/>
      <point x="171" y="967"/>
      <point x="171" y="934" type="curve" smooth="yes"/>
      <point x="171" y="53" type="line" smooth="yes"/>
      <point x="171" y="16"/>
      <point x="199" y="0"/>
    </contour>
  </outline>
</glyph>
<glyph name="n" format="1">
  <advance width="1139"/>
  <unicode hex="006E"/>
  <outline>
    <contour>
      <point x="570" y="0" type="move" name="bot"/>
    </contour>
    <contour>
      <point x="614" y="991" type="move" name="top"/>
    </contour>
    <contour>
      <point x="231" y="0" type="curve" smooth="yes"/>
      <point x="263" y="0"/>
      <point x="297" y="21"/>
      <point x="297" y="60" type="curve" smooth="yes"/>
      <point x="297" y="617" type="line"/>
      <point x="315" y="817"/>
      <point x="435" y="922"/>
      <point x="601" y="922" type="curve" smooth="yes"/>
      <point x="778" y="922"/>
      <point x="855" y="814"/>
      <point x="855" y="623" type="curve" smooth="yes"/>
      <point x="855" y="60" type="line" smooth="yes"/>
      <point x="855" y="18"/>
      <point x="888" y="0"/>
      <point x="921" y="0" type="curve" smooth="yes"/>
      <point x="953" y="0"/>
      <point x="986" y="18"/>
      <point x="986" y="60" type="curve" smooth="yes"/>
      <point x="986" y="621" type="line" smooth="yes"/>
      <point x="986" y="896"/>
      <point x="854" y="1013"/>
      <point x="625" y="1013" type="curve" smooth="yes"/>
      <point x="477" y="1013"/>
      <point x="341" y="939"/>
      <point x="297" y="800" type="curve"/>
      <point x="297" y="926" type="line" smooth="yes"/>
      <point x="297" y="966"/>
      <point x="264" y="986"/>
      <point x="233" y="986" type="curve" smooth="yes"/>
      <point x="201" y="986"/>
      <point x="167" y="967"/>
      <point x="167" y="925" type="curve" smooth="yes"/>
      <point x="167" y="60" type="line" smooth="yes"/>
      <point x="167" y="18"/>
      <point x="198" y="0"/>
    </contour>
  </outline>
</glyph>
<glyph name="o" format="1">
  <advance width="1124"/>
  <unicode hex="006F"/>
  <outline>
    <contour>
      <point x="562" y="1005" type="move" name="top"/>
    </contour>
    <contour>
      <point x="573" y="68" type="curve" smooth="yes"/>
      <point x="351" y="66"/>
      <point x="220" y="243"/>
      <point x="220" y="495" type="curve" smooth="yes"/>
      <point x="220" y="751"/>
      <point x="351" y="922"/>
      <point x="573" y="922" type="curve" smooth="yes"/>
      <point x="797" y="922"/>
      <point x="927" y="746"/>
      <point x="927" y="495" type="curve" smooth="yes"/>
      <point x="927" y="243"/>
      <point x="804" y="69"/>
    </contour>
    <contour>
      <point x="573" y="-23" type="curve" smooth="yes"/>
      <point x="844" y="-23"/>
      <point x="1059" y="160"/>
      <point x="1059" y="495" type="curve" smooth="yes"/>
      <point x="1059" y="823"/>
      <point x="849" y="1013"/>
      <point x="573" y="1013" type="curve" smooth="yes"/>
      <point x="302" y="1013"/>
      <point x="88" y="826"/>
      <point x="88" y="495" type="curve" smooth="yes"/>
      <point x="88" y="160"/>
      <point x="303" y="-23"/>
    </contour>
  </outline>
</glyph>
<glyph name="p" format="1">
  <advance width="1168"/>
  <unicode hex="0070"/>
  <outline>
    <contour>
      <point x="232" y="-378" type="curve" smooth="yes"/>
      <point x="264" y="-378"/>
      <point x="297" y="-358"/>
      <point x="297" y="-318" type="curve" smooth="yes"/>
      <point x="297" y="193" type="line"/>
      <point x="351" y="56"/>
      <point x="488" y="-23"/>
      <point x="636" y="-23" type="curve" smooth="yes"/>
      <point x="930" y="-23"/>
      <point x="1080" y="227"/>
      <point x="1080" y="490" type="curve" smooth="yes"/>
      <point x="1080" y="768"/>
      <point x="948" y="1013"/>
      <point x="652" y="1013" type="curve" smooth="yes"/>
      <point x="502" y="1013"/>
      <point x="362" y="941"/>
      <point x="297" y="796" type="curve"/>
      <point x="297" y="929" type="line" smooth="yes"/>
      <point x="297" y="949"/>
      <point x="288" y="986"/>
      <point x="230" y="986" type="curve" smooth="yes"/>
      <point x="197" y="986"/>
      <point x="167" y="968"/>
      <point x="167" y="929" type="curve" smooth="yes"/>
      <point x="167" y="-318" type="line" smooth="yes"/>
      <point x="167" y="-358"/>
      <point x="200" y="-378"/>
    </contour>
    <contour>
      <point x="628" y="68" type="curve" smooth="yes"/>
      <point x="393" y="68"/>
      <point x="298" y="281"/>
      <point x="298" y="490" type="curve" smooth="yes"/>
      <point x="298" y="710"/>
      <point x="379" y="922"/>
      <point x="646" y="922" type="curve"/>
      <point x="879" y="918"/>
      <point x="949" y="690"/>
      <point x="949" y="499" type="curve" smooth="yes"/>
      <point x="949" y="298"/>
      <point x="867" y="68"/>
    </contour>
  </outline>
</glyph>
<glyph name="r" format="1">
  <advance width="686"/>
  <unicode hex="0072"/>
  <outline>
    <contour>
      <point x="390" y="1001" type="move" name="top"/>
    </contour>
    <contour>
      <point x="231" y="0" type="move" name="bot"/>
    </contour>
    <contour>
      <point x="231" y="0" type="curve" smooth="yes"/>
      <point x="261" y="0"/>
      <point x="290" y="18"/>
      <point x="290" y="52" type="curve" smooth="yes"/>
      <point x="290" y="649" type="line" smooth="yes"/>
      <point x="290" y="721"/>
      <point x="342" y="922"/>
      <point x="569" y="922" type="curve" smooth="yes"/>
      <point x="658" y="922"/>
      <point x="629" y="1023"/>
      <point x="581" y="1023" type="curve" smooth="yes"/>
      <point x="410" y="1023"/>
      <point x="320" y="919"/>
      <point x="292" y="807" type="curve"/>
      <point x="290" y="923" type="line" smooth="yes"/>
      <point x="289" y="1000"/>
      <point x="175" y="998"/>
      <point x="175" y="928" type="curve" smooth="yes"/>
      <point x="175" y="52" type="line" smooth="yes"/>
      <point x="175" y="15"/>
      <point x="201" y="0"/>
    </contour>
  </outline>
</glyph>
<glyph name="s" format="1">
  <advance width="1009"/>
  <unicode hex="0073"/>
  <outline>
    <contour>
      <point x="513" y="0" type="move" name="bot"/>
    </contour>
    <contour>
      <point x="476" y="1000" type="move" name="top"/>
    </contour>
    <contour>
      <point x="512" y="-22" type="curve" smooth="yes"/>
      <point x="734" y="-20"/>
      <point x="905" y="77"/>
      <point x="894" y="299" type="curve" smooth="yes"/>
      <point x="889" y="397"/>
      <point x="836" y="502"/>
      <point x="636" y="550" type="curve" smooth="yes"/>
      <point x="448" y="596" type="line" smooth="yes"/>
      <point x="282" y="636"/>
      <point x="249" y="655"/>
      <point x="249" y="749" type="curve" smooth="yes"/>
      <point x="249" y="866"/>
      <point x="347" y="917"/>
      <point x="513" y="918" type="curve" smooth="yes"/>
      <point x="640" y="920"/>
      <point x="744" y="869"/>
      <point x="792" y="852" type="curve" smooth="yes"/>
      <point x="860" y="828"/>
      <point x="885" y="904"/>
      <point x="834" y="934" type="curve" smooth="yes"/>
      <point x="783" y="962"/>
      <point x="649" y="1012"/>
      <point x="503" y="1011" type="curve" smooth="yes"/>
      <point x="320" y="1008"/>
      <point x="123" y="946"/>
      <point x="125" y="741" type="curve" smooth="yes"/>
      <point x="128" y="570"/>
      <point x="240" y="532"/>
      <point x="410" y="491" type="curve" smooth="yes"/>
      <point x="602" y="445" type="line" smooth="yes"/>
      <point x="730" y="414"/>
      <point x="778" y="365"/>
      <point x="783" y="282" type="curve" smooth="yes"/>
      <point x="792" y="147"/>
      <point x="692" y="72"/>
      <point x="523" y="71" type="curve" smooth="yes"/>
      <point x="406" y="69"/>
      <point x="296" y="106"/>
      <point x="214" y="158" type="curve" smooth="yes"/>
      <point x="145" y="202"/>
      <point x="95" y="126"/>
      <point x="153" y="83" type="curve" smooth="yes"/>
      <point x="218" y="33"/>
      <point x="372" y="-23"/>
    </contour>
  </outline>
</glyph>
<glyph name="u" format="1">
  <advance width="1139"/>
  <unicode hex="0075"/>
  <outline>
    <contour>
      <point x="908" y="18" type="move" name="ogonek"/>
    </contour>
    <contour>
      <point x="559" y="1005" type="move" name="top"/>
    </contour>
    <contour>
      <point x="514" y="-23" type="curve" smooth="yes"/>
      <point x="662" y="-23"/>
      <point x="798" y="51"/>
      <point x="842" y="190" type="curve"/>
      <point x="842" y="60" type="line" smooth="yes"/>
      <point x="842" y="20"/>
      <point x="875" y="0"/>
      <point x="906" y="0" type="curve" smooth="yes"/>
      <point x="938" y="0"/>
      <point x="972" y="19"/>
      <point x="972" y="61" type="curve" smooth="yes"/>
      <point x="972" y="927" type="line" smooth="yes"/>
      <point x="972" y="969"/>
      <point x="941" y="987"/>
      <point x="908" y="987" type="curve" smooth="yes"/>
      <point x="876" y="987"/>
      <point x="842" y="966"/>
      <point x="842" y="927" type="curve" smooth="yes"/>
      <point x="842" y="373" type="line"/>
      <point x="823" y="172"/>
      <point x="702" y="68"/>
      <point x="536" y="68" type="curve" smooth="yes"/>
      <point x="359" y="68"/>
      <point x="284" y="175"/>
      <point x="284" y="367" type="curve" smooth="yes"/>
      <point x="284" y="927" type="line" smooth="yes"/>
      <point x="284" y="969"/>
      <point x="251" y="987"/>
      <point x="218" y="987" type="curve" smooth="yes"/>
      <point x="186" y="987"/>
      <point x="153" y="969"/>
      <point x="153" y="927" type="curve" smooth="yes"/>
      <point x="153" y="369" type="line" smooth="yes"/>
      <point x="153" y="94"/>
      <point x="291" y="-23"/>
    </contour>
  </outline>
</glyph>
<glyph name="w" format="1">
  <advance width="1697"/>
  <unicode hex="0077"/>
  <outline>
    <contour>
      <point x="857" y="994" type="move" name="top"/>
    </contour>
    <contour>
      <point x="1241" y="0" type="curve" smooth="yes"/>
      <point x="1273" y="0"/>
      <point x="1301" y="21"/>
      <point x="1318" y="63" type="curve" smooth="yes"/>
      <point x="1638" y="902" type="line" smooth="yes"/>
      <point x="1642" y="912"/>
      <point x="1644" y="921"/>
      <point x="1644" y="930" type="curve" smooth="yes"/>
      <point x="1644" y="962"/>
      <point x="1618" y="982"/>
      <point x="1591" y="982" type="curve" smooth="yes"/>
      <point x="1570" y="982"/>
      <point x="1548" y="969"/>
      <point x="1538" y="941" type="curve" smooth="yes"/>
      <point x="1236" y="133" type="line"/>
      <point x="945" y="910" type="line" smooth="yes"/>
      <point x="928" y="956"/>
      <point x="902" y="985"/>
      <point x="860" y="985" type="curve" smooth="yes"/>
      <point x="819" y="985"/>
      <point x="792" y="956"/>
      <point x="775" y="910" type="curve" smooth="yes"/>
      <point x="484" y="133" type="line"/>
      <point x="183" y="941" type="line" smooth="yes"/>
      <point x="172" y="970"/>
      <point x="150" y="982"/>
      <point x="129" y="982" type="curve" smooth="yes"/>
      <point x="102" y="982"/>
      <point x="76" y="962"/>
      <point x="76" y="930" type="curve" smooth="yes"/>
      <point x="76" y="921"/>
      <point x="78" y="912"/>
      <point x="82" y="902" type="curve" smooth="yes"/>
      <point x="402" y="63" type="line" smooth="yes"/>
      <point x="419" y="21"/>
      <point x="447" y="0"/>
      <point x="479" y="0" type="curve" smooth="yes"/>
      <point x="513" y="0"/>
      <point x="539" y="31"/>
      <point x="554" y="67" type="curve" smooth="yes"/>
      <point x="860" y="876" type="line"/>
      <point x="1166" y="67" type="line" smooth="yes"/>
      <point x="1181" y="31"/>
      <point x="1207" y="0"/>
    </contour>
  </outline>
</glyph>
<glyph name="x" format="1">
  <advance width="1026"/>
  <unicode hex="0078"/>
  <outline>
    <contour>
      <point x="156" y="0" type="curve" smooth="yes"/>
      <point x="172" y="0"/>
      <point x="185" y="8"/>
      <point x="194" y="20" type="curve" smooth="yes"/>
      <point x="523" y="440" type="line"/>
      <point x="578" y="496" type="line"/>
      <point x="897" y="907" type="line" smooth="yes"/>
      <point x="903" y="917"/>
      <point x="908" y="926"/>
      <point x="908" y="937" type="curve" smooth="yes"/>
      <point x="908" y="963"/>
      <point x="880" y="985"/>
      <point x="854" y="985" type="curve" smooth="yes"/>
      <point x="840" y="985"/>
      <point x="824" y="978"/>
      <point x="813" y="963" type="curve" smooth="yes"/>
      <point x="502" y="561" type="line"/>
      <point x="452" y="506" type="line"/>
      <point x="109" y="79" type="line" smooth="yes"/>
      <point x="103" y="71"/>
      <point x="98" y="62"/>
      <point x="98" y="52" type="curve" smooth="yes"/>
      <point x="98" y="25"/>
      <point x="125" y="0"/>
    </contour>
    <contour>
      <point x="876" y="0" type="curve" smooth="yes"/>
      <point x="911" y="0"/>
      <point x="928" y="30"/>
      <point x="928" y="60" type="curve" smooth="yes"/>
      <point x="928" y="71"/>
      <point x="924" y="81"/>
      <point x="916" y="92" type="curve" smooth="yes"/>
      <point x="237" y="959" type="line" smooth="yes"/>
      <point x="223" y="977"/>
      <point x="205" y="985"/>
      <point x="188" y="985" type="curve" smooth="yes"/>
      <point x="154" y="985"/>
      <point x="136" y="957"/>
      <point x="136" y="925" type="curve" smooth="yes"/>
      <point x="136" y="914"/>
      <point x="138" y="904"/>
      <point x="149" y="891" type="curve" smooth="yes"/>
      <point x="828" y="27" type="line" smooth="yes"/>
      <point x="841" y="8"/>
      <point x="859" y="0"/>
    </contour>
  </outline>
</glyph>
<glyph name="y" format="1">
  <advance width="1001"/>
  <unicode hex="0079"/>
  <outline>
    <contour>
      <point x="556" y="984" type="move" name="top"/>
    </contour>
    <contour>
      <point x="522" y="-39" type="line"/>
      <point x="582" y="103" type="line"/>
      <point x="200" y="957" type="line" smooth="yes"/>
      <point x="170" y="1028"/>
      <point x="70" y="979"/>
      <point x="99" y="906" type="curve" smooth="yes"/>
    </contour>
    <contour>
      <point x="450" y="-318" type="curve" smooth="yes"/>
      <point x="995" y="910" type="line" smooth="yes"/>
      <point x="1011" y="971"/>
      <point x="919" y="1017"/>
      <point x="888" y="944" type="curve" smooth="yes"/>
      <point x="340" y="-299" type="line" smooth="yes"/>
      <point x="305" y="-380"/>
      <point x="416" y="-400"/>
    </contour>
  </outline>
</glyph>
<glyph name="braceleft" format="1">
  <advance width="558"/>
  <unicode hex="007B"/>
  <outline>
    <contour>
      <point x="395" y="-195" type="curve" smooth="yes"/>
      <point x="503" y="-195" type="line" smooth="yes"/>
      <point x="531" y="-195"/>
      <point x="546" y="-167"/>
      <point x="544" y="-143" type="curve" smooth="yes"/>
      <point x="544" y="-128"/>
      <point x="533" y="-98"/>
      <point x="502" y="-98" type="curve" smooth="yes"/>
      <point x="428" y="-98" type="line" smooth="yes"/>
      <point x="384" y="-98"/>
      <point x="349" y="-50"/>
      <point x="349" y="37" type="curve" smooth="yes"/>
      <point x="349" y="349" type="line" smooth="yes"/>
      <point x="349" y="543"/>
      <point x="238" y="627"/>
      <point x="218" y="640" type="curve"/>
      <point x="239" y="656"/>
      <point x="349" y="694"/>
      <point x="349" y="926" type="curve" smooth="yes"/>
      <point x="349" y="1253" type="line" smooth="yes"/>
      <point x="349" y="1335"/>
      <point x="383" y="1383"/>
      <point x="429" y="1383" type="curve" smooth="yes"/>
      <point x="506" y="1383" type="line" smooth="yes"/>
      <point x="535" y="1383"/>
      <point x="544" y="1411"/>
      <point x="544" y="1431" type="curve" smooth="yes"/>
      <point x="544" y="1443"/>
      <point x="540" y="1479"/>
      <point x="506" y="1479" type="curve" smooth="yes"/>
      <point x="395" y="1479" type="line" smooth="yes"/>
      <point x="331" y="1479"/>
      <point x="224" y="1400"/>
      <point x="224" y="1260" type="curve" smooth="yes"/>
      <point x="224" y="963" type="line" smooth="yes"/>
      <point x="224" y="809"/>
      <point x="205" y="707"/>
      <point x="73" y="692" type="curve"/>
      <point x="38" y="694"/>
      <point x="21" y="665"/>
      <point x="21" y="639" type="curve" smooth="yes"/>
      <point x="21" y="621"/>
      <point x="32" y="585"/>
      <point x="73" y="587" type="curve"/>
      <point x="204" y="572"/>
      <point x="224" y="475"/>
      <point x="224" y="319" type="curve" smooth="yes"/>
      <point x="224" y="29" type="line" smooth="yes"/>
      <point x="224" y="-100"/>
      <point x="316" y="-195"/>
    </contour>
  </outline>
</glyph>
<glyph name="bar" format="1">
  <advance width="455"/>
  <unicode hex="007C"/>
  <outline>
    <contour>
      <point x="227" y="-483" type="curve" smooth="yes"/>
      <point x="259" y="-483"/>
      <point x="291" y="-463"/>
      <point x="291" y="-419" type="curve" smooth="yes"/>
      <point x="291" y="1412" type="line" smooth="yes"/>
      <point x="291" y="1456"/>
      <point x="260" y="1475"/>
      <point x="228" y="1475" type="curve" smooth="yes"/>
      <point x="196" y="1475"/>
      <point x="164" y="1456"/>
      <point x="164" y="1412" type="curve" smooth="yes"/>
      <point x="164" y="-419" type="line" smooth="yes"/>
      <point x="164" y="-463"/>
      <point x="195" y="-483"/>
    </contour>
  </outline>
</glyph>
<glyph name="braceright" format="1">
  <advance width="558"/>
  <unicode hex="007D"/>
  <outline>
    <contour>
      <point x="53" y="-195" type="curve" smooth="yes"/>
      <point x="158" y="-195" type="line" smooth="yes"/>
      <point x="230" y="-195"/>
      <point x="331" y="-110"/>
      <point x="331" y="26" type="curve" smooth="yes"/>
      <point x="331" y="319" type="line" smooth="yes"/>
      <point x="331" y="470"/>
      <point x="349" y="571"/>
      <point x="479" y="586" type="curve"/>
      <point x="516" y="586"/>
      <point x="535" y="614"/>
      <point x="535" y="639" type="curve" smooth="yes"/>
      <point x="535" y="659"/>
      <point x="523" y="694"/>
      <point x="483" y="692" type="curve"/>
      <point x="351" y="707"/>
      <point x="331" y="806"/>
      <point x="331" y="963" type="curve" smooth="yes"/>
      <point x="331" y="1257" type="line" smooth="yes"/>
      <point x="331" y="1385"/>
      <point x="240" y="1479"/>
      <point x="158" y="1479" type="curve" smooth="yes"/>
      <point x="53" y="1479" type="line" smooth="yes"/>
      <point x="25" y="1479"/>
      <point x="12" y="1452"/>
      <point x="12" y="1430" type="curve" smooth="yes"/>
      <point x="12" y="1414"/>
      <point x="18" y="1383"/>
      <point x="50" y="1383" type="curve" smooth="yes"/>
      <point x="126" y="1383" type="line" smooth="yes"/>
      <point x="173" y="1383"/>
      <point x="207" y="1339"/>
      <point x="207" y="1249" type="curve" smooth="yes"/>
      <point x="207" y="934" type="line" smooth="yes"/>
      <point x="207" y="728"/>
      <point x="313" y="663"/>
      <point x="336" y="640" type="curve"/>
      <point x="324" y="628"/>
      <point x="207" y="548"/>
      <point x="207" y="349" type="curve" smooth="yes"/>
      <point x="207" y="44" type="line" smooth="yes"/>
      <point x="207" y="-45"/>
      <point x="175" y="-98"/>
      <point x="125" y="-98" type="curve" smooth="yes"/>
      <point x="53" y="-98" type="line" smooth="yes"/>
      <point x="26" y="-98"/>
      <point x="12" y="-124"/>
      <point x="12" y="-146" type="curve" smooth="yes"/>
      <point x="12" y="-165"/>
      <point x="21" y="-195"/>
    </contour>
  </outline>
</glyph>
<glyph name="asciitilde" format="1">
  <advance width="1350"/>
  <unicode hex="007E"/>
  <outline>
    <contour>
      <point x="763" y="1189" type="curve" smooth="yes"/>
      <point x="845" y="1189"/>
      <point x="892" y="1229"/>
      <point x="922" y="1288" type="curve"/>
      <point x="945" y="1322"/>
      <point x="878" y="1372"/>
      <point x="848" y="1327" type="curve" smooth="yes"/>
      <point x="833" y="1304"/>
      <point x="802" y="1294"/>
      <point x="778" y="1294" type="curve" smooth="yes"/>
      <point x="711" y="1294"/>
      <point x="624" y="1353"/>
      <point x="541" y="1353" type="curve" smooth="yes"/>
      <point x="467" y="1353"/>
      <point x="419" y="1319"/>
      <point x="381" y="1258" type="curve" smooth="yes"/>
      <point x="352" y="1210"/>
      <point x="432" y="1170"/>
      <point x="455" y="1215" type="curve" smooth="yes"/>
      <point x="471" y="1247"/>
      <point x="502" y="1251"/>
      <point x="531" y="1251" type="curve" smooth="yes"/>
      <point x="603" y="1251"/>
      <point x="693" y="1189"/>
    </contour>
  </outline>
</glyph>
<glyph name="cent" format="1">
  <advance width="1022"/>
  <unicode hex="00A2"/>
  <outline>
    <component base="c"/>
    <contour>
      <point x="532" y="-271" type="curve" smooth="yes"/>
      <point x="549" y="-271"/>
      <point x="568" y="-259"/>
      <point x="568" y="-232" type="curve" smooth="yes"/>
      <point x="568" y="5" type="line"/>
      <point x="494" y="6" type="line"/>
      <point x="494" y="-232" type="line" smooth="yes"/>
      <point x="494" y="-258"/>
      <point x="514" y="-271"/>
    </contour>
    <contour>
      <point x="494" y="966" type="line"/>
      <point x="568" y="967" type="line"/>
      <point x="568" y="1203" type="line" smooth="yes"/>
      <point x="568" y="1231"/>
      <point x="549" y="1243"/>
      <point x="532" y="1243" type="curve" smooth="yes"/>
      <point x="514" y="1243"/>
      <point x="494" y="1230"/>
      <point x="494" y="1203" type="curve" smooth="yes"/>
    </contour>
  </outline>
</glyph>
<glyph name="sterling" format="1">
  <advance width="1353"/>
  <unicode hex="00A3"/>
  <outline>
    <contour>
      <point x="226" y="-1" type="curve" smooth="yes"/>
      <point x="1066" y="-1" type="line" smooth="yes"/>
      <point x="1104" y="-1"/>
      <point x="1104" y="108"/>
      <point x="1066" y="108" type="curve" smooth="yes"/>
      <point x="471" y="108" type="line"/>
      <point x="471" y="778" type="line"/>
      <point x="868" y="778" type="line" smooth="yes"/>
      <point x="896" y="778"/>
      <point x="903" y="875"/>
      <point x="867" y="875" type="curve" smooth="yes"/>
      <point x="471" y="875" type="line"/>
      <point x="471" y="1012" type="line" smooth="yes"/>
      <point x="471" y="1249"/>
      <point x="501" y="1328"/>
      <point x="726" y="1328" type="curve" smooth="yes"/>
      <point x="814" y="1328"/>
      <point x="867" y="1314"/>
      <point x="940" y="1303" type="curve" smooth="yes"/>
      <point x="978" y="1299"/>
      <point x="992" y="1392"/>
      <point x="969" y="1396" type="curve" smooth="yes"/>
      <point x="873" y="1422"/>
      <point x="780" y="1431"/>
      <point x="705" y="1431" type="curve" smooth="yes"/>
      <point x="504" y="1431"/>
      <point x="343" y="1355"/>
      <point x="343" y="1101" type="curve" smooth="yes"/>
      <point x="343" y="875" type="line"/>
      <point x="193" y="875" type="line" smooth="yes"/>
      <point x="160" y="875"/>
      <point x="156" y="778"/>
      <point x="193" y="778" type="curve" smooth="yes"/>
      <point x="343" y="778" type="line"/>
      <point x="343" y="108" type="line"/>
      <point x="222" y="108" type="line" smooth="yes"/>
      <point x="184" y="108"/>
      <point x="185" y="-1"/>
    </contour>
  </outline>
</glyph>
<glyph name="brokenbar" format="1">
  <advance width="455"/>
  <unicode hex="00A6"/>
  <outline>
    <contour>
      <point x="212" y="-198" type="curve" smooth="yes"/>
      <point x="268" y="-198"/>
      <point x="270" y="-154"/>
      <point x="270" y="-119" type="curve" smooth="yes"/>
      <point x="270" y="-112" type="line"/>
      <point x="270" y="389" type="line" smooth="yes"/>
      <point x="270" y="440"/>
      <point x="261" y="477"/>
      <point x="213" y="477" type="curve" smooth="yes"/>
      <point x="177" y="477"/>
      <point x="155" y="450"/>
      <point x="155" y="421" type="curve" smooth="yes"/>
      <point x="155" y="-112" type="line" smooth="yes"/>
      <point x="155" y="-163"/>
      <point x="164" y="-198"/>
    </contour>
    <contour>
      <point x="213" y="749" type="curve" smooth="yes"/>
      <point x="267" y="749"/>
      <point x="269" y="793"/>
      <point x="269" y="828" type="curve" smooth="yes"/>
      <point x="269" y="835" type="line"/>
      <point x="269" y="1414" type="line" smooth="yes"/>
      <point x="269" y="1460"/>
      <point x="260" y="1499"/>
      <point x="212" y="1499" type="curve" smooth="yes"/>
      <point x="176" y="1499"/>
      <point x="154" y="1476"/>
      <point x="154" y="1441" type="curve" smooth="yes"/>
      <point x="154" y="835" type="line" smooth="yes"/>
      <point x="154" y="784"/>
      <point x="163" y="749"/>
    </contour>
  </outline>
</glyph>
<glyph name="section" format="1">
  <advance width="1145"/>
  <unicode hex="00A7"/>
  <outline>
    <contour>
      <point x="520" y="-32" type="curve" smooth="yes"/>
      <point x="716" y="-32"/>
      <point x="915" y="64"/>
      <point x="915" y="284" type="curve" smooth="yes"/>
      <point x="915" y="427"/>
      <point x="812" y="495"/>
      <point x="690" y="544" type="curve"/>
      <point x="788" y="587"/>
      <point x="905" y="675"/>
      <point x="905" y="795" type="curve" smooth="yes"/>
      <point x="905" y="1057"/>
      <point x="395" y="1026"/>
      <point x="395" y="1236" type="curve" smooth="yes"/>
      <point x="395" y="1362"/>
      <point x="530" y="1394"/>
      <point x="633" y="1394" type="curve" smooth="yes"/>
      <point x="695" y="1394"/>
      <point x="811" y="1352"/>
      <point x="815" y="1358" type="curve"/>
      <point x="865" y="1363"/>
      <point x="872" y="1396"/>
      <point x="872" y="1421" type="curve" smooth="yes"/>
      <point x="872" y="1442"/>
      <point x="861" y="1462"/>
      <point x="834" y="1470" type="curve" smooth="yes"/>
      <point x="766" y="1491"/>
      <point x="690" y="1509"/>
      <point x="616" y="1509" type="curve" smooth="yes"/>
      <point x="436" y="1509"/>
      <point x="253" y="1437"/>
      <point x="253" y="1231" type="curve" smooth="yes"/>
      <point x="253" y="1091"/>
      <point x="342" y="1043"/>
      <point x="446" y="983" type="curve"/>
      <point x="344" y="939"/>
      <point x="226" y="855"/>
      <point x="226" y="734" type="curve" smooth="yes"/>
      <point x="226" y="418"/>
      <point x="773" y="502"/>
      <point x="773" y="283" type="curve" smooth="yes"/>
      <point x="773" y="136"/>
      <point x="631" y="85"/>
      <point x="507" y="85" type="curve" smooth="yes"/>
      <point x="414" y="85"/>
      <point x="348" y="97"/>
      <point x="294" y="118" type="curve"/>
      <point x="225" y="138"/>
      <point x="214" y="99"/>
      <point x="214" y="65" type="curve" smooth="yes"/>
      <point x="214" y="45"/>
      <point x="226" y="24"/>
      <point x="252" y="13" type="curve" smooth="yes"/>
      <point x="334" y="-18"/>
      <point x="430" y="-32"/>
    </contour>
    <contour>
      <point x="572" y="579" type="curve"/>
      <point x="499" y="609"/>
      <point x="364" y="652"/>
      <point x="364" y="749" type="curve" smooth="yes"/>
      <point x="364" y="857"/>
      <point x="455" y="891"/>
      <point x="535" y="943" type="curve"/>
      <point x="612" y="900"/>
      <point x="766" y="877"/>
      <point x="766" y="770" type="curve" smooth="yes"/>
      <point x="766" y="665"/>
      <point x="651" y="624"/>
    </contour>
  </outline>
</glyph>
<glyph name="copyright" format="1">
  <advance width="1642"/>
  <unicode hex="00A9"/>
  <outline>
    <contour>
      <point x="842" y="404" type="curve" smooth="yes"/>
      <point x="919" y="404"/>
      <point x="1095" y="442"/>
      <point x="1095" y="512" type="curve" smooth="yes"/>
      <point x="1095" y="534"/>
      <point x="1078" y="552"/>
      <point x="1056" y="552" type="curve" smooth="yes"/>
      <point x="1046" y="552"/>
      <point x="1040" y="550"/>
      <point x="1036" y="547" type="curve" smooth="yes"/>
      <point x="977" y="514"/>
      <point x="920" y="496"/>
      <point x="860" y="496" type="curve" smooth="yes"/>
      <point x="705" y="496"/>
      <point x="567" y="606"/>
      <point x="567" y="803" type="curve" smooth="yes"/>
      <point x="567" y="1005"/>
      <point x="697" y="1098"/>
      <point x="849" y="1098" type="curve" smooth="yes"/>
      <point x="915" y="1098"/>
      <point x="987" y="1081"/>
      <point x="1048" y="1046" type="curve"/>
      <point x="1056" y="1043"/>
      <point x="1062" y="1041"/>
      <point x="1067" y="1041" type="curve" smooth="yes"/>
      <point x="1092" y="1041"/>
      <point x="1110" y="1066"/>
      <point x="1110" y="1089" type="curve" smooth="yes"/>
      <point x="1110" y="1155"/>
      <point x="911" y="1191"/>
      <point x="838" y="1191" type="curve" smooth="yes"/>
      <point x="634" y="1191"/>
      <point x="454" y="1059"/>
      <point x="454" y="801" type="curve" smooth="yes"/>
      <point x="454" y="544"/>
      <point x="642" y="404"/>
    </contour>
    <contour>
      <point x="830" y="245" type="curve" smooth="yes"/>
      <point x="497" y="245"/>
      <point x="255" y="474"/>
      <point x="255" y="794" type="curve" smooth="yes"/>
      <point x="255" y="1113"/>
      <point x="497" y="1343"/>
      <point x="830" y="1343" type="curve" smooth="yes"/>
      <point x="1162" y="1343"/>
      <point x="1399" y="1113"/>
      <point x="1399" y="794" type="curve" smooth="yes"/>
      <point x="1399" y="474"/>
      <point x="1162" y="245"/>
    </contour>
    <contour>
      <point x="830" y="138" type="curve" smooth="yes"/>
      <point x="1206" y="138"/>
      <point x="1511" y="432"/>
      <point x="1511" y="794" type="curve" smooth="yes"/>
      <point x="1511" y="1155"/>
      <point x="1206" y="1450"/>
      <point x="830" y="1450" type="curve" smooth="yes"/>
      <point x="451" y="1450"/>
      <point x="145" y="1155"/>
      <point x="145" y="794" type="curve" smooth="yes"/>
      <point x="145" y="432"/>
      <point x="451" y="138"/>
    </contour>
  </outline>
</glyph>
<glyph name="ordfeminine" format="1">
  <advance width="1028"/>
  <unicode hex="00AA"/>
  <outline>
    <contour>
      <point x="408" y="694" type="curve" smooth="yes"/>
      <point x="516" y="694"/>
      <point x="620" y="748"/>
      <point x="665" y="839" type="curve"/>
      <point x="664" y="762" type="line" smooth="yes"/>
      <point x="664" y="732"/>
      <point x="689" y="717"/>
      <point x="714" y="717" type="curve" smooth="yes"/>
      <point x="739" y="717"/>
      <point x="763" y="733"/>
      <point x="763" y="761" type="curve" smooth="yes"/>
      <point x="764" y="1253" type="line" smooth="yes"/>
      <point x="764" y="1431"/>
      <point x="658" y="1509"/>
      <point x="478" y="1509" type="curve" smooth="yes"/>
      <point x="365" y="1509"/>
      <point x="272" y="1476"/>
      <point x="201" y="1416" type="curve" smooth="yes"/>
      <point x="190" y="1406"/>
      <point x="183" y="1396"/>
      <point x="183" y="1385" type="curve" smooth="yes"/>
      <point x="183" y="1362"/>
      <point x="200" y="1342"/>
      <point x="226" y="1342" type="curve" smooth="yes"/>
      <point x="233" y="1342"/>
      <point x="245" y="1342"/>
      <point x="254" y="1351" type="curve" smooth="yes"/>
      <point x="317" y="1393"/>
      <point x="368" y="1422"/>
      <point x="477" y="1422" type="curve" smooth="yes"/>
      <point x="589" y="1422"/>
      <point x="664" y="1381"/>
      <point x="664" y="1259" type="curve" smooth="yes"/>
      <point x="664" y="1188" type="line"/>
      <point x="633" y="1192"/>
      <point x="602" y="1193"/>
      <point x="572" y="1193" type="curve" smooth="yes"/>
      <point x="319" y="1193"/>
      <point x="143" y="1123"/>
      <point x="143" y="932" type="curve" smooth="yes"/>
      <point x="143" y="783"/>
      <point x="260" y="694"/>
    </contour>
    <contour>
      <point x="425" y="781" type="curve"/>
      <point x="328" y="784"/>
      <point x="251" y="829"/>
      <point x="251" y="933" type="curve" smooth="yes"/>
      <point x="251" y="1077"/>
      <point x="416" y="1103"/>
      <point x="664" y="1103" type="curve"/>
      <point x="664" y="1026" type="line"/>
      <point x="655" y="863"/>
      <point x="554" y="784"/>
    </contour>
  </outline>
</glyph>
<glyph name="logicalnot" format="1">
  <advance width="1350"/>
  <unicode hex="00AC"/>
  <outline>
    <contour>
      <point x="1123" y="227" type="curve" smooth="yes"/>
      <point x="1156" y="227"/>
      <point x="1187" y="247"/>
      <point x="1187" y="288" type="curve" smooth="yes"/>
      <point x="1187" y="713" type="line" smooth="yes"/>
      <point x="1187" y="744"/>
      <point x="1156" y="776"/>
      <point x="1123" y="776" type="curve" smooth="yes"/>
      <point x="220" y="776" type="line" smooth="yes"/>
      <point x="181" y="776"/>
      <point x="165" y="746"/>
      <point x="165" y="714" type="curve" smooth="yes"/>
      <point x="165" y="682"/>
      <point x="181" y="651"/>
      <point x="220" y="651" type="curve" smooth="yes"/>
      <point x="1061" y="651" type="line"/>
      <point x="1061" y="288" type="line" smooth="yes"/>
      <point x="1061" y="247"/>
      <point x="1092" y="227"/>
    </contour>
  </outline>
</glyph>
<glyph name="uni00AD" format="1">
  <advance width="677"/>
  <unicode hex="00AD"/>
  <outline>
    <contour>
      <point x="107" y="475" type="curve" smooth="yes"/>
      <point x="575" y="475" type="line" smooth="yes"/>
      <point x="613" y="475"/>
      <point x="636" y="494"/>
      <point x="636" y="524" type="curve" smooth="yes"/>
      <point x="636" y="556"/>
      <point x="613" y="576"/>
      <point x="575" y="576" type="curve" smooth="yes"/>
      <point x="103" y="576" type="line" smooth="yes"/>
      <point x="65" y="576"/>
      <point x="41" y="556"/>
      <point x="41" y="524" type="curve" smooth="yes"/>
      <point x="41" y="494"/>
      <point x="67" y="475"/>
    </contour>
  </outline>
</glyph>
<glyph name="registered" format="1">
  <advance width="1641"/>
  <unicode hex="00AE"/>
  <outline>
    <contour>
      <point x="629" y="395" type="curve" smooth="yes"/>
      <point x="656" y="395"/>
      <point x="683" y="412"/>
      <point x="683" y="444" type="curve" smooth="yes"/>
      <point x="683" y="738" type="line"/>
      <point x="838" y="738" type="line"/>
      <point x="1051" y="415" type="line" smooth="yes"/>
      <point x="1090" y="355"/>
      <point x="1164" y="421"/>
      <point x="1135" y="467" type="curve" smooth="yes"/>
      <point x="943" y="739" type="line"/>
      <point x="1075" y="750"/>
      <point x="1176" y="791"/>
      <point x="1176" y="941" type="curve" smooth="yes"/>
      <point x="1176" y="1072"/>
      <point x="1109" y="1141"/>
      <point x="909" y="1141" type="curve" smooth="yes"/>
      <point x="647" y="1141" type="line" smooth="yes"/>
      <point x="595" y="1141"/>
      <point x="576" y="1099"/>
      <point x="576" y="1072" type="curve" smooth="yes"/>
      <point x="576" y="444" type="line" smooth="yes"/>
      <point x="576" y="411"/>
      <point x="603" y="395"/>
    </contour>
    <contour>
      <point x="683" y="828" type="curve"/>
      <point x="683" y="1049" type="line"/>
      <point x="887" y="1049" type="line" smooth="yes"/>
      <point x="977" y="1049"/>
      <point x="1062" y="1037"/>
      <point x="1062" y="944" type="curve" smooth="yes"/>
      <point x="1062" y="826"/>
      <point x="968" y="829"/>
      <point x="882" y="829" type="curve"/>
      <point x="905" y="829"/>
      <point x="660" y="827"/>
    </contour>
    <contour>
      <point x="827" y="207" type="curve" smooth="yes"/>
      <point x="489" y="207"/>
      <point x="246" y="440"/>
      <point x="246" y="764" type="curve" smooth="yes"/>
      <point x="246" y="1087"/>
      <point x="489" y="1320"/>
      <point x="827" y="1320" type="curve" smooth="yes"/>
      <point x="1163" y="1320"/>
      <point x="1405" y="1087"/>
      <point x="1405" y="764" type="curve" smooth="yes"/>
      <point x="1405" y="440"/>
      <point x="1163" y="207"/>
    </contour>
    <contour>
      <point x="827" y="101" type="curve" smooth="yes"/>
      <point x="1208" y="101"/>
      <point x="1521" y="402"/>
      <point x="1521" y="764" type="curve" smooth="yes"/>
      <point x="1521" y="1130"/>
      <point x="1208" y="1430"/>
      <point x="827" y="1430" type="curve" smooth="yes"/>
      <point x="442" y="1430"/>
      <point x="130" y="1130"/>
      <point x="130" y="764" type="curve" smooth="yes"/>
      <point x="130" y="402"/>
      <point x="442" y="101"/>
    </contour>
  </outline>
</glyph>
<glyph name="macron" format="1">
  <advance width="569"/>
  <unicode hex="00AF"/>
  <outline>
    <contour>
      <point x="289" y="1287" type="move" name="_mid"/>
    </contour>
    <contour>
      <point x="284" y="1040" type="move" name="_top"/>
    </contour>
    <contour>
      <point x="54" y="1244" type="curve" smooth="yes"/>
      <point x="522" y="1244" type="line" smooth="yes"/>
      <point x="561" y="1244"/>
      <point x="581" y="1262"/>
      <point x="581" y="1295" type="curve" smooth="yes"/>
      <point x="581" y="1326"/>
      <point x="561" y="1346"/>
      <point x="522" y="1346" type="curve" smooth="yes"/>
      <point x="54" y="1346" type="line" smooth="yes"/>
      <point x="12" y="1346"/>
      <point x="-9" y="1326"/>
      <point x="-9" y="1295" type="curve" smooth="yes"/>
      <point x="-9" y="1262"/>
      <point x="12" y="1244"/>
    </contour>
  </outline>
</glyph>
<glyph name="degree" format="1">
  <advance width="819"/>
  <unicode hex="00B0"/>
  <outline>
    <contour>
      <point x="410" y="893" type="curve" smooth="yes"/>
      <point x="286" y="893"/>
      <point x="197" y="978"/>
      <point x="197" y="1098" type="curve" smooth="yes"/>
      <point x="197" y="1214"/>
      <point x="285" y="1303"/>
      <point x="408" y="1303" type="curve" smooth="yes"/>
      <point x="529" y="1303"/>
      <point x="623" y="1214"/>
      <point x="623" y="1098" type="curve" smooth="yes"/>
      <point x="623" y="978"/>
      <point x="531" y="893"/>
    </contour>
    <contour>
      <point x="410" y="804" type="curve" smooth="yes"/>
      <point x="578" y="804"/>
      <point x="717" y="935"/>
      <point x="717" y="1098" type="curve" smooth="yes"/>
      <point x="717" y="1259"/>
      <point x="578" y="1393"/>
      <point x="410" y="1393" type="curve" smooth="yes"/>
      <point x="238" y="1393"/>
      <point x="103" y="1259"/>
      <point x="103" y="1098" type="curve" smooth="yes"/>
      <point x="103" y="935"/>
      <point x="241" y="804"/>
    </contour>
  </outline>
</glyph>
<glyph name="acute" format="1">
  <advance width="569"/>
  <unicode hex="00B4"/>
  <outline>
    <contour>
      <point x="116" y="1040" type="move" name="_top"/>
    </contour>
    <contour>
      <point x="82" y="1204" type="curve" smooth="yes"/>
      <point x="94" y="1204"/>
      <point x="106" y="1210"/>
      <point x="121" y="1220" type="curve" smooth="yes"/>
      <point x="448" y="1466" type="line" smooth="yes"/>
      <point x="462" y="1476"/>
      <point x="466" y="1490"/>
      <point x="466" y="1503" type="curve" smooth="yes"/>
      <point x="466" y="1541"/>
      <point x="426" y="1582"/>
      <point x="385" y="1582" type="curve" smooth="yes"/>
      <point x="371" y="1582"/>
      <point x="357" y="1579"/>
      <point x="345" y="1567" type="curve" smooth="yes"/>
      <point x="62" y="1264" type="line" smooth="yes"/>
      <point x="52" y="1254"/>
      <point x="52" y="1243"/>
      <point x="52" y="1236" type="curve" smooth="yes"/>
      <point x="52" y="1219"/>
      <point x="62" y="1204"/>
    </contour>
  </outline>
</glyph>
<glyph name="paragraph" format="1">
  <advance width="1330"/>
  <unicode hex="00B6"/>
  <outline>
    <contour>
      <point x="596" y="-294" type="curve" smooth="yes"/>
      <point x="630" y="-294"/>
      <point x="664" y="-272"/>
      <point x="664" y="-229" type="curve" smooth="yes"/>
      <point x="664" y="1301" type="line"/>
      <point x="903" y="1301" type="line"/>
      <point x="903" y="-229" type="line" smooth="yes"/>
      <point x="903" y="-272"/>
      <point x="937" y="-294"/>
      <point x="971" y="-294" type="curve" smooth="yes"/>
      <point x="1005" y="-294"/>
      <point x="1039" y="-272"/>
      <point x="1039" y="-229" type="curve" smooth="yes"/>
      <point x="1039" y="1323" type="line" smooth="yes"/>
      <point x="1039" y="1370"/>
      <point x="1029" y="1421"/>
      <point x="942" y="1421" type="curve" smooth="yes"/>
      <point x="590" y="1421" type="line" smooth="yes"/>
      <point x="303" y="1421"/>
      <point x="134" y="1283"/>
      <point x="134" y="1037" type="curve" smooth="yes"/>
      <point x="134" y="830"/>
      <point x="317" y="663"/>
      <point x="528" y="663" type="curve"/>
      <point x="528" y="-229" type="line" smooth="yes"/>
      <point x="528" y="-272"/>
      <point x="562" y="-294"/>
    </contour>
  </outline>
</glyph>
<glyph name="cedilla" format="1">
  <advance width="569"/>
  <unicode hex="00B8"/>
  <outline>
    <contour>
      <point x="281" y="0" type="move" name="_bot"/>
    </contour>
    <contour>
      <point x="307" y="-381" type="curve" smooth="yes"/>
      <point x="392" y="-381"/>
      <point x="484" y="-334"/>
      <point x="483" y="-237" type="curve" smooth="yes"/>
      <point x="483" y="-123"/>
      <point x="389" y="-99"/>
      <point x="294" y="-100" type="curve" smooth="yes"/>
      <point x="286" y="-100"/>
      <point x="281" y="-101"/>
      <point x="275" y="-101" type="curve"/>
      <point x="306" y="11" type="line"/>
      <point x="258" y="11" type="line"/>
      <point x="215" y="-122" type="line" smooth="yes"/>
      <point x="214" y="-126"/>
      <point x="213" y="-130"/>
      <point x="213" y="-134" type="curve" smooth="yes"/>
      <point x="213" y="-149"/>
      <point x="222" y="-162"/>
      <point x="243" y="-162" type="curve" smooth="yes"/>
      <point x="246" y="-162"/>
      <point x="250" y="-161"/>
      <point x="253" y="-161" type="curve" smooth="yes"/>
      <point x="310" y="-161"/>
      <point x="367" y="-182"/>
      <point x="367" y="-235" type="curve" smooth="yes"/>
      <point x="367" y="-290"/>
      <point x="346" y="-319"/>
      <point x="275" y="-319" type="curve" smooth="yes"/>
      <point x="213" y="-319"/>
      <point x="165" y="-305"/>
      <point x="113" y="-284" type="curve" smooth="yes"/>
      <point x="108" y="-282"/>
      <point x="102" y="-281"/>
      <point x="99" y="-281" type="curve" smooth="yes"/>
      <point x="86" y="-281"/>
      <point x="77" y="-295"/>
      <point x="77" y="-309" type="curve" smooth="yes"/>
      <point x="77" y="-348"/>
      <point x="195" y="-381"/>
    </contour>
  </outline>
</glyph>
<glyph name="uni00B9" format="1">
  <advance width="681"/>
  <unicode hex="00B9"/>
  <outline>
    <contour>
      <point x="427" y="551" type="curve" smooth="yes"/>
      <point x="445" y="551"/>
      <point x="465" y="563"/>
      <point x="465" y="586" type="curve" smooth="yes"/>
      <point x="465" y="1329" type="line" smooth="yes"/>
      <point x="465" y="1355"/>
      <point x="447" y="1365"/>
      <point x="430" y="1365" type="curve" smooth="yes"/>
      <point x="422" y="1365"/>
      <point x="415" y="1362"/>
      <point x="407" y="1358" type="curve" smooth="yes"/>
      <point x="213" y="1232" type="line" smooth="yes"/>
      <point x="206" y="1228"/>
      <point x="201" y="1222"/>
      <point x="201" y="1210" type="curve" smooth="yes"/>
      <point x="201" y="1196"/>
      <point x="213" y="1179"/>
      <point x="232" y="1179" type="curve" smooth="yes"/>
      <point x="237" y="1179"/>
      <point x="243" y="1181"/>
      <point x="249" y="1186" type="curve" smooth="yes"/>
      <point x="390" y="1278" type="line"/>
      <point x="390" y="586" type="line" smooth="yes"/>
      <point x="390" y="563"/>
      <point x="409" y="551"/>
    </contour>
  </outline>
</glyph>
<glyph name="ordmasculine" format="1">
  <advance width="1144"/>
  <unicode hex="00BA"/>
  <outline>
    <contour>
      <point x="551" y="768" type="curve" smooth="yes"/>
      <point x="355" y="768"/>
      <point x="277" y="953"/>
      <point x="277" y="1098" type="curve" smooth="yes"/>
      <point x="277" y="1243"/>
      <point x="355" y="1426"/>
      <point x="551" y="1426" type="curve" smooth="yes"/>
      <point x="749" y="1426"/>
      <point x="827" y="1243"/>
      <point x="827" y="1098" type="curve" smooth="yes"/>
      <point x="827" y="953"/>
      <point x="749" y="768"/>
    </contour>
    <contour>
      <point x="552" y="686" type="curve" smooth="yes"/>
      <point x="807" y="686"/>
      <point x="927" y="892"/>
      <point x="927" y="1097" type="curve" smooth="yes"/>
      <point x="927" y="1300"/>
      <point x="807" y="1509"/>
      <point x="552" y="1509" type="curve" smooth="yes"/>
      <point x="297" y="1509"/>
      <point x="179" y="1300"/>
      <point x="179" y="1097" type="curve" smooth="yes"/>
      <point x="179" y="892"/>
      <point x="297" y="686"/>
    </contour>
  </outline>
</glyph>
<glyph name="guillemotright" format="1">
  <advance width="1142"/>
  <unicode hex="00BB"/>
  <outline>
    <contour>
      <point x="304" y="137" type="curve" smooth="yes"/>
      <point x="321" y="137"/>
      <point x="344" y="144"/>
      <point x="358" y="171" type="curve" smooth="yes"/>
      <point x="564" y="547" type="line"/>
      <point x="358" y="922" type="line" smooth="yes"/>
      <point x="344" y="947"/>
      <point x="320" y="956"/>
      <point x="305" y="956" type="curve" smooth="yes"/>
      <point x="280" y="956"/>
      <point x="259" y="937"/>
      <point x="259" y="912" type="curve" smooth="yes"/>
      <point x="259" y="907"/>
      <point x="260" y="902"/>
      <point x="262" y="897" type="curve" smooth="yes"/>
      <point x="429" y="547" type="line"/>
      <point x="262" y="196" type="line" smooth="yes"/>
      <point x="260" y="190"/>
      <point x="259" y="184"/>
      <point x="259" y="180" type="curve" smooth="yes"/>
      <point x="259" y="156"/>
      <point x="279" y="137"/>
    </contour>
    <contour>
      <point x="668" y="137" type="curve" smooth="yes"/>
      <point x="685" y="137"/>
      <point x="709" y="144"/>
      <point x="723" y="171" type="curve" smooth="yes"/>
      <point x="929" y="547" type="line"/>
      <point x="723" y="922" type="line" smooth="yes"/>
      <point x="709" y="947"/>
      <point x="686" y="956"/>
      <point x="669" y="956" type="curve" smooth="yes"/>
      <point x="644" y="956"/>
      <point x="624" y="937"/>
      <point x="624" y="912" type="curve" smooth="yes"/>
      <point x="624" y="907"/>
      <point x="624" y="902"/>
      <point x="626" y="898" type="curve" smooth="yes"/>
      <point x="793" y="547" type="line"/>
      <point x="626" y="195" type="line" smooth="yes"/>
      <point x="624" y="189"/>
      <point x="623" y="184"/>
      <point x="623" y="180" type="curve" smooth="yes"/>
      <point x="623" y="156"/>
      <point x="644" y="137"/>
    </contour>
  </outline>
</glyph>
<glyph name="onequarter" format="1">
  <advance width="1507"/>
  <unicode hex="00BC"/>
  <outline>
    <contour>
      <point x="1255" y="1" type="curve" smooth="yes"/>
      <point x="1276" y="1"/>
      <point x="1297" y="15"/>
      <point x="1297" y="41" type="curve" smooth="yes"/>
      <point x="1297" y="193" type="line"/>
      <point x="1398" y="193" type="line" smooth="yes"/>
      <point x="1422" y="193"/>
      <point x="1432" y="207"/>
      <point x="1432" y="225" type="curve" smooth="yes"/>
      <point x="1432" y="242"/>
      <point x="1419" y="257"/>
      <point x="1398" y="257" type="curve" smooth="yes"/>
      <point x="1297" y="257" type="line"/>
      <point x="1297" y="780" type="line" smooth="yes"/>
      <point x="1297" y="823"/>
      <point x="1269" y="841"/>
      <point x="1235" y="841" type="curve" smooth="yes"/>
      <point x="1211" y="841"/>
      <point x="1185" y="828"/>
      <point x="1170" y="805" type="curve" smooth="yes"/>
      <point x="819" y="280" type="line" smooth="yes"/>
      <point x="812" y="269"/>
      <point x="808" y="258"/>
      <point x="808" y="245" type="curve" smooth="yes"/>
      <point x="808" y="218"/>
      <point x="828" y="193"/>
      <point x="859" y="193" type="curve" smooth="yes"/>
      <point x="1213" y="193" type="line"/>
      <point x="1213" y="41" type="line" smooth="yes"/>
      <point x="1213" y="15"/>
      <point x="1234" y="1"/>
    </contour>
    <contour>
      <point x="389" y="556" type="curve" smooth="yes"/>
      <point x="411" y="556"/>
      <point x="432" y="570"/>
      <point x="432" y="596" type="curve" smooth="yes"/>
      <point x="432" y="1329" type="line" smooth="yes"/>
      <point x="432" y="1359"/>
      <point x="412" y="1370"/>
      <point x="393" y="1370" type="curve" smooth="yes"/>
      <point x="384" y="1370"/>
      <point x="376" y="1367"/>
      <point x="368" y="1363" type="curve" smooth="yes"/>
      <point x="172" y="1237" type="line" smooth="yes"/>
      <point x="164" y="1232"/>
      <point x="159" y="1224"/>
      <point x="159" y="1212" type="curve" smooth="yes"/>
      <point x="159" y="1196"/>
      <point x="172" y="1179"/>
      <point x="192" y="1179" type="curve" smooth="yes"/>
      <point x="198" y="1179"/>
      <point x="204" y="1180"/>
      <point x="211" y="1185" type="curve" smooth="yes"/>
      <point x="349" y="1275" type="line"/>
      <point x="349" y="596" type="line" smooth="yes"/>
      <point x="349" y="570"/>
      <point x="369" y="556"/>
    </contour>
    <contour>
      <point x="491" y="-93" type="curve" smooth="yes"/>
      <point x="512" y="-93"/>
      <point x="530" y="-81"/>
      <point x="538" y="-57" type="curve" smooth="yes"/>
      <point x="1020" y="1360" type="line" smooth="yes"/>
      <point x="1023" y="1367"/>
      <point x="1023" y="1373"/>
      <point x="1023" y="1380" type="curve" smooth="yes"/>
      <point x="1023" y="1408"/>
      <point x="999" y="1426"/>
      <point x="974" y="1426" type="curve" smooth="yes"/>
      <point x="953" y="1426"/>
      <point x="933" y="1414"/>
      <point x="925" y="1389" type="curve" smooth="yes"/>
      <point x="447" y="-27" type="line"/>
      <point x="444" y="-32"/>
      <point x="443" y="-40"/>
      <point x="443" y="-47" type="curve" smooth="yes"/>
      <point x="443" y="-76"/>
      <point x="467" y="-93"/>
    </contour>
    <contour>
      <point x="883" y="258" type="line"/>
      <point x="1213" y="756" type="line"/>
      <point x="1213" y="258" type="line"/>
    </contour>
  </outline>
</glyph>
<glyph name="threequarters" format="1">
  <advance width="1555"/>
  <unicode hex="00BE"/>
  <outline>
    <contour>
      <point x="285" y="532" type="curve" smooth="yes"/>
      <point x="422" y="532"/>
      <point x="556" y="601"/>
      <point x="556" y="761" type="curve" smooth="yes"/>
      <point x="556" y="873"/>
      <point x="480" y="953"/>
      <point x="378" y="978" type="curve"/>
      <point x="504" y="972"/>
      <point x="542" y="1066"/>
      <point x="542" y="1171" type="curve" smooth="yes"/>
      <point x="542" y="1329"/>
      <point x="404" y="1395"/>
      <point x="272" y="1395" type="curve" smooth="yes"/>
      <point x="197" y="1395"/>
      <point x="51" y="1366"/>
      <point x="51" y="1317" type="curve" smooth="yes"/>
      <point x="51" y="1296"/>
      <point x="64" y="1278"/>
      <point x="88" y="1278" type="curve" smooth="yes"/>
      <point x="108" y="1278"/>
      <point x="197" y="1320"/>
      <point x="283" y="1320" type="curve" smooth="yes"/>
      <point x="374" y="1320"/>
      <point x="454" y="1266"/>
      <point x="454" y="1170" type="curve" smooth="yes"/>
      <point x="454" y="1059"/>
      <point x="357" y="1015"/>
      <point x="258" y="1011" type="curve" smooth="yes"/>
      <point x="224" y="1010" type="line" smooth="yes"/>
      <point x="200" y="1009"/>
      <point x="189" y="992"/>
      <point x="189" y="974" type="curve" smooth="yes"/>
      <point x="189" y="957"/>
      <point x="200" y="938"/>
      <point x="224" y="938" type="curve" smooth="yes"/>
      <point x="269" y="938" type="line" smooth="yes"/>
      <point x="369" y="938"/>
      <point x="468" y="874"/>
      <point x="468" y="759" type="curve" smooth="yes"/>
      <point x="468" y="662"/>
      <point x="399" y="608"/>
      <point x="290" y="608" type="curve" smooth="yes"/>
      <point x="225" y="608"/>
      <point x="162" y="621"/>
      <point x="121" y="648" type="curve"/>
      <point x="85" y="665"/>
      <point x="63" y="639"/>
      <point x="63" y="615" type="curve" smooth="yes"/>
      <point x="63" y="568"/>
      <point x="208" y="532"/>
    </contour>
    <contour>
      <point x="1258" y="1" type="curve" smooth="yes"/>
      <point x="1280" y="1"/>
      <point x="1300" y="15"/>
      <point x="1300" y="41" type="curve" smooth="yes"/>
      <point x="1300" y="193" type="line"/>
      <point x="1401" y="193" type="line" smooth="yes"/>
      <point x="1425" y="193"/>
      <point x="1436" y="207"/>
      <point x="1436" y="225" type="curve" smooth="yes"/>
      <point x="1436" y="242"/>
      <point x="1422" y="257"/>
      <point x="1401" y="257" type="curve" smooth="yes"/>
      <point x="1300" y="257" type="line"/>
      <point x="1300" y="780" type="line" smooth="yes"/>
      <point x="1300" y="823"/>
      <point x="1272" y="841"/>
      <point x="1239" y="841" type="curve" smooth="yes"/>
      <point x="1214" y="841"/>
      <point x="1189" y="828"/>
      <point x="1173" y="805" type="curve" smooth="yes"/>
      <point x="823" y="280" type="line" smooth="yes"/>
      <point x="815" y="268"/>
      <point x="811" y="257"/>
      <point x="811" y="245" type="curve" smooth="yes"/>
      <point x="811" y="218"/>
      <point x="831" y="193"/>
      <point x="862" y="193" type="curve" smooth="yes"/>
      <point x="1215" y="193" type="line"/>
      <point x="1215" y="41" type="line" smooth="yes"/>
      <point x="1215" y="15"/>
      <point x="1236" y="1"/>
    </contour>
    <contour>
      <point x="511" y="-93" type="curve" smooth="yes"/>
      <point x="531" y="-93"/>
      <point x="550" y="-81"/>
      <point x="557" y="-57" type="curve" smooth="yes"/>
      <point x="1038" y="1360" type="line" smooth="yes"/>
      <point x="1041" y="1366"/>
      <point x="1041" y="1373"/>
      <point x="1041" y="1380" type="curve" smooth="yes"/>
      <point x="1041" y="1408"/>
      <point x="1017" y="1426"/>
      <point x="993" y="1426" type="curve" smooth="yes"/>
      <point x="971" y="1426"/>
      <point x="951" y="1414"/>
      <point x="943" y="1389" type="curve" smooth="yes"/>
      <point x="466" y="-27" type="line"/>
      <point x="463" y="-32"/>
      <point x="462" y="-40"/>
      <point x="462" y="-47" type="curve" smooth="yes"/>
      <point x="462" y="-76"/>
      <point x="486" y="-93"/>
    </contour>
    <contour>
      <point x="885" y="258" type="line"/>
      <point x="1215" y="756" type="line"/>
      <point x="1215" y="258" type="line"/>
    </contour>
  </outline>
</glyph>
<glyph name="AE" format="1">
  <advance width="1955"/>
  <unicode hex="00C6"/>
  <outline>
    <contour>
      <point x="1277" y="1462" type="move" name="top"/>
    </contour>
    <contour>
      <point x="1246" y="0" type="curve" smooth="yes"/>
      <point x="1858" y="0" type="line"/>
      <point x="1892" y="-2"/>
      <point x="1907" y="23"/>
      <point x="1907" y="46" type="curve" smooth="yes"/>
      <point x="1907" y="77"/>
      <point x="1881" y="113"/>
      <point x="1838" y="113" type="curve" smooth="yes"/>
      <point x="1290" y="113" type="line"/>
      <point x="1196" y="677" type="line"/>
      <point x="1807" y="677" type="line" smooth="yes"/>
      <point x="1840" y="677"/>
      <point x="1857" y="698"/>
      <point x="1857" y="723" type="curve" smooth="yes"/>
      <point x="1857" y="756"/>
      <point x="1830" y="789"/>
      <point x="1787" y="789" type="curve" smooth="yes"/>
      <point x="1178" y="789" type="line"/>
      <point x="1094" y="1306" type="line"/>
      <point x="1837" y="1306" type="line" smooth="yes"/>
      <point x="1871" y="1306"/>
      <point x="1885" y="1327"/>
      <point x="1885" y="1352" type="curve" smooth="yes"/>
      <point x="1885" y="1383"/>
      <point x="1860" y="1419"/>
      <point x="1817" y="1419" type="curve" smooth="yes"/>
      <point x="1003" y="1419" type="line" smooth="yes"/>
      <point x="964" y="1419"/>
      <point x="924" y="1410"/>
      <point x="857" y="1306" type="curve"/>
      <point x="62" y="79" type="line"/>
      <point x="52" y="65"/>
      <point x="48" y="53"/>
      <point x="50" y="44" type="curve" smooth="yes"/>
      <point x="50" y="17"/>
      <point x="74" y="-2"/>
      <point x="103" y="-2" type="curve" smooth="yes"/>
      <point x="123" y="-2"/>
      <point x="145" y="7"/>
      <point x="162" y="33" type="curve"/>
      <point x="390" y="385" type="line"/>
      <point x="1118" y="385" type="line"/>
      <point x="1179" y="33" type="line"/>
      <point x="1185" y="1"/>
      <point x="1216" y="0"/>
    </contour>
    <contour>
      <point x="466" y="500" type="line"/>
      <point x="967" y="1304" type="line"/>
      <point x="970" y="1304" type="line"/>
      <point x="1103" y="500" type="line"/>
    </contour>
  </outline>
</glyph>
<glyph name="multiply" format="1">
  <advance width="1350"/>
  <unicode hex="00D7"/>
  <outline>
    <contour>
      <point x="360" y="117" type="curve" smooth="yes"/>
      <point x="376" y="117"/>
      <point x="391" y="124"/>
      <point x="401" y="135" type="curve" smooth="yes"/>
      <point x="674" y="407" type="line"/>
      <point x="935" y="147" type="line" smooth="yes"/>
      <point x="947" y="135"/>
      <point x="961" y="129"/>
      <point x="975" y="129" type="curve" smooth="yes"/>
      <point x="1012" y="129"/>
      <point x="1040" y="160"/>
      <point x="1040" y="197" type="curve" smooth="yes"/>
      <point x="1040" y="210"/>
      <point x="1036" y="224"/>
      <point x="1025" y="236" type="curve" smooth="yes"/>
      <point x="763" y="496" type="line"/>
      <point x="1035" y="770" type="line" smooth="yes"/>
      <point x="1049" y="783"/>
      <point x="1055" y="799"/>
      <point x="1055" y="812" type="curve" smooth="yes"/>
      <point x="1055" y="845"/>
      <point x="1025" y="874"/>
      <point x="992" y="874" type="curve" smooth="yes"/>
      <point x="977" y="874"/>
      <point x="962" y="867"/>
      <point x="950" y="855" type="curve" smooth="yes"/>
      <point x="677" y="582" type="line"/>
      <point x="414" y="845" type="line" smooth="yes"/>
      <point x="403" y="856"/>
      <point x="390" y="863"/>
      <point x="374" y="863" type="curve" smooth="yes"/>
      <point x="339" y="863"/>
      <point x="307" y="830"/>
      <point x="307" y="796" type="curve" smooth="yes"/>
      <point x="307" y="780"/>
      <point x="314" y="767"/>
      <point x="325" y="756" type="curve" smooth="yes"/>
      <point x="588" y="493" type="line"/>
      <point x="316" y="221" type="line" smooth="yes"/>
      <point x="301" y="206"/>
      <point x="297" y="190"/>
      <point x="297" y="178" type="curve" smooth="yes"/>
      <point x="297" y="145"/>
      <point x="327" y="117"/>
    </contour>
  </outline>
</glyph>
<glyph name="Oslash" format="1">
  <advance width="1594"/>
  <unicode hex="00D8"/>
  <outline>
    <component base="O"/>
    <contour>
      <point x="267" y="-101" type="curve" smooth="yes"/>
      <point x="282" y="-101"/>
      <point x="301" y="-99"/>
      <point x="319" y="-75" type="curve" smooth="yes"/>
      <point x="1383" y="1430" type="line" smooth="yes"/>
      <point x="1396" y="1450"/>
      <point x="1401" y="1466"/>
      <point x="1401" y="1480" type="curve" smooth="yes"/>
      <point x="1401" y="1510"/>
      <point x="1379" y="1530"/>
      <point x="1352" y="1530" type="curve" smooth="yes"/>
      <point x="1336" y="1530"/>
      <point x="1314" y="1524"/>
      <point x="1297" y="1498" type="curve" smooth="yes"/>
      <point x="228" y="-25" type="line" smooth="yes"/>
      <point x="221" y="-35"/>
      <point x="218" y="-45"/>
      <point x="218" y="-54" type="curve" smooth="yes"/>
      <point x="218" y="-79"/>
      <point x="241" y="-101"/>
    </contour>
  </outline>
</glyph>
<glyph name="oslash" format="1">
  <advance width="1108"/>
  <unicode hex="00F8"/>
  <outline>
    <component base="o"/>
    <contour>
      <point x="561" y="991" type="move" name="top"/>
    </contour>
    <contour>
      <point x="374" y="-185" type="curve" smooth="yes"/>
      <point x="400" y="-185"/>
      <point x="423" y="-173"/>
      <point x="434" y="-141" type="curve" smooth="yes"/>
      <point x="842" y="1113" type="line"/>
      <point x="842" y="1118"/>
      <point x="839" y="1118"/>
      <point x="839" y="1122" type="curve" smooth="yes"/>
      <point x="839" y="1157"/>
      <point x="808" y="1178"/>
      <point x="778" y="1178" type="curve" smooth="yes"/>
      <point x="752" y="1178"/>
      <point x="726" y="1165"/>
      <point x="714" y="1132" type="curve"/>
      <point x="313" y="-114" type="line"/>
      <point x="313" y="-118"/>
      <point x="314" y="-123"/>
      <point x="314" y="-128" type="curve" smooth="yes"/>
      <point x="314" y="-164"/>
      <point x="343" y="-185"/>
    </contour>
  </outline>
</glyph>
<glyph name="Hbar" format="1">
  <advance width="1445"/>
  <unicode hex="0126"/>
  <outline>
    <component base="H"/>
    <contour>
      <point x="125" y="1030" type="curve" smooth="yes"/>
      <point x="1324" y="1030" type="line" smooth="yes"/>
      <point x="1362" y="1030"/>
      <point x="1387" y="1046"/>
      <point x="1387" y="1076" type="curve" smooth="yes"/>
      <point x="1387" y="1106"/>
      <point x="1362" y="1123"/>
      <point x="1324" y="1123" type="curve" smooth="yes"/>
      <point x="125" y="1123" type="line" smooth="yes"/>
      <point x="88" y="1123"/>
      <point x="63" y="1106"/>
      <point x="63" y="1076" type="curve" smooth="yes"/>
      <point x="63" y="1046"/>
      <point x="88" y="1030"/>
    </contour>
  </outline>
</glyph>
<glyph name="kgreenlandic" format="1">
  <advance width="946"/>
  <unicode hex="0138"/>
  <outline>
    <contour>
      <point x="221" y="0" type="curve" smooth="yes"/>
      <point x="251" y="0"/>
      <point x="281" y="21"/>
      <point x="281" y="59" type="curve" smooth="yes"/>
      <point x="281" y="521" type="line"/>
      <point x="772" y="24" type="line" smooth="yes"/>
      <point x="785" y="11"/>
      <point x="798" y="6"/>
      <point x="811" y="6" type="curve" smooth="yes"/>
      <point x="839" y="6"/>
      <point x="864" y="32"/>
      <point x="864" y="59" type="curve" smooth="yes"/>
      <point x="864" y="71"/>
      <point x="860" y="83"/>
      <point x="849" y="93" type="curve" smooth="yes"/>
      <point x="409" y="526" type="line"/>
      <point x="829" y="916" type="line" smooth="yes"/>
      <point x="843" y="929"/>
      <point x="849" y="943"/>
      <point x="849" y="955" type="curve" smooth="yes"/>
      <point x="849" y="982"/>
      <point x="821" y="1004"/>
      <point x="795" y="1004" type="curve" smooth="yes"/>
      <point x="786" y="1004"/>
      <point x="777" y="1002"/>
      <point x="769" y="995" type="curve" smooth="yes"/>
      <point x="281" y="542" type="line"/>
      <point x="281" y="941" type="line" smooth="yes"/>
      <point x="281" y="980"/>
      <point x="252" y="999"/>
      <point x="224" y="999" type="curve" smooth="yes"/>
      <point x="196" y="999"/>
      <point x="165" y="980"/>
      <point x="165" y="941" type="curve" smooth="yes"/>
      <point x="165" y="59" type="line" smooth="yes"/>
      <point x="165" y="16"/>
      <point x="193" y="0"/>
    </contour>
  </outline>
</glyph>
<glyph name="lslash" format="1">
  <advance width="478"/>
  <unicode hex="0142"/>
  <outline>
    <contour>
      <point x="258" y="0" type="curve" smooth="yes"/>
      <point x="287" y="0"/>
      <point x="318" y="21"/>
      <point x="318" y="60" type="curve" smooth="yes"/>
      <point x="318" y="773.667" type="line"/>
      <point x="437" y="853" type="line" smooth="yes"/>
      <point x="449.639" y="860.583"/>
      <point x="454.899" y="872.744"/>
      <point x="454.899" y="885.67" type="curve" smooth="yes"/>
      <point x="454.899" y="912.204"/>
      <point x="432.734" y="941.962"/>
      <point x="406.727" y="941.962" type="curve" smooth="yes"/>
      <point x="400.294" y="941.962"/>
      <point x="393.626" y="940.141"/>
      <point x="387" y="936" type="curve" smooth="yes"/>
      <point x="318" y="889.755" type="line"/>
      <point x="318" y="1359" type="line" smooth="yes"/>
      <point x="318" y="1399"/>
      <point x="289" y="1418"/>
      <point x="262" y="1418" type="curve" smooth="yes"/>
      <point x="234" y="1418"/>
      <point x="203" y="1399"/>
      <point x="203" y="1359" type="curve" smooth="yes"/>
      <point x="203" y="812.681" type="line"/>
      <point x="105" y="747" type="line" smooth="yes"/>
      <point x="89.6383" y="737.06"/>
      <point x="83.2611" y="722.511"/>
      <point x="83.2611" y="707.956" type="curve" smooth="yes"/>
      <point x="83.2611" y="682.06"/>
      <point x="103.448" y="656.148"/>
      <point x="129.137" y="656.148" type="curve" smooth="yes"/>
      <point x="136.427" y="656.148"/>
      <point x="144.159" y="658.234"/>
      <point x="152" y="663" type="curve" smooth="yes"/>
      <point x="203" y="697" type="line"/>
      <point x="203" y="60" type="line" smooth="yes"/>
      <point x="203" y="17"/>
      <point x="229" y="0"/>
    </contour>
  </outline>
</glyph>
<glyph name="Eng" format="1">
  <advance width="1470"/>
  <unicode hex="014A"/>
  <outline>
    <component base="N" xOffset="3"/>
    <contour>
      <point x="635" y="-391" type="curve" smooth="yes"/>
      <point x="1061" y="-477"/>
      <point x="1294" y="-457"/>
      <point x="1294" y="49" type="curve" smooth="yes"/>
      <point x="1294" y="350" type="line"/>
      <point x="1154" y="353" type="line"/>
      <point x="1154" y="-7" type="line" smooth="yes"/>
      <point x="1154" y="-302"/>
      <point x="1078" y="-384"/>
      <point x="653" y="-271" type="curve" smooth="yes"/>
      <point x="566" y="-248"/>
      <point x="523" y="-369"/>
    </contour>
  </outline>
</glyph>
<glyph name="OE" format="1">
  <advance width="1999"/>
  <unicode hex="0152"/>
  <outline>
    <contour>
      <point x="718" y="-32" type="curve" smooth="yes"/>
      <point x="851" y="-32"/>
      <point x="1105" y="-1"/>
      <point x="1098" y="-1" type="curve" smooth="yes"/>
      <point x="1802" y="-1" type="line" smooth="yes"/>
      <point x="1841" y="-1"/>
      <point x="1862" y="25"/>
      <point x="1862" y="54" type="curve" smooth="yes"/>
      <point x="1862" y="84"/>
      <point x="1841" y="111"/>
      <point x="1802" y="111" type="curve" smooth="yes"/>
      <point x="1222" y="111" type="line"/>
      <point x="1222" y="676" type="line"/>
      <point x="1745" y="676" type="line" smooth="yes"/>
      <point x="1789" y="676"/>
      <point x="1810" y="704"/>
      <point x="1810" y="732" type="curve" smooth="yes"/>
      <point x="1810" y="762"/>
      <point x="1789" y="790"/>
      <point x="1745" y="790" type="curve" smooth="yes"/>
      <point x="1222" y="790" type="line"/>
      <point x="1222" y="1307" type="line"/>
      <point x="1773" y="1307" type="line" smooth="yes"/>
      <point x="1813" y="1307"/>
      <point x="1835" y="1335"/>
      <point x="1835" y="1363" type="curve" smooth="yes"/>
      <point x="1835" y="1394"/>
      <point x="1813" y="1419"/>
      <point x="1773" y="1419" type="curve" smooth="yes"/>
      <point x="1097" y="1419" type="line" smooth="yes"/>
      <point x="1099" y="1419"/>
      <point x="853" y="1449"/>
      <point x="718" y="1449" type="curve" smooth="yes"/>
      <point x="351" y="1449"/>
      <point x="127" y="1151"/>
      <point x="127" y="708" type="curve" smooth="yes"/>
      <point x="127" y="267"/>
      <point x="351" y="-32"/>
    </contour>
    <contour>
      <point x="719" y="82" type="curve"/>
      <point x="398" y="82"/>
      <point x="255" y="397"/>
      <point x="255" y="709" type="curve" smooth="yes"/>
      <point x="255" y="1020"/>
      <point x="397" y="1335"/>
      <point x="718" y="1335" type="curve" smooth="yes"/>
      <point x="966" y="1335"/>
      <point x="1099" y="1311"/>
      <point x="1097" y="1313" type="curve"/>
      <point x="1097" y="111" type="line"/>
      <point x="1099" y="111"/>
      <point x="951" y="85"/>
    </contour>
  </outline>
</glyph>
<glyph name="oe" format="1">
  <advance width="1825"/>
  <unicode hex="0153"/>
  <outline>
    <contour>
      <point x="1278" y="-30" type="curve" smooth="yes"/>
      <point x="1479" y="-30"/>
      <point x="1657" y="75"/>
      <point x="1657" y="161" type="curve" smooth="yes"/>
      <point x="1657" y="186"/>
      <point x="1638" y="205"/>
      <point x="1612" y="205" type="curve" smooth="yes"/>
      <point x="1600" y="205"/>
      <point x="1585" y="201"/>
      <point x="1568" y="188" type="curve" smooth="yes"/>
      <point x="1509" y="136"/>
      <point x="1412" y="83"/>
      <point x="1317" y="83" type="curve" smooth="yes"/>
      <point x="1093" y="83"/>
      <point x="1006" y="256"/>
      <point x="1003" y="465" type="curve"/>
      <point x="1654" y="465" type="line" smooth="yes"/>
      <point x="1698" y="465"/>
      <point x="1714" y="496"/>
      <point x="1714" y="525" type="curve" smooth="yes"/>
      <point x="1705" y="801"/>
      <point x="1581" y="1017"/>
      <point x="1286" y="1017" type="curve" smooth="yes"/>
      <point x="1117" y="1017"/>
      <point x="998" y="920"/>
      <point x="931" y="781" type="curve"/>
      <point x="860" y="919"/>
      <point x="735" y="1018"/>
      <point x="551" y="1018" type="curve" smooth="yes"/>
      <point x="236" y="1018"/>
      <point x="89" y="755"/>
      <point x="89" y="493" type="curve" smooth="yes"/>
      <point x="89" y="234"/>
      <point x="236" y="-30"/>
      <point x="551" y="-30" type="curve" smooth="yes"/>
      <point x="733" y="-30"/>
      <point x="858" y="71"/>
      <point x="928" y="212" type="curve"/>
      <point x="992" y="70"/>
      <point x="1110" y="-30"/>
    </contour>
    <contour>
      <point x="551" y="82" type="curve" smooth="yes"/>
      <point x="322" y="82"/>
      <point x="229" y="311"/>
      <point x="229" y="493" type="curve" smooth="yes"/>
      <point x="229" y="677"/>
      <point x="322" y="905"/>
      <point x="551" y="905" type="curve" smooth="yes"/>
      <point x="776" y="905"/>
      <point x="864" y="678"/>
      <point x="864" y="494" type="curve"/>
      <point x="866" y="313"/>
      <point x="771" y="82"/>
    </contour>
    <contour>
      <point x="1007" y="575" type="line"/>
      <point x="1018" y="747"/>
      <point x="1113" y="906"/>
      <point x="1287" y="906" type="curve" smooth="yes"/>
      <point x="1473" y="906"/>
      <point x="1564" y="763"/>
      <point x="1578" y="575" type="curve"/>
    </contour>
  </outline>
</glyph>
<glyph name="circumflex" format="1">
  <advance width="569"/>
  <unicode hex="02C6"/>
  <outline>
    <contour>
      <point x="294" y="1040" type="move" name="_top"/>
    </contour>
    <contour>
      <point x="56" y="1186" type="curve" smooth="yes"/>
      <point x="72" y="1186"/>
      <point x="95" y="1193"/>
      <point x="111" y="1217" type="curve"/>
      <point x="290" y="1456" type="line"/>
      <point x="467" y="1217" type="line" smooth="yes"/>
      <point x="486" y="1197"/>
      <point x="504" y="1187"/>
      <point x="522" y="1187" type="curve" smooth="yes"/>
      <point x="550" y="1187"/>
      <point x="571" y="1207"/>
      <point x="571" y="1236" type="curve" smooth="yes"/>
      <point x="571" y="1250"/>
      <point x="565" y="1263"/>
      <point x="555" y="1277" type="curve" smooth="yes"/>
      <point x="368" y="1548" type="line" smooth="yes"/>
      <point x="343" y="1582"/>
      <point x="318" y="1596"/>
      <point x="289" y="1596" type="curve" smooth="yes"/>
      <point x="257" y="1596"/>
      <point x="230" y="1579"/>
      <point x="210" y="1548" type="curve"/>
      <point x="22" y="1277" type="line" smooth="yes"/>
      <point x="11" y="1263"/>
      <point x="9" y="1249"/>
      <point x="9" y="1235" type="curve" smooth="yes"/>
      <point x="9" y="1206"/>
      <point x="28" y="1186"/>
    </contour>
  </outline>
</glyph>
<glyph name="caron" format="1">
  <advance width="569"/>
  <unicode hex="02C7"/>
  <outline>
    <contour>
      <point x="298" y="1040" type="move" name="_top"/>
    </contour>
    <contour>
      <point x="285" y="1114" type="curve" smooth="yes"/>
      <point x="312" y="1114"/>
      <point x="341" y="1127"/>
      <point x="364" y="1161" type="curve" smooth="yes"/>
      <point x="551" y="1432" type="line" smooth="yes"/>
      <point x="561" y="1446"/>
      <point x="566" y="1460"/>
      <point x="566" y="1474" type="curve" smooth="yes"/>
      <point x="566" y="1502"/>
      <point x="543" y="1524"/>
      <point x="515" y="1524" type="curve" smooth="yes"/>
      <point x="498" y="1524"/>
      <point x="480" y="1516"/>
      <point x="463" y="1493" type="curve" smooth="yes"/>
      <point x="285" y="1254" type="line"/>
      <point x="107" y="1493" type="line" smooth="yes"/>
      <point x="90" y="1515"/>
      <point x="72" y="1524"/>
      <point x="54" y="1524" type="curve" smooth="yes"/>
      <point x="27" y="1524"/>
      <point x="4" y="1501"/>
      <point x="4" y="1473" type="curve" smooth="yes"/>
      <point x="4" y="1462"/>
      <point x="7" y="1447"/>
      <point x="18" y="1432" type="curve" smooth="yes"/>
      <point x="206" y="1161" type="line"/>
      <point x="226" y="1129"/>
      <point x="257" y="1114"/>
    </contour>
  </outline>
</glyph>
<glyph name="breve" format="1">
  <advance width="569"/>
  <unicode hex="02D8"/>
  <outline>
    <contour>
      <point x="285" y="1040" type="move" name="_top"/>
    </contour>
    <contour>
      <point x="285" y="1262" type="curve" smooth="yes"/>
      <point x="408" y="1262"/>
      <point x="498" y="1316"/>
      <point x="539" y="1407" type="curve" smooth="yes"/>
      <point x="542" y="1414"/>
      <point x="544" y="1420"/>
      <point x="544" y="1426" type="curve" smooth="yes"/>
      <point x="544" y="1450"/>
      <point x="525" y="1464"/>
      <point x="501" y="1464" type="curve" smooth="yes"/>
      <point x="485" y="1464"/>
      <point x="473" y="1456"/>
      <point x="462" y="1444" type="curve"/>
      <point x="415" y="1382"/>
      <point x="375" y="1360"/>
      <point x="285" y="1360" type="curve" smooth="yes"/>
      <point x="194" y="1360"/>
      <point x="153" y="1382"/>
      <point x="108" y="1444" type="curve"/>
      <point x="98" y="1456"/>
      <point x="83" y="1464"/>
      <point x="69" y="1464" type="curve" smooth="yes"/>
      <point x="45" y="1464"/>
      <point x="26" y="1450"/>
      <point x="26" y="1426" type="curve" smooth="yes"/>
      <point x="26" y="1420"/>
      <point x="28" y="1414"/>
      <point x="31" y="1407" type="curve" smooth="yes"/>
      <point x="72" y="1316"/>
      <point x="162" y="1262"/>
    </contour>
  </outline>
</glyph>
<glyph name="dotaccent" format="1">
  <advance width="572"/>
  <unicode hex="02D9"/>
  <outline>
    <contour>
      <point x="282" y="1023" type="move" name="_top"/>
    </contour>
    <contour>
      <point x="273" y="1197" type="curve" smooth="yes"/>
      <point x="336" y="1197"/>
      <point x="370" y="1237"/>
      <point x="370" y="1283" type="curve" smooth="yes"/>
      <point x="370" y="1323"/>
      <point x="336" y="1367"/>
      <point x="273" y="1367" type="curve" smooth="yes"/>
      <point x="210" y="1367"/>
      <point x="178" y="1323"/>
      <point x="178" y="1283" type="curve" smooth="yes"/>
      <point x="178" y="1237"/>
      <point x="210" y="1197"/>
    </contour>
  </outline>
</glyph>
<glyph name="ring" format="1">
  <advance width="569"/>
  <unicode hex="02DA"/>
  <outline>
    <contour>
      <point x="285" y="1040" type="move" name="_top"/>
    </contour>
    <contour>
      <point x="285" y="1249" type="curve" smooth="yes"/>
      <point x="213" y="1249"/>
      <point x="172" y="1290"/>
      <point x="172" y="1358" type="curve" smooth="yes"/>
      <point x="172" y="1426"/>
      <point x="213" y="1466"/>
      <point x="285" y="1466" type="curve" smooth="yes"/>
      <point x="357" y="1466"/>
      <point x="398" y="1426"/>
      <point x="398" y="1358" type="curve" smooth="yes"/>
      <point x="398" y="1290"/>
      <point x="357" y="1249"/>
    </contour>
    <contour>
      <point x="285" y="1186" type="curve" smooth="yes"/>
      <point x="398" y="1186"/>
      <point x="464" y="1249"/>
      <point x="464" y="1358" type="curve" smooth="yes"/>
      <point x="464" y="1466"/>
      <point x="398" y="1528"/>
      <point x="285" y="1528" type="curve" smooth="yes"/>
      <point x="170" y="1528"/>
      <point x="105" y="1466"/>
      <point x="105" y="1358" type="curve" smooth="yes"/>
      <point x="105" y="1249"/>
      <point x="170" y="1186"/>
    </contour>
  </outline>
</glyph>
<glyph name="tilde" format="1">
  <advance width="569"/>
  <unicode hex="02DC"/>
  <outline>
    <contour>
      <point x="293" y="1040" type="move" name="_top"/>
    </contour>
    <contour>
      <point x="37" y="1174" type="curve" smooth="yes"/>
      <point x="54" y="1174"/>
      <point x="71" y="1182"/>
      <point x="86" y="1199" type="curve" smooth="yes"/>
      <point x="111" y="1227"/>
      <point x="136" y="1235"/>
      <point x="163" y="1235" type="curve" smooth="yes"/>
      <point x="233" y="1235"/>
      <point x="319" y="1173"/>
      <point x="390" y="1173" type="curve" smooth="yes"/>
      <point x="477" y="1173"/>
      <point x="530" y="1228"/>
      <point x="555" y="1290" type="curve" smooth="yes"/>
      <point x="556" y="1290"/>
      <point x="564" y="1291"/>
      <point x="572" y="1296" type="curve"/>
      <point x="574" y="1323"/>
      <point x="558" y="1341"/>
      <point x="531" y="1342" type="curve" smooth="yes"/>
      <point x="501" y="1346"/>
      <point x="455" y="1278"/>
      <point x="409" y="1278" type="curve" smooth="yes"/>
      <point x="344" y="1278"/>
      <point x="261" y="1336"/>
      <point x="176" y="1336" type="curve" smooth="yes"/>
      <point x="92" y="1336"/>
      <point x="40" y="1288"/>
      <point x="9" y="1222" type="curve" smooth="yes"/>
      <point x="6" y="1215"/>
      <point x="5" y="1209"/>
      <point x="5" y="1202" type="curve" smooth="yes"/>
      <point x="5" y="1183"/>
      <point x="20" y="1174"/>
    </contour>
  </outline>
</glyph>
<glyph name="hungarumlaut" format="1">
  <advance width="569"/>
  <unicode hex="02DD"/>
  <outline>
    <contour>
      <point x="174" y="1040" type="move" name="_top"/>
    </contour>
    <contour>
      <point x="32" y="1100" type="curve" smooth="yes"/>
      <point x="42" y="1100"/>
      <point x="56" y="1103"/>
      <point x="70" y="1115" type="curve" smooth="yes"/>
      <point x="396" y="1357" type="line" smooth="yes"/>
      <point x="409" y="1366"/>
      <point x="414" y="1379"/>
      <point x="414" y="1393" type="curve" smooth="yes"/>
      <point x="414" y="1432"/>
      <point x="377" y="1470"/>
      <point x="338" y="1470" type="curve" smooth="yes"/>
      <point x="323" y="1470"/>
      <point x="310" y="1463"/>
      <point x="297" y="1452" type="curve" smooth="yes"/>
      <point x="18" y="1159" type="line" smooth="yes"/>
      <point x="7" y="1148"/>
      <point x="4" y="1139"/>
      <point x="4" y="1128" type="curve" smooth="yes"/>
      <point x="4" y="1112"/>
      <point x="14" y="1100"/>
    </contour>
    <contour>
      <point x="309" y="1100" type="curve" smooth="yes"/>
      <point x="318" y="1100"/>
      <point x="330" y="1103"/>
      <point x="344" y="1115" type="curve" smooth="yes"/>
      <point x="670" y="1357" type="line" smooth="yes"/>
      <point x="684" y="1366"/>
      <point x="690" y="1380"/>
      <point x="690" y="1395" type="curve" smooth="yes"/>
      <point x="690" y="1432"/>
      <point x="651" y="1470"/>
      <point x="612" y="1470" type="curve" smooth="yes"/>
      <point x="597" y="1470"/>
      <point x="584" y="1463"/>
      <point x="571" y="1452" type="curve" smooth="yes"/>
      <point x="292" y="1159" type="line" smooth="yes"/>
      <point x="282" y="1148"/>
      <point x="280" y="1139"/>
      <point x="280" y="1128" type="curve" smooth="yes"/>
      <point x="280" y="1113"/>
      <point x="290" y="1100"/>
    </contour>
  </outline>
</glyph>
<glyph name="uni0307" format="1">
  <advance width="600"/>
  <unicode hex="0307"/>
  <outline>
    <contour>
      <point x="322" y="436" type="curve" smooth="yes"/>
      <point x="384" y="436"/>
      <point x="416" y="478"/>
      <point x="416" y="521" type="curve" smooth="yes"/>
      <point x="416" y="561"/>
      <point x="385" y="604"/>
      <point x="322" y="604" type="curve" smooth="yes"/>
      <point x="257" y="604"/>
      <point x="226" y="562"/>
      <point x="226" y="521" type="curve" smooth="yes"/>
      <point x="226" y="478"/>
      <point x="258" y="436"/>
    </contour>
  </outline>
</glyph>
<glyph name="dblgravecmb" format="1">
  <advance width="569"/>
  <unicode hex="030F"/>
  <outline>
    <contour>
      <point x="489" y="1022" type="move" name="_top"/>
    </contour>
    <contour>
      <point x="314" y="1119" type="curve" smooth="yes"/>
      <point x="334" y="1119"/>
      <point x="343" y="1132"/>
      <point x="343" y="1146" type="curve" smooth="yes"/>
      <point x="343" y="1155"/>
      <point x="343" y="1163"/>
      <point x="335" y="1171" type="curve" smooth="yes"/>
      <point x="43" y="1477" type="line" smooth="yes"/>
      <point x="30" y="1487"/>
      <point x="21" y="1487"/>
      <point x="9" y="1487" type="curve" smooth="yes"/>
      <point x="-31" y="1487"/>
      <point x="-68" y="1446"/>
      <point x="-68" y="1411" type="curve" smooth="yes"/>
      <point x="-68" y="1398"/>
      <point x="-62" y="1385"/>
      <point x="-48" y="1375" type="curve" smooth="yes"/>
      <point x="283" y="1129" type="line" smooth="yes"/>
      <point x="297" y="1120"/>
      <point x="305" y="1119"/>
    </contour>
    <contour>
      <point x="587" y="1119" type="curve" smooth="yes"/>
      <point x="606" y="1119"/>
      <point x="618" y="1131"/>
      <point x="616" y="1149" type="curve" smooth="yes"/>
      <point x="615" y="1156"/>
      <point x="614" y="1164"/>
      <point x="606" y="1172" type="curve" smooth="yes"/>
      <point x="315" y="1479" type="line" smooth="yes"/>
      <point x="303" y="1488"/>
      <point x="295" y="1487"/>
      <point x="283" y="1487" type="curve" smooth="yes"/>
      <point x="244" y="1487"/>
      <point x="206" y="1449"/>
      <point x="206" y="1412" type="curve" smooth="yes"/>
      <point x="206" y="1400"/>
      <point x="211" y="1385"/>
      <point x="225" y="1375" type="curve" smooth="yes"/>
      <point x="560" y="1126" type="line" smooth="yes"/>
      <point x="572" y="1117"/>
      <point x="579" y="1119"/>
    </contour>
  </outline>
</glyph>
<glyph name="commaaccent" format="1">
  <advance width="571"/>
  <unicode hex="0326"/>
  <outline>
    <contour>
      <point x="299" y="0" type="move" name="_bot"/>
    </contour>
    <contour>
      <point x="162" y="-579" type="curve"/>
      <point x="166" y="-579" type="line"/>
      <point x="195" y="-580"/>
      <point x="211" y="-568"/>
      <point x="222" y="-536" type="curve" smooth="yes"/>
      <point x="343" y="-160" type="line" smooth="yes"/>
      <point x="348" y="-146"/>
      <point x="351" y="-107"/>
      <point x="309" y="-104" type="curve"/>
      <point x="271" y="-104" type="line"/>
      <point x="239" y="-105"/>
      <point x="206" y="-113"/>
      <point x="198" y="-160" type="curve" smooth="yes"/>
      <point x="138" y="-536" type="line" smooth="yes"/>
      <point x="136" y="-548"/>
      <point x="134" y="-578"/>
    </contour>
  </outline>
</glyph>
<glyph name="Delta" format="1">
  <advance width="1156"/>
  <unicode hex="0394"/>
  <outline>
    <contour>
      <point x="-2" y="0" type="line"/>
      <point x="1159" y="0" type="line"/>
      <point x="617" y="1389" type="line" smooth="yes"/>
      <point x="599" y="1438"/>
      <point x="565" y="1440"/>
      <point x="542" y="1389" type="curve" smooth="yes"/>
    </contour>
    <contour>
      <point x="141" y="74" type="line"/>
      <point x="579" y="1244" type="line"/>
      <point x="1021" y="74" type="line"/>
    </contour>
  </outline>
</glyph>
<glyph name="Delta" format="1">
  <advance width="1135"/>
  <unicode hex="0394"/>
  <outline>
    <contour>
      <point x="-5" y="0" type="line"/>
      <point x="1142" y="0" type="line"/>
      <point x="593" y="1391" type="line" smooth="yes"/>
      <point x="580" y="1430"/>
      <point x="566" y="1434"/>
      <point x="546" y="1391" type="curve" smooth="yes"/>
    </contour>
    <contour>
      <point x="122" y="65" type="line"/>
      <point x="570" y="1248" type="line"/>
      <point x="1020" y="65" type="line"/>
    </contour>
  </outline>
</glyph>
<glyph name="Sigma" format="1">
  <advance width="1355"/>
  <unicode hex="03A3"/>
  <outline>
    <contour>
      <point x="195" y="-63" type="curve" smooth="yes"/>
      <point x="1160" y="-63" type="line" smooth="yes"/>
      <point x="1188" y="-63"/>
      <point x="1201" y="-34"/>
      <point x="1201" y="-5" type="curve" smooth="yes"/>
      <point x="1201" y="25"/>
      <point x="1187" y="55"/>
      <point x="1160" y="55" type="curve" smooth="yes"/>
      <point x="274" y="55" type="line"/>
      <point x="792" y="594" type="line" smooth="yes"/>
      <point x="825" y="630"/>
      <point x="840" y="655"/>
      <point x="840" y="679" type="curve" smooth="yes"/>
      <point x="840" y="705"/>
      <point x="823" y="729"/>
      <point x="792" y="764" type="curve" smooth="yes"/>
      <point x="275" y="1306" type="line"/>
      <point x="1160" y="1306" type="line" smooth="yes"/>
      <point x="1187" y="1306"/>
      <point x="1201" y="1336"/>
      <point x="1201" y="1366" type="curve" smooth="yes"/>
      <point x="1201" y="1395"/>
      <point x="1188" y="1424"/>
      <point x="1160" y="1424" type="curve" smooth="yes"/>
      <point x="218" y="1424" type="line" smooth="yes"/>
      <point x="179" y="1424"/>
      <point x="137" y="1387"/>
      <point x="137" y="1335" type="curve" smooth="yes"/>
      <point x="137" y="1308"/>
      <point x="149" y="1277"/>
      <point x="177" y="1245" type="curve" smooth="yes"/>
      <point x="710" y="686" type="line"/>
      <point x="177" y="106" type="line" smooth="yes"/>
      <point x="145" y="70"/>
      <point x="133" y="37"/>
      <point x="133" y="10" type="curve" smooth="yes"/>
      <point x="133" y="-35"/>
      <point x="166" y="-63"/>
    </contour>
  </outline>
</glyph>
<glyph name="uni03BC" format="1">
  <advance width="1129"/>
  <unicode hex="03BC"/>
  <outline>
    <contour>
      <point x="211" y="-264" type="curve" smooth="yes"/>
      <point x="227" y="-264"/>
      <point x="270" y="-256"/>
      <point x="270" y="-223" type="curve" smooth="yes"/>
      <point x="270" y="500" type="line"/>
      <point x="157" y="500" type="line"/>
      <point x="157" y="-223" type="line" smooth="yes"/>
      <point x="157" y="-253"/>
      <point x="191" y="-264"/>
    </contour>
    <component base="u"/>
  </outline>
</glyph>
<glyph name="uni03BC" format="1">
  <advance width="1136"/>
  <unicode hex="03BC"/>
  <outline>
    <component base="u"/>
    <contour>
      <point x="215" y="-266" type="curve" smooth="yes"/>
      <point x="240" y="-266"/>
      <point x="282" y="-251"/>
      <point x="282" y="-212" type="curve" smooth="yes"/>
      <point x="282" y="501" type="line"/>
      <point x="153" y="501" type="line"/>
      <point x="153" y="-212" type="line" smooth="yes"/>
      <point x="153" y="-250"/>
      <point x="189" y="-266"/>
    </contour>
  </outline>
</glyph>
<glyph name="pi" format="1">
  <advance width="1163"/>
  <unicode hex="03C0"/>
  <outline>
    <contour>
      <point x="942" y="-25" type="curve" smooth="yes"/>
      <point x="1055" y="0"/>
      <point x="938" y="40"/>
      <point x="938" y="256" type="curve" smooth="yes"/>
      <point x="938" y="943" type="line"/>
      <point x="1012" y="943" type="line" smooth="yes"/>
      <point x="1055" y="943"/>
      <point x="1076" y="970"/>
      <point x="1076" y="1001" type="curve" smooth="yes"/>
      <point x="1076" y="1029"/>
      <point x="1055" y="1059"/>
      <point x="1012" y="1059" type="curve" smooth="yes"/>
      <point x="215" y="1059" type="line" smooth="yes"/>
      <point x="160" y="1059"/>
      <point x="134" y="1029"/>
      <point x="134" y="1001" type="curve" smooth="yes"/>
      <point x="134" y="970"/>
      <point x="160" y="943"/>
      <point x="215" y="943" type="curve" smooth="yes"/>
      <point x="284" y="943" type="line"/>
      <point x="284" y="554"/>
      <point x="199" y="234"/>
      <point x="134" y="56" type="curve" smooth="yes"/>
      <point x="97" y="-46"/>
      <point x="213" y="-82"/>
      <point x="253" y="12" type="curve" smooth="yes"/>
      <point x="330" y="201"/>
      <point x="401" y="669"/>
      <point x="414" y="943" type="curve"/>
      <point x="801" y="943" type="line"/>
      <point x="801" y="240" type="line" smooth="yes"/>
      <point x="801" y="120"/>
      <point x="811" y="-51"/>
    </contour>
  </outline>
</glyph>
<glyph name="quoteright" format="1">
  <advance width="572"/>
  <unicode hex="2019"/>
  <outline>
    <contour>
      <point x="212" y="1054" type="curve" smooth="yes"/>
      <point x="238" y="1054" type="line" smooth="yes"/>
      <point x="267" y="1054"/>
      <point x="280" y="1065"/>
      <point x="294" y="1097" type="curve" smooth="yes"/>
      <point x="410" y="1365" type="line" smooth="yes"/>
      <point x="417" y="1379"/>
      <point x="418" y="1421"/>
      <point x="376" y="1421" type="curve" smooth="yes"/>
      <point x="308" y="1421" type="line" smooth="yes"/>
      <point x="276" y="1420"/>
      <point x="243" y="1412"/>
      <point x="235" y="1365" type="curve" smooth="yes"/>
      <point x="188" y="1097" type="line" smooth="yes"/>
      <point x="186" y="1085"/>
      <point x="184" y="1054"/>
    </contour>
  </outline>
</glyph>
<glyph name="quotedblleft" format="1">
  <advance width="1140"/>
  <unicode hex="201C"/>
  <outline>
    <contour>
      <point x="305" y="1054" type="curve" smooth="yes"/>
      <point x="373" y="1054" type="line" smooth="yes"/>
      <point x="405" y="1055"/>
      <point x="438" y="1063"/>
      <point x="446" y="1110" type="curve" smooth="yes"/>
      <point x="494" y="1378" type="line" smooth="yes"/>
      <point x="496" y="1390"/>
      <point x="498" y="1421"/>
      <point x="470" y="1421" type="curve" smooth="yes"/>
      <point x="444" y="1421" type="line" smooth="yes"/>
      <point x="415" y="1421"/>
      <point x="401" y="1410"/>
      <point x="388" y="1378" type="curve" smooth="yes"/>
      <point x="271" y="1110" type="line" smooth="yes"/>
      <point x="265" y="1096"/>
      <point x="263" y="1054"/>
    </contour>
    <contour>
      <point x="646" y="1054" type="curve" smooth="yes"/>
      <point x="714" y="1054" type="line" smooth="yes"/>
      <point x="746" y="1055"/>
      <point x="779" y="1063"/>
      <point x="787" y="1110" type="curve" smooth="yes"/>
      <point x="835" y="1378" type="line" smooth="yes"/>
      <point x="837" y="1390"/>
      <point x="839" y="1421"/>
      <point x="811" y="1421" type="curve" smooth="yes"/>
      <point x="785" y="1421" type="line" smooth="yes"/>
      <point x="756" y="1421"/>
      <point x="743" y="1410"/>
      <point x="729" y="1378" type="curve" smooth="yes"/>
      <point x="612" y="1110" type="line" smooth="yes"/>
      <point x="606" y="1096"/>
      <point x="604" y="1054"/>
    </contour>
  </outline>
</glyph>
<glyph name="quotedblright" format="1">
  <advance width="1140"/>
  <unicode hex="201D"/>
  <outline>
    <contour>
      <point x="300" y="1052" type="curve" smooth="yes"/>
      <point x="326" y="1052" type="line"/>
      <point x="355" y="1053"/>
      <point x="368" y="1063"/>
      <point x="382" y="1095" type="curve" smooth="yes"/>
      <point x="498" y="1365" type="line" smooth="yes"/>
      <point x="505" y="1379"/>
      <point x="506" y="1422"/>
      <point x="464" y="1421" type="curve"/>
      <point x="396" y="1421" type="line"/>
      <point x="364" y="1420"/>
      <point x="331" y="1412"/>
      <point x="323" y="1365" type="curve" smooth="yes"/>
      <point x="276" y="1095" type="line" smooth="yes"/>
      <point x="274" y="1083"/>
      <point x="272" y="1052"/>
    </contour>
    <contour>
      <point x="646" y="1052" type="curve" smooth="yes"/>
      <point x="672" y="1052" type="line"/>
      <point x="701" y="1053"/>
      <point x="714" y="1063"/>
      <point x="728" y="1095" type="curve" smooth="yes"/>
      <point x="845" y="1365" type="line" smooth="yes"/>
      <point x="851" y="1379"/>
      <point x="853" y="1422"/>
      <point x="811" y="1421" type="curve"/>
      <point x="743" y="1421" type="line"/>
      <point x="711" y="1420"/>
      <point x="678" y="1412"/>
      <point x="670" y="1365" type="curve" smooth="yes"/>
      <point x="622" y="1095" type="line" smooth="yes"/>
      <point x="620" y="1083"/>
      <point x="618" y="1052"/>
    </contour>
  </outline>
</glyph>
<glyph name="quotedblbase" format="1">
  <advance width="1137"/>
  <unicode hex="201E"/>
  <outline>
    <contour>
      <point x="312" y="-212" type="curve"/>
      <point x="330" y="-212" type="line"/>
      <point x="359" y="-213"/>
      <point x="372" y="-201"/>
      <point x="386" y="-169" type="curve" smooth="yes"/>
      <point x="493" y="72" type="line" smooth="yes"/>
      <point x="500" y="86"/>
      <point x="501" y="125"/>
      <point x="459" y="128" type="curve"/>
      <point x="403" y="128" type="line"/>
      <point x="371" y="127"/>
      <point x="338" y="119"/>
      <point x="330" y="72" type="curve" smooth="yes"/>
      <point x="288" y="-169" type="line" smooth="yes"/>
      <point x="286" y="-181"/>
      <point x="284" y="-211"/>
    </contour>
    <contour>
      <point x="687" y="-212" type="curve"/>
      <point x="705" y="-212" type="line"/>
      <point x="734" y="-213"/>
      <point x="746" y="-201"/>
      <point x="761" y="-169" type="curve" smooth="yes"/>
      <point x="868" y="72" type="line" smooth="yes"/>
      <point x="875" y="86"/>
      <point x="876" y="125"/>
      <point x="834" y="128" type="curve"/>
      <point x="778" y="128" type="line"/>
      <point x="746" y="127"/>
      <point x="713" y="119"/>
      <point x="705" y="72" type="curve" smooth="yes"/>
      <point x="663" y="-169" type="line" smooth="yes"/>
      <point x="661" y="-181"/>
      <point x="659" y="-211"/>
    </contour>
  </outline>
</glyph>
<glyph name="ellipsis" format="1">
  <advance width="1714"/>
  <unicode hex="2026"/>
  <outline>
    <contour>
      <point x="286" y="0" type="curve" smooth="yes"/>
      <point x="348" y="0"/>
      <point x="380" y="43"/>
      <point x="380" y="85" type="curve" smooth="yes"/>
      <point x="380" y="123"/>
      <point x="350" y="168"/>
      <point x="286" y="168" type="curve" smooth="yes"/>
      <point x="223" y="168"/>
      <point x="190" y="125"/>
      <point x="190" y="85" type="curve" smooth="yes"/>
      <point x="190" y="43"/>
      <point x="221" y="0"/>
    </contour>
    <contour>
      <point x="857" y="0" type="curve" smooth="yes"/>
      <point x="920" y="0"/>
      <point x="951" y="43"/>
      <point x="951" y="85" type="curve" smooth="yes"/>
      <point x="951" y="122"/>
      <point x="922" y="168"/>
      <point x="857" y="168" type="curve" smooth="yes"/>
      <point x="794" y="168"/>
      <point x="761" y="125"/>
      <point x="761" y="85" type="curve" smooth="yes"/>
      <point x="761" y="43"/>
      <point x="792" y="0"/>
    </contour>
    <contour>
      <point x="1427" y="0" type="curve" smooth="yes"/>
      <point x="1491" y="0"/>
      <point x="1522" y="43"/>
      <point x="1522" y="85" type="curve" smooth="yes"/>
      <point x="1522" y="123"/>
      <point x="1493" y="168"/>
      <point x="1427" y="168" type="curve" smooth="yes"/>
      <point x="1364" y="168"/>
      <point x="1333" y="125"/>
      <point x="1333" y="85" type="curve" smooth="yes"/>
      <point x="1333" y="43"/>
      <point x="1364" y="0"/>
    </contour>
  </outline>
</glyph>
<glyph name="guilsinglleft" format="1">
  <advance width="565"/>
  <unicode hex="2039"/>
  <outline>
    <contour>
      <point x="373" y="146" type="curve" smooth="yes"/>
      <point x="396" y="146"/>
      <point x="412" y="161"/>
      <point x="412" y="185" type="curve" smooth="yes"/>
      <point x="412" y="193"/>
      <point x="410" y="200"/>
      <point x="408" y="206" type="curve" smooth="yes"/>
      <point x="247" y="548" type="line"/>
      <point x="408" y="890" type="line" smooth="yes"/>
      <point x="412" y="897"/>
      <point x="412" y="904"/>
      <point x="412" y="909" type="curve" smooth="yes"/>
      <point x="412" y="933"/>
      <point x="396" y="950"/>
      <point x="373" y="950" type="curve" smooth="yes"/>
      <point x="354" y="950"/>
      <point x="333" y="938"/>
      <point x="320" y="912" type="curve" smooth="yes"/>
      <point x="122" y="548" type="line"/>
      <point x="320" y="184" type="line" smooth="yes"/>
      <point x="336" y="155"/>
      <point x="354" y="146"/>
    </contour>
  </outline>
</glyph>
<glyph name="fraction" format="1">
  <advance width="573"/>
  <unicode hex="2044"/>
  <outline>
    <contour>
      <point x="38" y="-77" type="curve" smooth="yes"/>
      <point x="64" y="-77"/>
      <point x="90" y="-63"/>
      <point x="100" y="-31" type="curve" smooth="yes"/>
      <point x="592" y="1448" type="line" smooth="yes"/>
      <point x="594" y="1458"/>
      <point x="596" y="1466"/>
      <point x="596" y="1472" type="curve" smooth="yes"/>
      <point x="596" y="1510"/>
      <point x="565" y="1531"/>
      <point x="531" y="1531" type="curve" smooth="yes"/>
      <point x="505" y="1531"/>
      <point x="478" y="1517"/>
      <point x="468" y="1485" type="curve" smooth="yes"/>
      <point x="-19" y="7" type="line" smooth="yes"/>
      <point x="-22" y="-4"/>
      <point x="-24" y="-12"/>
      <point x="-24" y="-19" type="curve" smooth="yes"/>
      <point x="-24" y="-56"/>
      <point x="6" y="-77"/>
    </contour>
  </outline>
</glyph>
<glyph name="foursuperior" format="1">
  <advance width="706"/>
  <unicode hex="2074"/>
  <outline>
    <contour>
      <point x="474" y="548" type="curve" smooth="yes"/>
      <point x="494" y="548"/>
      <point x="513" y="561"/>
      <point x="513" y="585" type="curve" smooth="yes"/>
      <point x="513" y="741" type="line"/>
      <point x="618" y="741" type="line" smooth="yes"/>
      <point x="640" y="741"/>
      <point x="649" y="755"/>
      <point x="649" y="771" type="curve" smooth="yes"/>
      <point x="649" y="788"/>
      <point x="637" y="801"/>
      <point x="618" y="801" type="curve" smooth="yes"/>
      <point x="513" y="801" type="line"/>
      <point x="513" y="1335" type="line" smooth="yes"/>
      <point x="513" y="1373"/>
      <point x="486" y="1388"/>
      <point x="455" y="1388" type="curve" smooth="yes"/>
      <point x="435" y="1388"/>
      <point x="410" y="1377"/>
      <point x="398" y="1359" type="curve" smooth="yes"/>
      <point x="41" y="826" type="line" smooth="yes"/>
      <point x="33" y="815"/>
      <point x="29" y="804"/>
      <point x="29" y="792" type="curve" smooth="yes"/>
      <point x="29" y="767"/>
      <point x="48" y="741"/>
      <point x="77" y="741" type="curve" smooth="yes"/>
      <point x="434" y="741" type="line"/>
      <point x="434" y="585" type="line" smooth="yes"/>
      <point x="434" y="561"/>
      <point x="453" y="548"/>
    </contour>
    <contour>
      <point x="96" y="803" type="line"/>
      <point x="434" y="1308" type="line"/>
      <point x="434" y="803" type="line"/>
    </contour>
  </outline>
</glyph>
<glyph name="Euro" format="1">
  <advance width="1367"/>
  <unicode hex="20AC"/>
  <outline>
    <component base="C" xOffset="43"/>
    <contour>
      <point x="51" y="505" type="curve" smooth="yes"/>
      <point x="951" y="505" type="line" smooth="yes"/>
      <point x="1016" y="505"/>
      <point x="1010" y="617"/>
      <point x="952" y="617" type="curve" smooth="yes"/>
      <point x="51" y="617" type="line" smooth="yes"/>
      <point x="-1" y="617"/>
      <point x="-7" y="505"/>
    </contour>
    <contour>
      <point x="51" y="733" type="curve" smooth="yes"/>
      <point x="951" y="733" type="line" smooth="yes"/>
      <point x="1016" y="733"/>
      <point x="1010" y="845"/>
      <point x="952" y="845" type="curve" smooth="yes"/>
      <point x="51" y="845" type="line" smooth="yes"/>
      <point x="-1" y="845"/>
      <point x="-7" y="733"/>
    </contour>
  </outline>
</glyph>
<glyph name="trademark" format="1">
  <advance width="1927"/>
  <unicode hex="2122"/>
  <outline>
    <contour>
      <point x="863" y="654" type="curve" smooth="yes"/>
      <point x="892" y="654"/>
      <point x="921" y="674"/>
      <point x="921" y="709" type="curve" smooth="yes"/>
      <point x="921" y="1191" type="line"/>
      <point x="1175" y="691" type="line"/>
      <point x="1185" y="668"/>
      <point x="1205" y="659"/>
      <point x="1224" y="659" type="curve" smooth="yes"/>
      <point x="1246" y="659"/>
      <point x="1264" y="671"/>
      <point x="1276" y="691" type="curve"/>
      <point x="1528" y="1191" type="line"/>
      <point x="1528" y="709" type="line" smooth="yes"/>
      <point x="1528" y="672"/>
      <point x="1556" y="654"/>
      <point x="1585" y="654" type="curve" smooth="yes"/>
      <point x="1614" y="654"/>
      <point x="1643" y="673"/>
      <point x="1643" y="709" type="curve" smooth="yes"/>
      <point x="1643" y="1262" type="line" smooth="yes"/>
      <point x="1643" y="1333"/>
      <point x="1604" y="1363"/>
      <point x="1556" y="1363" type="curve" smooth="yes"/>
      <point x="1522" y="1363"/>
      <point x="1489" y="1345"/>
      <point x="1462" y="1292" type="curve" smooth="yes"/>
      <point x="1226" y="830" type="line"/>
      <point x="989" y="1292" type="line"/>
      <point x="961" y="1344"/>
      <point x="926" y="1364"/>
      <point x="894" y="1364" type="curve" smooth="yes"/>
      <point x="846" y="1364"/>
      <point x="806" y="1333"/>
      <point x="806" y="1262" type="curve" smooth="yes"/>
      <point x="806" y="709" type="line" smooth="yes"/>
      <point x="806" y="674"/>
      <point x="834" y="654"/>
    </contour>
    <contour>
      <point x="356" y="656" type="curve" smooth="yes"/>
      <point x="385" y="656"/>
      <point x="415" y="673"/>
      <point x="415" y="710" type="curve" smooth="yes"/>
      <point x="415" y="1276" type="line"/>
      <point x="611" y="1276" type="line" smooth="yes"/>
      <point x="638" y="1276"/>
      <point x="651" y="1298"/>
      <point x="651" y="1319" type="curve" smooth="yes"/>
      <point x="651" y="1342"/>
      <point x="639" y="1364"/>
      <point x="611" y="1364" type="curve" smooth="yes"/>
      <point x="102" y="1364" type="line" smooth="yes"/>
      <point x="74" y="1364"/>
      <point x="61" y="1342"/>
      <point x="61" y="1320" type="curve" smooth="yes"/>
      <point x="61" y="1298"/>
      <point x="75" y="1276"/>
      <point x="102" y="1276" type="curve" smooth="yes"/>
      <point x="299" y="1276" type="line"/>
      <point x="299" y="710" type="line" smooth="yes"/>
      <point x="299" y="673"/>
      <point x="328" y="656"/>
    </contour>
  </outline>
</glyph>
<glyph name="radical" format="1">
  <advance width="1243"/>
  <unicode hex="221A"/>
  <outline>
    <contour>
      <point x="441" y="-160" type="curve" smooth="yes"/>
      <point x="483" y="-160"/>
      <point x="527" y="-151"/>
      <point x="540" y="-105" type="curve" smooth="yes"/>
      <point x="1116" y="1448" type="line" smooth="yes"/>
      <point x="1119" y="1456"/>
      <point x="1119" y="1458"/>
      <point x="1119" y="1465" type="curve" smooth="yes"/>
      <point x="1119" y="1494"/>
      <point x="1094" y="1515"/>
      <point x="1065" y="1515" type="curve" smooth="yes"/>
      <point x="1029" y="1515"/>
      <point x="1019" y="1495"/>
      <point x="1010" y="1475" type="curve" smooth="yes"/>
      <point x="442" y="-23" type="line"/>
      <point x="440" y="-24" type="line"/>
      <point x="196" y="508" type="line" smooth="yes"/>
      <point x="188" y="532"/>
      <point x="168" y="549"/>
      <point x="144" y="550" type="curve" smooth="yes"/>
      <point x="111" y="551"/>
      <point x="77" y="520"/>
      <point x="76" y="486" type="curve" smooth="yes"/>
      <point x="75" y="478"/>
      <point x="76" y="474"/>
      <point x="79" y="469" type="curve" smooth="yes"/>
      <point x="347" y="-98" type="line" smooth="yes"/>
      <point x="342" y="-152"/>
      <point x="406" y="-160"/>
    </contour>
  </outline>
</glyph>
<glyph name="infinity" format="1">
  <advance width="1591"/>
  <unicode hex="221E"/>
  <outline>
    <contour>
      <point x="410" y="271" type="curve" smooth="yes"/>
      <point x="577" y="271"/>
      <point x="690" y="393"/>
      <point x="798" y="517" type="curve"/>
      <point x="941" y="357"/>
      <point x="1045" y="271"/>
      <point x="1176" y="271" type="curve" smooth="yes"/>
      <point x="1336" y="271"/>
      <point x="1487" y="396"/>
      <point x="1487" y="593" type="curve" smooth="yes"/>
      <point x="1487" y="595" type="line" smooth="yes"/>
      <point x="1487" y="777"/>
      <point x="1365" y="903"/>
      <point x="1187" y="903" type="curve" smooth="yes"/>
      <point x="1017" y="903"/>
      <point x="912" y="778"/>
      <point x="804" y="655" type="curve"/>
      <point x="697" y="786"/>
      <point x="578" y="903"/>
      <point x="424" y="903" type="curve" smooth="yes"/>
      <point x="241" y="903"/>
      <point x="103" y="768"/>
      <point x="103" y="584" type="curve" smooth="yes"/>
      <point x="103" y="408"/>
      <point x="245" y="271"/>
    </contour>
    <contour>
      <point x="422" y="359" type="line" smooth="yes"/>
      <point x="285" y="359"/>
      <point x="202" y="461"/>
      <point x="202" y="587" type="curve" smooth="yes"/>
      <point x="202" y="710"/>
      <point x="276" y="819"/>
      <point x="407" y="819" type="curve" smooth="yes"/>
      <point x="559" y="819"/>
      <point x="656" y="693"/>
      <point x="748" y="582" type="curve"/>
      <point x="661" y="492"/>
      <point x="558" y="359"/>
      <point x="423" y="359" type="curve" smooth="yes"/>
    </contour>
    <contour>
      <point x="1184" y="359" type="curve" smooth="yes"/>
      <point x="1071" y="359"/>
      <point x="990" y="440"/>
      <point x="853" y="590" type="curve"/>
      <point x="925" y="664"/>
      <point x="1038" y="819"/>
      <point x="1179" y="819" type="curve" smooth="yes"/>
      <point x="1182" y="819" type="line" smooth="yes"/>
      <point x="1300" y="819"/>
      <point x="1392" y="732"/>
      <point x="1392" y="587" type="curve" smooth="yes"/>
      <point x="1392" y="474"/>
      <point x="1318" y="359"/>
    </contour>
  </outline>
</glyph>
<glyph name="lessequal" format="1">
  <advance width="1157"/>
  <unicode hex="2264"/>
  <outline>
    <contour>
      <point x="1029" y="192" type="curve" smooth="yes"/>
      <point x="1062" y="192"/>
      <point x="1083" y="223"/>
      <point x="1083" y="251" type="curve" smooth="yes"/>
      <point x="1083" y="272"/>
      <point x="1076" y="288"/>
      <point x="1051" y="299" type="curve" smooth="yes"/>
      <point x="223" y="672" type="line"/>
      <point x="1049" y="1023" type="line" smooth="yes"/>
      <point x="1073" y="1034"/>
      <point x="1083" y="1054"/>
      <point x="1083" y="1072" type="curve" smooth="yes"/>
      <point x="1083" y="1103"/>
      <point x="1061" y="1132"/>
      <point x="1025" y="1132" type="curve" smooth="yes"/>
      <point x="1017" y="1132"/>
      <point x="1009" y="1130"/>
      <point x="1001" y="1127" type="curve" smooth="yes"/>
      <point x="101" y="740" type="line" smooth="yes"/>
      <point x="63" y="722"/>
      <point x="46" y="699"/>
      <point x="46" y="673" type="curve" smooth="yes"/>
      <point x="46" y="645"/>
      <point x="61" y="623"/>
      <point x="97" y="608" type="curve"/>
      <point x="1003" y="199" type="line" smooth="yes"/>
      <point x="1011" y="194"/>
      <point x="1020" y="192"/>
    </contour>
    <contour>
      <point x="154" y="18" type="curve" smooth="yes"/>
      <point x="1003" y="18" type="line" smooth="yes"/>
      <point x="1034" y="18"/>
      <point x="1050" y="42"/>
      <point x="1050" y="65" type="curve" smooth="yes"/>
      <point x="1050" y="88"/>
      <point x="1035" y="111"/>
      <point x="1003" y="111" type="curve" smooth="yes"/>
      <point x="154" y="111" type="line" smooth="yes"/>
      <point x="122" y="111"/>
      <point x="106" y="88"/>
      <point x="106" y="64" type="curve" smooth="yes"/>
      <point x="106" y="42"/>
      <point x="123" y="18"/>
    </contour>
  </outline>
</glyph>
<glyph name="greaterequal" format="1">
  <advance width="1162"/>
  <unicode hex="2265"/>
  <outline>
    <contour>
      <point x="152" y="213" type="curve" smooth="yes"/>
      <point x="160" y="213"/>
      <point x="169" y="215"/>
      <point x="179" y="219" type="curve" smooth="yes"/>
      <point x="1074" y="603" type="line" smooth="yes"/>
      <point x="1114" y="621"/>
      <point x="1132" y="645"/>
      <point x="1132" y="674" type="curve" smooth="yes"/>
      <point x="1132" y="702"/>
      <point x="1114" y="726"/>
      <point x="1076" y="742" type="curve"/>
      <point x="177" y="1147" type="line" smooth="yes"/>
      <point x="167" y="1150"/>
      <point x="157" y="1152"/>
      <point x="149" y="1152" type="curve" smooth="yes"/>
      <point x="115" y="1152"/>
      <point x="91" y="1123"/>
      <point x="91" y="1092" type="curve" smooth="yes"/>
      <point x="91" y="1071"/>
      <point x="102" y="1053"/>
      <point x="127" y="1042" type="curve" smooth="yes"/>
      <point x="947" y="675" type="line"/>
      <point x="129" y="328" type="line" smooth="yes"/>
      <point x="104" y="317"/>
      <point x="92" y="297"/>
      <point x="92" y="275" type="curve" smooth="yes"/>
      <point x="92" y="243"/>
      <point x="119" y="213"/>
    </contour>
    <contour>
      <point x="156" y="16" type="curve" smooth="yes"/>
      <point x="1005" y="16" type="line" smooth="yes"/>
      <point x="1038" y="16"/>
      <point x="1054" y="40"/>
      <point x="1054" y="65" type="curve" smooth="yes"/>
      <point x="1054" y="89"/>
      <point x="1038" y="114"/>
      <point x="1005" y="114" type="curve" smooth="yes"/>
      <point x="156" y="114" type="line" smooth="yes"/>
      <point x="123" y="114"/>
      <point x="106" y="90"/>
      <point x="106" y="65" type="curve" smooth="yes"/>
      <point x="106" y="41"/>
      <point x="123" y="16"/>
    </contour>
  </outline>
</glyph>
<glyph name="caron.alt" format="1">
  <advance width="582"/>
  <outline>
    <contour>
      <point x="31" y="312" type="move" name="_caron.alt"/>
    </contour>
    <contour>
      <point x="307" y="307" type="curve" smooth="yes"/>
      <point x="332" y="308"/>
      <point x="346" y="321"/>
      <point x="356" y="350" type="curve" smooth="yes"/>
      <point x="472" y="719" type="line" smooth="yes"/>
      <point x="473" y="723"/>
      <point x="475" y="730"/>
      <point x="475" y="737" type="curve" smooth="yes"/>
      <point x="475" y="753"/>
      <point x="467" y="773"/>
      <point x="438" y="775" type="curve" smooth="yes"/>
      <point x="414" y="775" type="line" smooth="yes"/>
      <point x="382" y="774"/>
      <point x="349" y="766"/>
      <point x="341" y="719" type="curve" smooth="yes"/>
      <point x="283" y="350" type="line" smooth="yes"/>
      <point x="282" y="347"/>
      <point x="282" y="343"/>
      <point x="282" y="338" type="curve" smooth="yes"/>
      <point x="282" y="325"/>
      <point x="286" y="308"/>
    </contour>
  </outline>
</glyph>
<glyph name="slashbar" format="1">
  <advance width="600"/>
  <outline>
    <contour>
      <point x="85" y="649" type="curve" smooth="yes"/>
      <point x="658" y="836" type="line" smooth="yes"/>
      <point x="731" y="859"/>
      <point x="701" y="978"/>
      <point x="620" y="951" type="curve" smooth="yes"/>
      <point x="46" y="764" type="line" smooth="yes"/>
      <point x="-33" y="738"/>
      <point x="-5" y="620"/>
    </contour>
  </outline>
</glyph>
